SplineFontDB: 3.2
FontName: eufont-bold
FullName: Eufont Bold
FamilyName: eufont
Weight: Bold
Copyright: Copyright 2018 All rights reserved.
Version: 1.002
ItalicAngle: 0
UnderlinePosition: -131
UnderlineWidth: 63
Ascent: 800
Descent: 200
InvalidEm: 0
sfntRevision: 0x00010083
LayerCount: 2
Layer: 0 1 "Back" 1
Layer: 1 1 "Fore" 0
XUID: [1021 992 510959400 3700444]
StyleMap: 0x0020
FSType: 0
OS2Version: 4
OS2_WeightWidthSlopeOnly: 0
OS2_UseTypoMetrics: 1
CreationTime: 1524074446
ModificationTime: 1630582996
PfmFamily: 17
TTFWeight: 700
TTFWidth: 5
LineGap: 0
VLineGap: 0
Panose: 2 11 7 2 2 2 3 2 2 4
OS2TypoAscent: 1009
OS2TypoAOffset: 0
OS2TypoDescent: -293
OS2TypoDOffset: 0
OS2TypoLinegap: 0
OS2WinAscent: 1009
OS2WinAOffset: 0
OS2WinDescent: 293
OS2WinDOffset: 0
HheadAscent: 1009
HheadAOffset: 0
HheadDescent: -293
HheadDOffset: 0
OS2SubXSize: 700
OS2SubYSize: 650
OS2SubXOff: 0
OS2SubYOff: 120
OS2SupXSize: 700
OS2SupYSize: 650
OS2SupXOff: 0
OS2SupYOff: 430
OS2StrikeYSize: 65
OS2StrikeYPos: 291
OS2CapHeight: 710
OS2XHeight: 528
OS2FamilyClass: 2052
OS2Vendor: 'DAMA'
OS2CodePages: 00000002.00000000
OS2UnicodeRanges: a100006f.0000004b.00000028.00000000
Lookup: 1 0 0 "'aalt' Access All Alternates in Latin lookup 0" { "'aalt' Access All Alternates in Latin lookup 0 subtable"  } ['aalt' ('DFLT' <'dflt' > 'latn' <'CAT ' 'NLD ' 'dflt' > ) ]
Lookup: 3 0 0 "'aalt' Access All Alternates in Latin lookup 1" { "'aalt' Access All Alternates in Latin lookup 1 subtable"  } ['aalt' ('DFLT' <'dflt' > 'latn' <'CAT ' 'NLD ' 'dflt' > ) ]
Lookup: 6 0 0 "'locl' Localized Forms in Latin lookup 2" { "'locl' Localized Forms in Latin lookup 2 contextual 0"  "'locl' Localized Forms in Latin lookup 2 contextual 1"  } ['locl' ('latn' <'CAT ' > ) ]
Lookup: 1 0 0 "Single Substitution lookup 3" { "Single Substitution lookup 3 subtable"  } []
Lookup: 1 0 0 "Single Substitution lookup 4" { "Single Substitution lookup 4 subtable"  } []

StartChar: .notdef
Encoding: 65536 -1 0
Width: 500
Flags: W
LayerCount: 2
Fore
SplineSet
450 0 m 1,0,-1
 50 0 l 1,1,-1
 50 750 l 1,2,-1
 450 750 l 1,3,-1
 450 0 l 1,0,-1
100 50 m 1,4,-1
 400 50 l 1,5,-1
 400 700 l 1,6,-1
 100 700 l 1,7,-1
 100 50 l 1,4,-1
EndSplineSet
Validated: 1
EndChar

StartChar: period
Encoding: 46 46 4
Width: 270
GlyphClass: 2
Flags: W
LayerCount: 2
Fore
SplineSet
135 -4 m 256,0,1
 110 -4 110 -4 90.5 8 c 128,-1,2
 71 20 71 20 59 40 c 128,-1,3
 47 60 47 60 47 84 c 256,4,5
 47 108 47 108 59 128 c 128,-1,6
 71 148 71 148 90.5 160 c 128,-1,7
 110 172 110 172 135 172 c 256,8,9
 160 172 160 172 179.5 160 c 128,-1,10
 199 148 199 148 211 128 c 128,-1,11
 223 108 223 108 223 84 c 256,12,13
 223 60 223 60 211 40 c 128,-1,14
 199 20 199 20 179.5 8 c 128,-1,15
 160 -4 160 -4 135 -4 c 256,0,1
EndSplineSet
Validated: 1
EndChar

StartChar: comma
Encoding: 44 44 6
Width: 270
GlyphClass: 2
Flags: W
LayerCount: 2
Fore
SplineSet
78 -166 m 1,0,-1
 52 -87 l 1,1,2
 82 -79 82 -79 104.5 -63 c 128,-1,3
 127 -47 127 -47 139.5 -26.5 c 128,-1,4
 152 -6 152 -6 152 17 c 0,5,6
 152 24 152 24 151 30 c 1,7,8
 138 21 138 21 121 21 c 0,9,10
 101 21 101 21 84.5 31 c 128,-1,11
 68 41 68 41 58 58.5 c 128,-1,12
 48 76 48 76 48 96 c 0,13,14
 48 117 48 117 59.5 134.5 c 128,-1,15
 71 152 71 152 90 162.5 c 128,-1,16
 109 173 109 173 132 173 c 0,17,18
 164 173 164 173 189 154.5 c 128,-1,19
 214 136 214 136 229 104 c 128,-1,20
 244 72 244 72 244 33 c 0,21,22
 244 -14 244 -14 223.5 -54.5 c 128,-1,23
 203 -95 203 -95 165.5 -124 c 128,-1,24
 128 -153 128 -153 78 -166 c 1,0,-1
EndSplineSet
Validated: 1
EndChar

StartChar: question
Encoding: 63 63 8
Width: 540
GlyphClass: 2
Flags: W
LayerCount: 2
Fore
SplineSet
191 221 m 1,0,-1
 191 376 l 1,1,2
 360 417 360 417 360 511 c 0,3,4
 360 536 360 536 348 556 c 128,-1,5
 336 576 336 576 314 587 c 128,-1,6
 292 598 292 598 264 598 c 0,7,8
 225 598 225 598 194.5 576.5 c 128,-1,9
 164 555 164 555 152 518 c 1,10,-1
 20 547 l 1,11,12
 29 586 29 586 51 618.5 c 128,-1,13
 73 651 73 651 105 675 c 128,-1,14
 137 699 137 699 177.5 712 c 128,-1,15
 218 725 218 725 265 725 c 0,16,17
 317 725 317 725 361 709.5 c 128,-1,18
 405 694 405 694 437.5 666 c 128,-1,19
 470 638 470 638 488 599.5 c 128,-1,20
 506 561 506 561 506 516 c 0,21,22
 506 466 506 466 484 424.5 c 128,-1,23
 462 383 462 383 421.5 351.5 c 128,-1,24
 381 320 381 320 325 303 c 1,25,-1
 325 221 l 1,26,-1
 191 221 l 1,0,-1
258 -4 m 256,27,28
 234 -4 234 -4 215 7 c 128,-1,29
 196 18 196 18 184.5 37.5 c 128,-1,30
 173 57 173 57 173 81 c 256,31,32
 173 105 173 105 184.5 124.5 c 128,-1,33
 196 144 196 144 215 155 c 128,-1,34
 234 166 234 166 258 166 c 256,35,36
 282 166 282 166 301 155 c 128,-1,37
 320 144 320 144 331.5 124.5 c 128,-1,38
 343 105 343 105 343 81 c 256,39,40
 343 57 343 57 331.5 37.5 c 128,-1,41
 320 18 320 18 301 7 c 128,-1,42
 282 -4 282 -4 258 -4 c 256,27,28
EndSplineSet
Validated: 1
EndChar

StartChar: exclam
Encoding: 33 33 9
Width: 264
GlyphClass: 2
Flags: W
LayerCount: 2
Fore
SplineSet
65 221 m 1,0,-1
 56 710 l 1,1,-1
 208 710 l 1,2,-1
 199 221 l 1,3,-1
 65 221 l 1,0,-1
132 -4 m 256,4,5
 108 -4 108 -4 89 7 c 128,-1,6
 70 18 70 18 58.5 37.5 c 128,-1,7
 47 57 47 57 47 81 c 256,8,9
 47 105 47 105 58.5 124.5 c 128,-1,10
 70 144 70 144 89 155 c 128,-1,11
 108 166 108 166 132 166 c 256,12,13
 156 166 156 166 175 155 c 128,-1,14
 194 144 194 144 205.5 124.5 c 128,-1,15
 217 105 217 105 217 81 c 256,16,17
 217 57 217 57 205.5 37.5 c 128,-1,18
 194 18 194 18 175 7 c 128,-1,19
 156 -4 156 -4 132 -4 c 256,4,5
EndSplineSet
Validated: 1
EndChar

StartChar: questiondown
Encoding: 191 191 10
Width: 513
GlyphClass: 2
Flags: W
LayerCount: 2
Fore
SplineSet
275 362 m 0,0,1
 251 362 251 362 232 373 c 128,-1,2
 213 384 213 384 201.5 403.5 c 128,-1,3
 190 423 190 423 190 447 c 256,4,5
 190 471 190 471 201.5 490.5 c 128,-1,6
 213 510 213 510 232 521 c 128,-1,7
 251 532 251 532 275 532 c 0,8,9
 298 532 298 532 317.5 521 c 128,-1,10
 337 510 337 510 348.5 490.5 c 128,-1,11
 360 471 360 471 360 447 c 256,12,13
 360 423 360 423 348.5 403.5 c 128,-1,14
 337 384 337 384 317.5 373 c 128,-1,15
 298 362 298 362 275 362 c 0,0,1
268 -197 m 0,16,17
 216 -197 216 -197 172 -181.5 c 128,-1,18
 128 -166 128 -166 95.5 -138 c 128,-1,19
 63 -110 63 -110 45 -71.5 c 128,-1,20
 27 -33 27 -33 27 12 c 0,21,22
 27 62 27 62 49 103.5 c 128,-1,23
 71 145 71 145 111.5 176.5 c 128,-1,24
 152 208 152 208 208 225 c 1,25,-1
 208 307 l 1,26,-1
 342 307 l 1,27,-1
 342 152 l 1,28,29
 173 111 173 111 173 17 c 0,30,31
 173 -8 173 -8 185 -28 c 128,-1,32
 197 -48 197 -48 218.5 -59 c 128,-1,33
 240 -70 240 -70 269 -70 c 0,34,35
 308 -70 308 -70 338.5 -48.5 c 128,-1,36
 369 -27 369 -27 381 10 c 1,37,-1
 513 -19 l 1,38,39
 504 -58 504 -58 482 -90.5 c 128,-1,40
 460 -123 460 -123 428 -147 c 128,-1,41
 396 -171 396 -171 355 -184 c 128,-1,42
 314 -197 314 -197 268 -197 c 0,16,17
EndSplineSet
Validated: 1
Substitution2: "'case' Case-Sensitive Forms in Latin lookup 20 subtable" questiondown.aalt
Substitution2: "'aalt' Access All Alternates in Latin lookup 0 subtable" questiondown.aalt
EndChar

StartChar: exclamdown
Encoding: 161 161 11
Width: 264
GlyphClass: 2
Flags: W
LayerCount: 2
Fore
SplineSet
132 362 m 256,0,1
 108 362 108 362 89 373 c 128,-1,2
 70 384 70 384 58.5 403.5 c 128,-1,3
 47 423 47 423 47 447 c 256,4,5
 47 471 47 471 58.5 490.5 c 128,-1,6
 70 510 70 510 89 521 c 128,-1,7
 108 532 108 532 132 532 c 256,8,9
 156 532 156 532 175 521 c 128,-1,10
 194 510 194 510 205.5 490.5 c 128,-1,11
 217 471 217 471 217 447 c 256,12,13
 217 423 217 423 205.5 403.5 c 128,-1,14
 194 384 194 384 175 373 c 128,-1,15
 156 362 156 362 132 362 c 256,0,1
56 -182 m 1,16,-1
 65 307 l 1,17,-1
 199 307 l 1,18,-1
 208 -182 l 1,19,-1
 56 -182 l 1,16,-1
EndSplineSet
Validated: 1
Substitution2: "'case' Case-Sensitive Forms in Latin lookup 20 subtable" exclamdown.aalt
Substitution2: "'aalt' Access All Alternates in Latin lookup 0 subtable" exclamdown.aalt
EndChar

StartChar: quotesingle
Encoding: 39 39 12
Width: 234
GlyphClass: 2
Flags: W
LayerCount: 2
Fore
SplineSet
60 432 m 1,0,-1
 54 710 l 1,1,-1
 180 710 l 1,2,-1
 174 432 l 1,3,-1
 60 432 l 1,0,-1
EndSplineSet
Validated: 1
EndChar

StartChar: zero.aalt
Encoding: 65537 -1 38
Width: 594
GlyphClass: 2
Flags: W
LayerCount: 2
Fore
SplineSet
295 -15 m 0,0,1
 234 -15 234 -15 185.5 10 c 128,-1,2
 137 35 137 35 102.5 82 c 128,-1,3
 68 129 68 129 50 195 c 128,-1,4
 32 261 32 261 32 344 c 256,5,6
 32 427 32 427 50.5 494 c 128,-1,7
 69 561 69 561 103.5 608 c 128,-1,8
 138 655 138 655 187.5 680 c 128,-1,9
 237 705 237 705 299 705 c 0,10,11
 360 705 360 705 408.5 680 c 128,-1,12
 457 655 457 655 491.5 608 c 128,-1,13
 526 561 526 561 544 495 c 128,-1,14
 562 429 562 429 562 346 c 256,15,16
 562 263 562 263 543.5 196 c 128,-1,17
 525 129 525 129 490.5 82 c 128,-1,18
 456 35 456 35 406.5 10 c 128,-1,19
 357 -15 357 -15 295 -15 c 0,0,1
297 116 m 256,20,21
 355 116 355 116 386.5 175.5 c 128,-1,22
 418 235 418 235 418 345 c 256,23,24
 418 455 418 455 386.5 514.5 c 128,-1,25
 355 574 355 574 297 574 c 256,26,27
 239 574 239 574 207.5 514.5 c 128,-1,28
 176 455 176 455 176 345 c 256,29,30
 176 235 176 235 207.5 175.5 c 128,-1,31
 239 116 239 116 297 116 c 256,20,21
EndSplineSet
Validated: 1
Substitution2: "'pnum' Proportional Numbers in Latin lookup 21 subtable" zero
Substitution2: "'aalt' Access All Alternates in Latin lookup 0 subtable" zero
EndChar

StartChar: one.aalt
Encoding: 65538 -1 39
Width: 594
GlyphClass: 2
Flags: W
LayerCount: 2
Fore
SplineSet
272 0 m 1,0,-1
 272 538 l 1,1,-1
 132 460 l 1,2,-1
 85 578 l 1,3,-1
 292 690 l 1,4,-1
 413 690 l 1,5,-1
 413 0 l 1,6,-1
 272 0 l 1,0,-1
EndSplineSet
Validated: 1
Substitution2: "'pnum' Proportional Numbers in Latin lookup 21 subtable" one
Substitution2: "'aalt' Access All Alternates in Latin lookup 0 subtable" one
EndChar

StartChar: two.aalt
Encoding: 65539 -1 40
Width: 594
GlyphClass: 2
Flags: W
LayerCount: 2
Fore
SplineSet
56 0 m 1,0,-1
 56 104 l 1,1,2
 96 138 96 138 126 163.5 c 128,-1,3
 156 189 156 189 179 209.5 c 128,-1,4
 202 230 202 230 220 247 c 128,-1,5
 238 264 238 264 256 282 c 0,6,7
 298 324 298 324 325 357 c 128,-1,8
 352 390 352 390 365.5 419 c 128,-1,9
 379 448 379 448 379 479 c 0,10,11
 379 525 379 525 353.5 551.5 c 128,-1,12
 328 578 328 578 288 578 c 0,13,14
 249 578 249 578 221.5 553 c 128,-1,15
 194 528 194 528 184 485 c 1,16,-1
 49 508 l 1,17,18
 61 568 61 568 95.5 612 c 128,-1,19
 130 656 130 656 181 680.5 c 128,-1,20
 232 705 232 705 293 705 c 0,21,22
 344 705 344 705 386.5 688 c 128,-1,23
 429 671 429 671 460 641 c 128,-1,24
 491 611 491 611 508.5 570 c 128,-1,25
 526 529 526 529 526 481 c 0,26,27
 526 436 526 436 510 396 c 128,-1,28
 494 356 494 356 459.5 313 c 128,-1,29
 425 270 425 270 371 217 c 0,30,31
 347 194 347 194 321.5 171.5 c 128,-1,32
 296 149 296 149 269 126 c 1,33,-1
 538 126 l 1,34,-1
 538 0 l 1,35,-1
 56 0 l 1,0,-1
EndSplineSet
Validated: 1
Substitution2: "'pnum' Proportional Numbers in Latin lookup 21 subtable" two
Substitution2: "'aalt' Access All Alternates in Latin lookup 0 subtable" two
EndChar

StartChar: three.aalt
Encoding: 65540 -1 41
Width: 594
GlyphClass: 2
Flags: W
LayerCount: 2
Fore
SplineSet
293 -15 m 0,0,1
 234 -15 234 -15 181.5 6 c 128,-1,2
 129 27 129 27 91.5 69 c 128,-1,3
 54 111 54 111 39 173 c 1,4,-1
 171 196 l 1,5,6
 184 155 184 155 215 132 c 128,-1,7
 246 109 246 109 290 109 c 0,8,9
 322 109 322 109 346.5 121 c 128,-1,10
 371 133 371 133 385 153.5 c 128,-1,11
 399 174 399 174 399 202 c 0,12,13
 399 229 399 229 385 249.5 c 128,-1,14
 371 270 371 270 345.5 281.5 c 128,-1,15
 320 293 320 293 287 293 c 2,16,-1
 214 293 l 1,17,-1
 214 415 l 1,18,-1
 280 415 l 2,19,20
 312 415 312 415 335.5 426 c 128,-1,21
 359 437 359 437 372 456.5 c 128,-1,22
 385 476 385 476 385 501 c 0,23,24
 385 536 385 536 359.5 558.5 c 128,-1,25
 334 581 334 581 293 581 c 0,26,27
 255 581 255 581 225.5 559.5 c 128,-1,28
 196 538 196 538 184 496 c 1,29,-1
 52 519 l 1,30,31
 63 574 63 574 97.5 616 c 128,-1,32
 132 658 132 658 184 681.5 c 128,-1,33
 236 705 236 705 299 705 c 0,34,35
 347 705 347 705 388.5 691 c 128,-1,36
 430 677 430 677 461 651.5 c 128,-1,37
 492 626 492 626 509 591 c 128,-1,38
 526 556 526 556 526 514 c 0,39,40
 526 463 526 463 501 423.5 c 128,-1,41
 476 384 476 384 429 361 c 1,42,43
 482 341 482 341 512.5 298 c 128,-1,44
 543 255 543 255 543 197 c 0,45,46
 543 152 543 152 524 113 c 128,-1,47
 505 74 505 74 471 45.5 c 128,-1,48
 437 17 437 17 391.5 1 c 128,-1,49
 346 -15 346 -15 293 -15 c 0,0,1
EndSplineSet
Validated: 1
Substitution2: "'pnum' Proportional Numbers in Latin lookup 21 subtable" three
Substitution2: "'aalt' Access All Alternates in Latin lookup 0 subtable" three
EndChar

StartChar: four.aalt
Encoding: 65541 -1 42
Width: 594
GlyphClass: 2
Flags: W
LayerCount: 2
Fore
SplineSet
344 0 m 1,0,-1
 344 142 l 1,1,-1
 31 142 l 1,2,-1
 31 256 l 1,3,-1
 325 690 l 1,4,-1
 481 690 l 1,5,-1
 481 262 l 1,6,-1
 558 262 l 1,7,-1
 558 142 l 1,8,-1
 481 142 l 1,9,-1
 481 0 l 1,10,-1
 344 0 l 1,0,-1
166 262 m 1,11,-1
 344 262 l 1,12,-1
 344 522 l 1,13,-1
 166 262 l 1,11,-1
EndSplineSet
Validated: 1
Substitution2: "'pnum' Proportional Numbers in Latin lookup 21 subtable" four
Substitution2: "'aalt' Access All Alternates in Latin lookup 0 subtable" four
EndChar

StartChar: five.aalt
Encoding: 65542 -1 43
Width: 594
GlyphClass: 2
Flags: W
LayerCount: 2
Fore
SplineSet
296 -15 m 0,0,1
 235 -15 235 -15 184.5 7.5 c 128,-1,2
 134 30 134 30 99 71 c 128,-1,3
 64 112 64 112 51 168 c 1,4,-1
 185 189 l 1,5,6
 198 151 198 151 228.5 130 c 128,-1,7
 259 109 259 109 297 109 c 0,8,9
 329 109 329 109 354 123 c 128,-1,10
 379 137 379 137 393 161 c 128,-1,11
 407 185 407 185 407 216 c 0,12,13
 407 246 407 246 392.5 270 c 128,-1,14
 378 294 378 294 353.5 307.5 c 128,-1,15
 329 321 329 321 298 321 c 0,16,17
 270 321 270 321 243.5 310 c 128,-1,18
 217 299 217 299 200 282 c 1,19,-1
 87 294 l 1,20,-1
 87 690 l 1,21,-1
 500 690 l 1,22,-1
 500 560 l 1,23,-1
 221 560 l 1,24,-1
 221 414 l 1,25,26
 264 444 264 444 326 444 c 0,27,28
 374 444 374 444 415 427 c 128,-1,29
 456 410 456 410 486.5 379.5 c 128,-1,30
 517 349 517 349 534 308.5 c 128,-1,31
 551 268 551 268 551 220 c 0,32,33
 551 169 551 169 531.5 126 c 128,-1,34
 512 83 512 83 477 51.5 c 128,-1,35
 442 20 442 20 395.5 2.5 c 128,-1,36
 349 -15 349 -15 296 -15 c 0,0,1
EndSplineSet
Validated: 1
Substitution2: "'pnum' Proportional Numbers in Latin lookup 21 subtable" five
Substitution2: "'aalt' Access All Alternates in Latin lookup 0 subtable" five
EndChar

StartChar: six.aalt
Encoding: 65543 -1 44
Width: 594
GlyphClass: 2
Flags: W
LayerCount: 2
Fore
SplineSet
314 -15 m 0,0,1
 251 -15 251 -15 200 9 c 128,-1,2
 149 33 149 33 112 77.5 c 128,-1,3
 75 122 75 122 55 183 c 128,-1,4
 35 244 35 244 35 319 c 0,5,6
 35 405 35 405 58 476 c 128,-1,7
 81 547 81 547 124 598 c 128,-1,8
 167 649 167 649 225.5 677 c 128,-1,9
 284 705 284 705 356 705 c 0,10,11
 401 705 401 705 443 693.5 c 128,-1,12
 485 682 485 682 522 660 c 1,13,-1
 484 542 l 1,14,15
 462 557 462 557 429 566 c 128,-1,16
 396 575 396 575 364 575 c 0,17,18
 313 575 313 575 274 550.5 c 128,-1,19
 235 526 235 526 210.5 481 c 128,-1,20
 186 436 186 436 179 374 c 1,21,22
 203 407 203 407 242.5 426 c 128,-1,23
 282 445 282 445 333 445 c 0,24,25
 382 445 382 445 424 428 c 128,-1,26
 466 411 466 411 497 380.5 c 128,-1,27
 528 350 528 350 545.5 309.5 c 128,-1,28
 563 269 563 269 563 221 c 0,29,30
 563 172 563 172 544 129 c 128,-1,31
 525 86 525 86 491 53.5 c 128,-1,32
 457 21 457 21 411.5 3 c 128,-1,33
 366 -15 366 -15 314 -15 c 0,0,1
309 108 m 256,34,35
 340 108 340 108 365 122.5 c 128,-1,36
 390 137 390 137 404.5 162.5 c 128,-1,37
 419 188 419 188 419 219 c 256,38,39
 419 250 419 250 404.5 275 c 128,-1,40
 390 300 390 300 365.5 314 c 128,-1,41
 341 328 341 328 310 328 c 0,42,43
 278 328 278 328 253.5 314 c 128,-1,44
 229 300 229 300 214.5 275.5 c 128,-1,45
 200 251 200 251 200 220 c 0,46,47
 200 188 200 188 214.5 163 c 128,-1,48
 229 138 229 138 253.5 123 c 128,-1,49
 278 108 278 108 309 108 c 256,34,35
EndSplineSet
Validated: 1
Substitution2: "'pnum' Proportional Numbers in Latin lookup 21 subtable" six
Substitution2: "'aalt' Access All Alternates in Latin lookup 0 subtable" six
EndChar

StartChar: seven.aalt
Encoding: 65544 -1 45
Width: 594
GlyphClass: 2
Flags: W
LayerCount: 2
Fore
SplineSet
134 0 m 1,0,-1
 374 559 l 1,1,-1
 50 559 l 1,2,-1
 50 690 l 1,3,-1
 534 690 l 1,4,-1
 534 582 l 1,5,-1
 293 0 l 1,6,-1
 134 0 l 1,0,-1
EndSplineSet
Validated: 1
Substitution2: "'pnum' Proportional Numbers in Latin lookup 21 subtable" seven
Substitution2: "'aalt' Access All Alternates in Latin lookup 0 subtable" seven
EndChar

StartChar: eight.aalt
Encoding: 65545 -1 46
Width: 594
GlyphClass: 2
Flags: W
LayerCount: 2
Fore
SplineSet
296 -15 m 256,0,1
 239 -15 239 -15 191 -0.5 c 128,-1,2
 143 14 143 14 108.5 41.5 c 128,-1,3
 74 69 74 69 55 106 c 128,-1,4
 36 143 36 143 36 188 c 0,5,6
 36 249 36 249 66 294 c 128,-1,7
 96 339 96 339 148 361 c 1,8,9
 105 383 105 383 81.5 422 c 128,-1,10
 58 461 58 461 58 512 c 0,11,12
 58 554 58 554 76 589.5 c 128,-1,13
 94 625 94 625 126.5 650.5 c 128,-1,14
 159 676 159 676 202.5 690.5 c 128,-1,15
 246 705 246 705 298 705 c 256,16,17
 350 705 350 705 393 691 c 128,-1,18
 436 677 436 677 468 651.5 c 128,-1,19
 500 626 500 626 517.5 591 c 128,-1,20
 535 556 535 556 535 515 c 0,21,22
 535 464 535 464 512 424.5 c 128,-1,23
 489 385 489 385 446 362 c 1,24,25
 499 342 499 342 528 297.5 c 128,-1,26
 557 253 557 253 557 192 c 0,27,28
 557 147 557 147 538 109 c 128,-1,29
 519 71 519 71 484 43 c 128,-1,30
 449 15 449 15 401 0 c 128,-1,31
 353 -15 353 -15 296 -15 c 256,0,1
297 413 m 256,32,33
 326 413 326 413 348 424.5 c 128,-1,34
 370 436 370 436 383 455 c 128,-1,35
 396 474 396 474 396 499 c 0,36,37
 396 523 396 523 383 542 c 128,-1,38
 370 561 370 561 348 572 c 128,-1,39
 326 583 326 583 297 583 c 256,40,41
 268 583 268 583 245.5 572 c 128,-1,42
 223 561 223 561 210 542 c 128,-1,43
 197 523 197 523 197 499 c 0,44,45
 197 474 197 474 210 455 c 128,-1,46
 223 436 223 436 245.5 424.5 c 128,-1,47
 268 413 268 413 297 413 c 256,32,33
297 107 m 256,48,49
 332 107 332 107 358.5 119 c 128,-1,50
 385 131 385 131 399.5 151.5 c 128,-1,51
 414 172 414 172 414 200 c 256,52,53
 414 228 414 228 399.5 249.5 c 128,-1,54
 385 271 385 271 358.5 283 c 128,-1,55
 332 295 332 295 297 295 c 256,56,57
 262 295 262 295 235 283 c 128,-1,58
 208 271 208 271 193.5 249.5 c 128,-1,59
 179 228 179 228 179 200 c 256,60,61
 179 172 179 172 194 151.5 c 128,-1,62
 209 131 209 131 235.5 119 c 128,-1,63
 262 107 262 107 297 107 c 256,48,49
EndSplineSet
Validated: 1
Substitution2: "'pnum' Proportional Numbers in Latin lookup 21 subtable" eight
Substitution2: "'aalt' Access All Alternates in Latin lookup 0 subtable" eight
EndChar

StartChar: nine.aalt
Encoding: 65546 -1 47
Width: 594
GlyphClass: 2
Flags: W
LayerCount: 2
Fore
SplineSet
237 -15 m 0,0,1
 143 -15 143 -15 68 30 c 1,2,-1
 106 148 l 1,3,4
 128 133 128 133 161.5 124 c 128,-1,5
 195 115 195 115 231 115 c 0,6,7
 314 115 314 115 361.5 165.5 c 128,-1,8
 409 216 409 216 417 317 c 1,9,10
 393 284 393 284 353.5 264.5 c 128,-1,11
 314 245 314 245 261 245 c 0,12,13
 212 245 212 245 170.5 262 c 128,-1,14
 129 279 129 279 98 309.5 c 128,-1,15
 67 340 67 340 49.5 380.5 c 128,-1,16
 32 421 32 421 32 469 c 0,17,18
 32 519 32 519 51 562 c 128,-1,19
 70 605 70 605 104.5 637 c 128,-1,20
 139 669 139 669 185 687 c 128,-1,21
 231 705 231 705 285 705 c 0,22,23
 345 705 345 705 395.5 681.5 c 128,-1,24
 446 658 446 658 483 613.5 c 128,-1,25
 520 569 520 569 540 505 c 128,-1,26
 560 441 560 441 560 360 c 0,27,28
 560 277 560 277 538 208 c 128,-1,29
 516 139 516 139 474 89 c 128,-1,30
 432 39 432 39 372.5 12 c 128,-1,31
 313 -15 313 -15 237 -15 c 0,0,1
285 362 m 256,32,33
 316 362 316 362 341 376 c 128,-1,34
 366 390 366 390 380.5 414.5 c 128,-1,35
 395 439 395 439 395 470 c 0,36,37
 395 502 395 502 380.5 527 c 128,-1,38
 366 552 366 552 341 567 c 128,-1,39
 316 582 316 582 286 582 c 0,40,41
 255 582 255 582 230 567.5 c 128,-1,42
 205 553 205 553 190.5 527.5 c 128,-1,43
 176 502 176 502 176 471 c 256,44,45
 176 440 176 440 190.5 415 c 128,-1,46
 205 390 205 390 229.5 376 c 128,-1,47
 254 362 254 362 285 362 c 256,32,33
EndSplineSet
Validated: 1
Substitution2: "'pnum' Proportional Numbers in Latin lookup 21 subtable" nine
Substitution2: "'aalt' Access All Alternates in Latin lookup 0 subtable" nine
EndChar

StartChar: uni2080
Encoding: 8320 8320 48
Width: 359
GlyphClass: 2
Flags: W
LayerCount: 2
Fore
SplineSet
177 -9 m 256,0,1
 130 -9 130 -9 96.5 15 c 128,-1,2
 63 39 63 39 44.5 83.5 c 128,-1,3
 26 128 26 128 26 189 c 0,4,5
 26 251 26 251 45 296 c 128,-1,6
 64 341 64 341 99 365 c 128,-1,7
 134 389 134 389 181 389 c 256,8,9
 228 389 228 389 261.5 365 c 128,-1,10
 295 341 295 341 313.5 296.5 c 128,-1,11
 332 252 332 252 332 191 c 0,12,13
 332 129 332 129 313 84 c 128,-1,14
 294 39 294 39 259 15 c 128,-1,15
 224 -9 224 -9 177 -9 c 256,0,1
179 79 m 256,16,17
 205 79 205 79 219 107 c 128,-1,18
 233 135 233 135 233 190 c 256,19,20
 233 245 233 245 219 273 c 128,-1,21
 205 301 205 301 179 301 c 256,22,23
 153 301 153 301 139 273 c 128,-1,24
 125 245 125 245 125 190 c 256,25,26
 125 135 125 135 139 107 c 128,-1,27
 153 79 153 79 179 79 c 256,16,17
EndSplineSet
Validated: 1
EndChar

StartChar: uni2081
Encoding: 8321 8321 49
Width: 359
GlyphClass: 2
Flags: W
LayerCount: 2
Fore
SplineSet
157 0 m 1,0,-1
 157 279 l 1,1,-1
 80 238 l 1,2,-1
 51 317 l 1,3,-1
 169 380 l 1,4,-1
 255 380 l 1,5,-1
 255 0 l 1,6,-1
 157 0 l 1,0,-1
EndSplineSet
Validated: 1
EndChar

StartChar: uni2082
Encoding: 8322 8322 50
Width: 359
GlyphClass: 2
Flags: W
LayerCount: 2
Fore
SplineSet
42 0 m 1,0,-1
 42 69 l 1,1,2
 58 81 58 81 78 97.5 c 128,-1,3
 98 114 98 114 117 130 c 128,-1,4
 136 146 136 146 147 157 c 0,5,6
 182 190 182 190 199 214.5 c 128,-1,7
 216 239 216 239 216 261 c 0,8,9
 216 279 216 279 205 291 c 128,-1,10
 194 303 194 303 175 303 c 0,11,12
 158 303 158 303 145 292.5 c 128,-1,13
 132 282 132 282 127 260 c 1,14,-1
 37 274 l 1,15,16
 43 308 43 308 63.5 334 c 128,-1,17
 84 360 84 360 114 374.5 c 128,-1,18
 144 389 144 389 181 389 c 0,19,20
 220 389 220 389 250 373 c 128,-1,21
 280 357 280 357 297.5 329 c 128,-1,22
 315 301 315 301 315 266 c 0,23,24
 315 232 315 232 295 196.5 c 128,-1,25
 275 161 275 161 226 120 c 0,26,27
 216 111 216 111 204 102 c 128,-1,28
 192 93 192 93 181 85 c 1,29,-1
 322 85 l 1,30,-1
 322 0 l 1,31,-1
 42 0 l 1,0,-1
EndSplineSet
Validated: 1
EndChar

StartChar: uni2083
Encoding: 8323 8323 51
Width: 359
GlyphClass: 2
Flags: W
LayerCount: 2
Fore
SplineSet
174 -9 m 0,0,1
 115 -9 115 -9 77 21 c 128,-1,2
 39 51 39 51 28 98 c 1,3,-1
 116 112 l 1,4,5
 121 96 121 96 135.5 85.5 c 128,-1,6
 150 75 150 75 171 75 c 256,7,8
 192 75 192 75 206.5 86 c 128,-1,9
 221 97 221 97 221 116 c 0,10,11
 221 132 221 132 207.5 143 c 128,-1,12
 194 154 194 154 173 154 c 2,13,-1
 134 154 l 1,14,-1
 134 234 l 1,15,-1
 166 234 l 2,16,17
 187 234 187 234 200.5 244 c 128,-1,18
 214 254 214 254 214 271 c 0,19,20
 214 286 214 286 201.5 295.5 c 128,-1,21
 189 305 189 305 171 305 c 0,22,23
 135 305 135 305 124 271 c 1,24,-1
 35 286 l 1,25,26
 46 333 46 333 84 361 c 128,-1,27
 122 389 122 389 177 389 c 0,28,29
 216 389 216 389 246 375.5 c 128,-1,30
 276 362 276 362 293 338 c 128,-1,31
 310 314 310 314 310 282 c 0,32,33
 310 254 310 254 296 232.5 c 128,-1,34
 282 211 282 211 256 198 c 1,35,36
 286 186 286 186 303 163 c 128,-1,37
 320 140 320 140 320 108 c 0,38,39
 320 74 320 74 301 47.5 c 128,-1,40
 282 21 282 21 249 6 c 128,-1,41
 216 -9 216 -9 174 -9 c 0,0,1
EndSplineSet
Validated: 1
EndChar

StartChar: uni2084
Encoding: 8324 8324 52
Width: 359
GlyphClass: 2
Flags: W
LayerCount: 2
Fore
SplineSet
190 0 m 1,0,-1
 190 72 l 1,1,-1
 19 72 l 1,2,-1
 19 148 l 1,3,-1
 174 380 l 1,4,-1
 286 380 l 1,5,-1
 286 150 l 1,6,-1
 325 150 l 1,7,-1
 325 72 l 1,8,-1
 286 72 l 1,9,-1
 286 0 l 1,10,-1
 190 0 l 1,0,-1
109 150 m 1,11,-1
 190 150 l 1,12,-1
 190 271 l 1,13,-1
 109 150 l 1,11,-1
EndSplineSet
Validated: 1
EndChar

StartChar: fraction
Encoding: 8260 8260 53
Width: 92
GlyphClass: 2
Flags: W
LayerCount: 2
Fore
SplineSet
-226 0 m 1,0,-1
 212 690 l 1,1,-1
 318 690 l 1,2,-1
 -120 0 l 1,3,-1
 -226 0 l 1,0,-1
EndSplineSet
Validated: 1
EndChar

StartChar: percent
Encoding: 37 37 54
Width: 757
GlyphClass: 2
Flags: W
LayerCount: 2
Fore
SplineSet
192 385 m 0,0,1
 146 385 146 385 110.5 405.5 c 128,-1,2
 75 426 75 426 54 461 c 128,-1,3
 33 496 33 496 33 541 c 0,4,5
 33 575 33 575 45 603.5 c 128,-1,6
 57 632 57 632 79 653.5 c 128,-1,7
 101 675 101 675 130.5 687 c 128,-1,8
 160 699 160 699 195 699 c 0,9,10
 229 699 229 699 258 687 c 128,-1,11
 287 675 287 675 309 654 c 128,-1,12
 331 633 331 633 343 604.5 c 128,-1,13
 355 576 355 576 355 542 c 256,14,15
 355 508 355 508 342.5 479.5 c 128,-1,16
 330 451 330 451 308 430 c 128,-1,17
 286 409 286 409 256.5 397 c 128,-1,18
 227 385 227 385 192 385 c 0,0,1
218 0 m 1,19,-1
 106 0 l 1,20,-1
 538 690 l 1,21,-1
 650 690 l 1,22,-1
 218 0 l 1,19,-1
137 542 m 256,23,24
 137 514 137 514 153.5 495 c 128,-1,25
 170 476 170 476 194 476 c 256,26,27
 218 476 218 476 234.5 495 c 128,-1,28
 251 514 251 514 251 542 c 256,29,30
 251 570 251 570 234.5 589 c 128,-1,31
 218 608 218 608 194 608 c 256,32,33
 170 608 170 608 153.5 589 c 128,-1,34
 137 570 137 570 137 542 c 256,23,24
561 -9 m 0,35,36
 516 -9 516 -9 480 11.5 c 128,-1,37
 444 32 444 32 423 67 c 128,-1,38
 402 102 402 102 402 147 c 0,39,40
 402 181 402 181 414 209.5 c 128,-1,41
 426 238 426 238 448 259.5 c 128,-1,42
 470 281 470 281 499.5 293 c 128,-1,43
 529 305 529 305 564 305 c 0,44,45
 598 305 598 305 627 293 c 128,-1,46
 656 281 656 281 678 260 c 128,-1,47
 700 239 700 239 712 210.5 c 128,-1,48
 724 182 724 182 724 148 c 256,49,50
 724 114 724 114 711.5 85.5 c 128,-1,51
 699 57 699 57 677 36 c 128,-1,52
 655 15 655 15 625.5 3 c 128,-1,53
 596 -9 596 -9 561 -9 c 0,35,36
563 82 m 256,54,55
 587 82 587 82 603.5 101 c 128,-1,56
 620 120 620 120 620 148 c 256,57,58
 620 176 620 176 603.5 195 c 128,-1,59
 587 214 587 214 563 214 c 256,60,61
 539 214 539 214 522.5 195 c 128,-1,62
 506 176 506 176 506 148 c 256,63,64
 506 120 506 120 522.5 101 c 128,-1,65
 539 82 539 82 563 82 c 256,54,55
EndSplineSet
Validated: 1
EndChar

StartChar: perthousand
Encoding: 8240 8240 55
Width: 1123
GlyphClass: 2
Flags: W
LayerCount: 2
Fore
SplineSet
192 385 m 0,0,1
 146 385 146 385 110.5 405.5 c 128,-1,2
 75 426 75 426 54 461 c 128,-1,3
 33 496 33 496 33 541 c 0,4,5
 33 575 33 575 45 603.5 c 128,-1,6
 57 632 57 632 79 653.5 c 128,-1,7
 101 675 101 675 130.5 687 c 128,-1,8
 160 699 160 699 195 699 c 0,9,10
 229 699 229 699 258 687 c 128,-1,11
 287 675 287 675 309 654 c 128,-1,12
 331 633 331 633 343 604.5 c 128,-1,13
 355 576 355 576 355 542 c 256,14,15
 355 508 355 508 342.5 479.5 c 128,-1,16
 330 451 330 451 308 430 c 128,-1,17
 286 409 286 409 256.5 397 c 128,-1,18
 227 385 227 385 192 385 c 0,0,1
218 0 m 1,19,-1
 106 0 l 1,20,-1
 538 690 l 1,21,-1
 650 690 l 1,22,-1
 218 0 l 1,19,-1
137 542 m 256,23,24
 137 514 137 514 153.5 495 c 128,-1,25
 170 476 170 476 194 476 c 256,26,27
 218 476 218 476 234.5 495 c 128,-1,28
 251 514 251 514 251 542 c 256,29,30
 251 570 251 570 234.5 589 c 128,-1,31
 218 608 218 608 194 608 c 256,32,33
 170 608 170 608 153.5 589 c 128,-1,34
 137 570 137 570 137 542 c 256,23,24
561 -9 m 0,35,36
 516 -9 516 -9 480 11.5 c 128,-1,37
 444 32 444 32 423 67 c 128,-1,38
 402 102 402 102 402 147 c 0,39,40
 402 181 402 181 414 209.5 c 128,-1,41
 426 238 426 238 448 259.5 c 128,-1,42
 470 281 470 281 499.5 293 c 128,-1,43
 529 305 529 305 564 305 c 0,44,45
 598 305 598 305 627 293 c 128,-1,46
 656 281 656 281 678 260 c 128,-1,47
 700 239 700 239 712 210.5 c 128,-1,48
 724 182 724 182 724 148 c 256,49,50
 724 114 724 114 711.5 85.5 c 128,-1,51
 699 57 699 57 677 36 c 128,-1,52
 655 15 655 15 625.5 3 c 128,-1,53
 596 -9 596 -9 561 -9 c 0,35,36
927 -9 m 0,54,55
 882 -9 882 -9 846 11.5 c 128,-1,56
 810 32 810 32 789 67 c 128,-1,57
 768 102 768 102 768 147 c 0,58,59
 768 181 768 181 780 209.5 c 128,-1,60
 792 238 792 238 814 259.5 c 128,-1,61
 836 281 836 281 865.5 293 c 128,-1,62
 895 305 895 305 930 305 c 0,63,64
 964 305 964 305 993 293 c 128,-1,65
 1022 281 1022 281 1044 260 c 128,-1,66
 1066 239 1066 239 1078 210.5 c 128,-1,67
 1090 182 1090 182 1090 148 c 256,68,69
 1090 114 1090 114 1077.5 85.5 c 128,-1,70
 1065 57 1065 57 1043 36 c 128,-1,71
 1021 15 1021 15 991.5 3 c 128,-1,72
 962 -9 962 -9 927 -9 c 0,54,55
563 82 m 256,73,74
 587 82 587 82 603.5 101 c 128,-1,75
 620 120 620 120 620 148 c 256,76,77
 620 176 620 176 603.5 195 c 128,-1,78
 587 214 587 214 563 214 c 256,79,80
 539 214 539 214 522.5 195 c 128,-1,81
 506 176 506 176 506 148 c 256,82,83
 506 120 506 120 522.5 101 c 128,-1,84
 539 82 539 82 563 82 c 256,73,74
929 82 m 256,85,86
 953 82 953 82 969.5 101 c 128,-1,87
 986 120 986 120 986 148 c 256,88,89
 986 176 986 176 969.5 195 c 128,-1,90
 953 214 953 214 929 214 c 256,91,92
 905 214 905 214 888.5 195 c 128,-1,93
 872 176 872 176 872 148 c 256,94,95
 872 120 872 120 888.5 101 c 128,-1,96
 905 82 905 82 929 82 c 256,85,86
EndSplineSet
Validated: 1
EndChar

StartChar: dollar
Encoding: 36 36 59
Width: 594
GlyphClass: 2
Flags: W
LayerCount: 2
Fore
SplineSet
550 206 m 0,0,1
 550 149 550 149 524.5 103.5 c 128,-1,2
 499 58 499 58 453.5 29.5 c 128,-1,3
 408 1 408 1 349 -7 c 1,4,-1
 349 -140 l 1,5,-1
 248 -140 l 1,6,-1
 248 -5 l 1,7,8
 198 5 198 5 156 29.5 c 128,-1,9
 114 54 114 54 85.5 91.5 c 128,-1,10
 57 129 57 129 44 177 c 1,11,-1
 180 205 l 1,12,13
 196 162 196 162 229 138 c 128,-1,14
 262 114 262 114 306 114 c 0,15,16
 336 114 336 114 359 124.5 c 128,-1,17
 382 135 382 135 395.5 153.5 c 128,-1,18
 409 172 409 172 409 196 c 0,19,20
 409 259 409 259 312 279 c 2,21,-1
 263 289 l 2,22,23
 164 309 164 309 111.5 361 c 128,-1,24
 59 413 59 413 59 490 c 0,25,26
 59 543 59 543 83 586.5 c 128,-1,27
 107 630 107 630 149.5 658.5 c 128,-1,28
 192 687 192 687 248 696 c 1,29,-1
 248 820 l 1,30,-1
 349 820 l 1,31,-1
 349 695 l 1,32,33
 398 687 398 687 437 662.5 c 128,-1,34
 476 638 476 638 502.5 601 c 128,-1,35
 529 564 529 564 539 517 c 1,36,-1
 407 488 l 1,37,38
 391 532 391 532 364 554 c 128,-1,39
 337 576 337 576 296 576 c 0,40,41
 252 576 252 576 226 555 c 128,-1,42
 200 534 200 534 200 499 c 0,43,44
 200 469 200 469 224 449.5 c 128,-1,45
 248 430 248 430 303 419 c 2,46,-1
 352 409 l 2,47,48
 447 390 447 390 498.5 338 c 128,-1,49
 550 286 550 286 550 206 c 0,0,1
EndSplineSet
Validated: 1
EndChar

StartChar: cent
Encoding: 162 162 60
Width: 594
GlyphClass: 2
Flags: W
LayerCount: 2
Fore
SplineSet
553 158 m 1,0,1
 542 113 542 113 514.5 78 c 128,-1,2
 487 43 487 43 448 20.5 c 128,-1,3
 409 -2 409 -2 363 -10 c 1,4,-1
 363 -137 l 1,5,-1
 262 -137 l 1,6,-1
 262 -11 l 1,7,8
 215 -2 215 -2 175 21 c 128,-1,9
 135 44 135 44 106.5 80 c 128,-1,10
 78 116 78 116 62 161.5 c 128,-1,11
 46 207 46 207 46 260 c 256,12,13
 46 313 46 313 62 359.5 c 128,-1,14
 78 406 78 406 107 442.5 c 128,-1,15
 136 479 136 479 175.5 504 c 128,-1,16
 215 529 215 529 262 538 c 1,17,-1
 262 649 l 1,18,-1
 363 649 l 1,19,-1
 363 539 l 1,20,21
 409 531 409 531 446.5 508 c 128,-1,22
 484 485 484 485 510.5 450 c 128,-1,23
 537 415 537 415 548 370 c 1,24,-1
 415 344 l 1,25,26
 400 378 400 378 373 397.5 c 128,-1,27
 346 417 346 417 312 417 c 0,28,29
 276 417 276 417 248.5 397 c 128,-1,30
 221 377 221 377 205 341.5 c 128,-1,31
 189 306 189 306 189 262 c 256,32,33
 189 218 189 218 204.5 184 c 128,-1,34
 220 150 220 150 248 130.5 c 128,-1,35
 276 111 276 111 312 111 c 256,36,37
 348 111 348 111 377 130 c 128,-1,38
 406 149 406 149 420 184 c 1,39,-1
 553 158 l 1,0,1
EndSplineSet
Validated: 1
EndChar

StartChar: sterling
Encoding: 163 163 61
Width: 594
GlyphClass: 2
Flags: W
LayerCount: 2
Fore
SplineSet
27 0 m 1,0,-1
 27 122 l 1,1,-1
 84 122 l 1,2,-1
 97 280 l 1,3,-1
 26 280 l 1,4,-1
 26 386 l 1,5,-1
 106 386 l 1,6,-1
 114 482 l 2,7,8
 120 550 120 550 149 600.5 c 128,-1,9
 178 651 178 651 227 678 c 128,-1,10
 276 705 276 705 340 705 c 0,11,12
 399 705 399 705 445.5 682.5 c 128,-1,13
 492 660 492 660 523 618 c 128,-1,14
 554 576 554 576 565 518 c 1,15,-1
 430 495 l 1,16,17
 413 580 413 580 342 580 c 0,18,19
 304 580 304 580 281.5 554 c 128,-1,20
 259 528 259 528 255 480 c 2,21,-1
 247 386 l 1,22,-1
 415 386 l 1,23,-1
 415 280 l 1,24,-1
 239 280 l 1,25,-1
 226 122 l 1,26,-1
 563 122 l 1,27,-1
 563 0 l 1,28,-1
 27 0 l 1,0,-1
EndSplineSet
Validated: 1
EndChar

StartChar: yen
Encoding: 165 165 62
Width: 594
GlyphClass: 2
Flags: W
LayerCount: 2
Fore
SplineSet
81 120 m 1,0,-1
 81 199 l 1,1,-1
 226 199 l 1,2,-1
 226 274 l 1,3,-1
 81 274 l 1,4,-1
 81 353 l 1,5,-1
 191 353 l 1,6,-1
 12 690 l 1,7,-1
 169 690 l 1,8,-1
 300 403 l 1,9,-1
 429 690 l 1,10,-1
 581 690 l 1,11,-1
 402 353 l 1,12,-1
 512 353 l 1,13,-1
 512 274 l 1,14,-1
 367 274 l 1,15,-1
 367 199 l 1,16,-1
 512 199 l 1,17,-1
 512 120 l 1,18,-1
 367 120 l 1,19,-1
 367 0 l 1,20,-1
 226 0 l 1,21,-1
 226 120 l 1,22,-1
 81 120 l 1,0,-1
EndSplineSet
Validated: 1
EndChar

StartChar: Euro
Encoding: 8364 8364 63
Width: 594
GlyphClass: 2
Flags: W
LayerCount: 2
Fore
SplineSet
-6 231 m 1,0,-1
 13 310 l 1,1,-1
 68 310 l 1,2,3
 68 322 68 322 68 335 c 0,4,5
 68 355 68 355 69 374 c 1,6,-1
 -6 374 l 1,7,-1
 13 453 l 1,8,-1
 79 453 l 1,9,10
 94 532 94 532 129.5 588.5 c 128,-1,11
 165 645 165 645 218 675 c 128,-1,12
 271 705 271 705 339 705 c 0,13,14
 397 705 397 705 445 682.5 c 128,-1,15
 493 660 493 660 525.5 619 c 128,-1,16
 558 578 558 578 571 520 c 1,17,-1
 438 496 l 1,18,19
 426 536 426 536 399 557.5 c 128,-1,20
 372 579 372 579 336 579 c 0,21,22
 291 579 291 579 261.5 547 c 128,-1,23
 232 515 232 515 218 453 c 1,24,-1
 414 453 l 1,25,-1
 395 374 l 1,26,-1
 209 374 l 1,27,28
 208 358 208 358 208 340 c 0,29,30
 208 324 208 324 209 310 c 1,31,-1
 382 310 l 1,32,-1
 363 231 l 1,33,-1
 218 231 l 1,34,35
 244 111 244 111 335 111 c 0,36,37
 373 111 373 111 401.5 133 c 128,-1,38
 430 155 430 155 442 194 c 1,39,-1
 575 170 l 1,40,41
 562 113 562 113 528 71.5 c 128,-1,42
 494 30 494 30 444 7.5 c 128,-1,43
 394 -15 394 -15 334 -15 c 0,44,45
 229 -15 229 -15 162.5 49 c 128,-1,46
 96 113 96 113 76 231 c 1,47,-1
 -6 231 l 1,0,-1
EndSplineSet
Validated: 1
EndChar

StartChar: uni20BA
Encoding: 8378 8378 64
Width: 594
GlyphClass: 2
Flags: W
LayerCount: 2
Fore
SplineSet
116 0 m 1,0,-1
 116 203 l 1,1,-1
 46 170 l 1,2,-1
 46 258 l 1,3,-1
 116 291 l 1,4,-1
 116 368 l 1,5,-1
 47 335 l 1,6,-1
 47 423 l 1,7,-1
 116 456 l 1,8,-1
 116 690 l 1,9,-1
 257 690 l 1,10,-1
 257 524 l 1,11,-1
 381 583 l 1,12,-1
 381 495 l 1,13,-1
 257 436 l 1,14,-1
 257 359 l 1,15,-1
 381 418 l 1,16,-1
 381 330 l 1,17,-1
 257 271 l 1,18,-1
 257 135 l 1,19,20
 327 138 327 138 369 179 c 128,-1,21
 411 220 411 220 424 299 c 1,22,-1
 560 287 l 1,23,24
 538 144 538 144 455 72 c 128,-1,25
 372 0 372 0 230 0 c 2,26,-1
 116 0 l 1,0,-1
EndSplineSet
Validated: 1
EndChar

StartChar: uni20B9
Encoding: 8377 8377 65
Width: 594
GlyphClass: 2
Flags: W
LayerCount: 2
Fore
SplineSet
74 244 m 1,0,-1
 74 339 l 1,1,2
 96 334 96 334 125 331 c 128,-1,3
 154 328 154 328 182 328 c 0,4,5
 240 328 240 328 276.5 349 c 128,-1,6
 313 370 313 370 326 410 c 1,7,-1
 74 410 l 1,8,-1
 74 512 l 1,9,-1
 324 512 l 1,10,11
 310 549 310 549 276 568.5 c 128,-1,12
 242 588 242 588 191 588 c 2,13,-1
 74 588 l 1,14,-1
 74 690 l 1,15,-1
 547 690 l 1,16,-1
 521 588 l 1,17,-1
 419 588 l 1,18,19
 450 556 450 556 464 512 c 1,20,-1
 547 512 l 1,21,-1
 521 410 l 1,22,-1
 470 410 l 1,23,24
 463 364 463 364 437.5 328 c 128,-1,25
 412 292 412 292 372.5 268 c 128,-1,26
 333 244 333 244 281 235 c 1,27,-1
 546 0 l 1,28,-1
 346 0 l 1,29,-1
 74 244 l 1,0,-1
EndSplineSet
Validated: 1
EndChar

StartChar: colonmonetary
Encoding: 8353 8353 66
Width: 594
GlyphClass: 2
Flags: W
LayerCount: 2
Fore
SplineSet
251 -140 m 1,0,-1
 273 -8 l 1,1,2
 248 -5 248 -5 226 2 c 1,3,-1
 202 -140 l 1,4,-1
 134 -140 l 1,5,-1
 163 33 l 1,6,7
 105 74 105 74 73 151 c 128,-1,8
 41 228 41 228 41 336 c 0,9,10
 41 439 41 439 69.5 516 c 128,-1,11
 98 593 98 593 150.5 639.5 c 128,-1,12
 203 686 203 686 274 697 c 1,13,-1
 294 815 l 1,14,-1
 362 815 l 1,15,-1
 343 699 l 1,16,17
 367 696 367 696 390 689 c 1,18,-1
 411 815 l 1,19,-1
 479 815 l 1,20,-1
 453 658 l 1,21,22
 490 632 490 632 515.5 591 c 128,-1,23
 541 550 541 550 554 497 c 1,24,-1
 422 474 l 1,25,26
 409 523 409 523 379.5 546 c 128,-1,27
 350 569 350 569 311 569 c 0,28,29
 250 569 250 569 217.5 510.5 c 128,-1,30
 185 452 185 452 185 343 c 256,31,32
 185 234 185 234 216.5 177.5 c 128,-1,33
 248 121 248 121 307 121 c 0,34,35
 350 121 350 121 379 146.5 c 128,-1,36
 408 172 408 172 420 216 c 1,37,-1
 558 193 l 1,38,39
 544 135 544 135 514 92 c 128,-1,40
 484 49 484 49 440 23.5 c 128,-1,41
 396 -2 396 -2 341 -8 c 1,42,-1
 319 -140 l 1,43,-1
 251 -140 l 1,0,-1
EndSplineSet
Validated: 1
EndChar

StartChar: uni20AA
Encoding: 8362 8362 67
Width: 926
GlyphClass: 2
Flags: W
LayerCount: 2
Fore
SplineSet
75 0 m 1,0,-1
 75 690 l 1,1,-1
 384 690 l 2,2,3
 462 690 462 690 518 658.5 c 128,-1,4
 574 627 574 627 604 568.5 c 128,-1,5
 634 510 634 510 634 429 c 2,6,-1
 634 218 l 1,7,-1
 512 218 l 1,8,-1
 512 424 l 2,9,10
 512 487 512 487 477 521 c 128,-1,11
 442 555 442 555 378 555 c 2,12,-1
 197 555 l 1,13,-1
 197 0 l 1,14,-1
 75 0 l 1,0,-1
292 0 m 1,15,-1
 292 468 l 1,16,-1
 414 468 l 1,17,-1
 414 136 l 1,18,-1
 595 136 l 2,19,20
 660 136 660 136 694.5 170 c 128,-1,21
 729 204 729 204 729 267 c 2,22,-1
 729 690 l 1,23,-1
 851 690 l 1,24,-1
 851 261 l 2,25,26
 851 180 851 180 821 121.5 c 128,-1,27
 791 63 791 63 734.5 31.5 c 128,-1,28
 678 0 678 0 601 0 c 2,29,-1
 292 0 l 1,15,-1
EndSplineSet
Validated: 1
EndChar

StartChar: uni20A9
Encoding: 8361 8361 68
Width: 952
GlyphClass: 2
Flags: W
LayerCount: 2
Fore
SplineSet
232 0 m 1,0,-1
 178 205 l 1,1,-1
 28 205 l 1,2,-1
 28 289 l 1,3,-1
 155 289 l 1,4,-1
 137 358 l 1,5,-1
 28 358 l 1,6,-1
 28 442 l 1,7,-1
 115 442 l 1,8,-1
 49 690 l 1,9,-1
 198 690 l 1,10,-1
 305 185 l 1,11,-1
 416 690 l 1,12,-1
 542 690 l 1,13,-1
 653 187 l 1,14,-1
 760 690 l 1,15,-1
 903 690 l 1,16,-1
 837 442 l 1,17,-1
 924 442 l 1,18,-1
 924 358 l 1,19,-1
 815 358 l 1,20,-1
 797 289 l 1,21,-1
 924 289 l 1,22,-1
 924 205 l 1,23,-1
 774 205 l 1,24,-1
 720 0 l 1,25,-1
 579 0 l 1,26,-1
 477 460 l 1,27,-1
 375 0 l 1,28,-1
 232 0 l 1,0,-1
EndSplineSet
Validated: 1
EndChar

StartChar: uni20AD
Encoding: 8365 8365 69
Width: 594
GlyphClass: 2
Flags: W
LayerCount: 2
Fore
SplineSet
74 0 m 1,0,-1
 74 309 l 1,1,-1
 2 309 l 1,2,-1
 2 414 l 1,3,-1
 74 414 l 1,4,-1
 74 690 l 1,5,-1
 215 690 l 1,6,-1
 215 391 l 1,7,-1
 411 690 l 1,8,-1
 569 690 l 1,9,-1
 368 414 l 1,10,-1
 530 414 l 1,11,-1
 530 309 l 1,12,-1
 376 309 l 1,13,-1
 605 0 l 1,14,-1
 429 0 l 1,15,-1
 215 329 l 1,16,-1
 215 0 l 1,17,-1
 74 0 l 1,0,-1
EndSplineSet
Validated: 1
EndChar

StartChar: uni20A8
Encoding: 8360 8360 70
Width: 1078
GlyphClass: 2
Flags: W
LayerCount: 2
Fore
SplineSet
63 0 m 1,0,-1
 63 690 l 1,1,-1
 276 690 l 2,2,3
 358 690 358 690 418 663 c 128,-1,4
 478 636 478 636 510 586.5 c 128,-1,5
 542 537 542 537 542 468 c 0,6,7
 542 428 542 428 528 391.5 c 128,-1,8
 514 355 514 355 488.5 325.5 c 128,-1,9
 463 296 463 296 428 277 c 1,10,-1
 581 0 l 1,11,-1
 424 0 l 1,12,-1
 304 238 l 1,13,14
 284 236 284 236 266 236 c 0,15,16
 239 236 239 236 203 241 c 1,17,-1
 203 0 l 1,18,-1
 63 0 l 1,0,-1
203 566 m 1,19,-1
 203 365 l 1,20,21
 220 362 220 362 237.5 360.5 c 128,-1,22
 255 359 255 359 274 359 c 0,23,24
 334 359 334 359 367 386.5 c 128,-1,25
 400 414 400 414 400 464 c 0,26,27
 400 512 400 512 367.5 539 c 128,-1,28
 335 566 335 566 276 566 c 2,29,-1
 203 566 l 1,19,-1
825 -15 m 0,30,31
 772 -15 772 -15 726 3 c 128,-1,32
 680 21 680 21 648 54 c 128,-1,33
 616 87 616 87 603 132 c 1,34,-1
 727 159 l 1,35,36
 737 128 737 128 764.5 110 c 128,-1,37
 792 92 792 92 826 92 c 0,38,39
 861 92 861 92 883 107 c 128,-1,40
 905 122 905 122 905 148 c 256,41,42
 905 174 905 174 883.5 187 c 128,-1,43
 862 200 862 200 821 208 c 2,44,-1
 793 213 l 2,45,46
 708 228 708 228 663 268.5 c 128,-1,47
 618 309 618 309 618 372 c 0,48,49
 618 422 618 422 644 460.5 c 128,-1,50
 670 499 670 499 716 521 c 128,-1,51
 762 543 762 543 822 543 c 0,52,53
 873 543 873 543 916.5 525.5 c 128,-1,54
 960 508 960 508 990 476 c 128,-1,55
 1020 444 1020 444 1031 399 c 1,56,-1
 908 373 l 1,57,58
 898 403 898 403 875 420 c 128,-1,59
 852 437 852 437 822 437 c 0,60,61
 791 437 791 437 770.5 422 c 128,-1,62
 750 407 750 407 750 384 c 0,63,64
 750 370 750 370 757.5 360 c 128,-1,65
 765 350 765 350 783.5 342 c 128,-1,66
 802 334 802 334 836 328 c 2,67,-1
 864 323 l 2,68,69
 950 308 950 308 994.5 266 c 128,-1,70
 1039 224 1039 224 1039 162 c 0,71,72
 1039 124 1039 124 1023.5 91.5 c 128,-1,73
 1008 59 1008 59 979.5 35 c 128,-1,74
 951 11 951 11 911.5 -2 c 128,-1,75
 872 -15 872 -15 825 -15 c 0,30,31
EndSplineSet
Validated: 1
EndChar

StartChar: uni20B1
Encoding: 8369 8369 71
Width: 594
GlyphClass: 2
Flags: W
LayerCount: 2
Fore
SplineSet
92 0 m 1,0,-1
 92 335 l 1,1,-1
 12 335 l 1,2,-1
 12 419 l 1,3,-1
 92 419 l 1,4,-1
 92 488 l 1,5,-1
 12 488 l 1,6,-1
 12 572 l 1,7,-1
 92 572 l 1,8,-1
 92 690 l 1,9,-1
 275 690 l 2,10,11
 353 690 353 690 410 659 c 128,-1,12
 467 628 467 628 496 572 c 1,13,-1
 586 572 l 1,14,-1
 586 488 l 1,15,-1
 521 488 l 1,16,17
 523 471 523 471 523 453 c 0,18,19
 523 436 523 436 521 419 c 1,20,-1
 586 419 l 1,21,-1
 586 335 l 1,22,-1
 495 335 l 1,23,24
 465 280 465 280 408.5 248 c 128,-1,25
 352 216 352 216 277 216 c 0,26,27
 256 216 256 216 231 219 c 1,28,-1
 231 0 l 1,29,-1
 92 0 l 1,0,-1
231 567 m 1,30,-1
 231 342 l 1,31,32
 248 339 248 339 263 339 c 0,33,34
 300 339 300 339 327 353 c 128,-1,35
 354 367 354 367 369 392.5 c 128,-1,36
 384 418 384 418 384 453 c 0,37,38
 384 506 384 506 354 536.5 c 128,-1,39
 324 567 324 567 272 567 c 2,40,-1
 231 567 l 1,30,-1
EndSplineSet
Validated: 1
EndChar

StartChar: uni0E3F
Encoding: 3647 3647 72
Width: 594
GlyphClass: 2
Flags: W
LayerCount: 2
Fore
SplineSet
62 0 m 1,0,-1
 62 690 l 1,1,-1
 238 690 l 1,2,-1
 238 815 l 1,3,-1
 339 815 l 1,4,-1
 339 688 l 1,5,6
 399 682 399 682 442 659 c 128,-1,7
 485 636 485 636 508 598.5 c 128,-1,8
 531 561 531 561 531 512 c 0,9,10
 531 466 531 466 510.5 427.5 c 128,-1,11
 490 389 490 389 452 368 c 1,12,13
 504 348 504 348 532.5 303.5 c 128,-1,14
 561 259 561 259 561 197 c 0,15,16
 561 142 561 142 534 99.5 c 128,-1,17
 507 57 507 57 457 32 c 128,-1,18
 407 7 407 7 339 1 c 1,19,-1
 339 -140 l 1,20,-1
 238 -140 l 1,21,-1
 238 0 l 1,22,-1
 62 0 l 1,0,-1
197 572 m 1,23,-1
 197 413 l 1,24,-1
 294 413 l 2,25,26
 341 413 341 413 366.5 433.5 c 128,-1,27
 392 454 392 454 392 491 c 0,28,29
 392 530 392 530 366 551 c 128,-1,30
 340 572 340 572 294 572 c 2,31,-1
 197 572 l 1,23,-1
197 118 m 1,32,-1
 308 118 l 2,33,34
 362 118 362 118 391.5 141.5 c 128,-1,35
 421 165 421 165 421 208 c 0,36,37
 421 253 421 253 391.5 276.5 c 128,-1,38
 362 300 362 300 308 300 c 2,39,-1
 197 300 l 1,40,-1
 197 118 l 1,32,-1
EndSplineSet
Validated: 1
EndChar

StartChar: dong
Encoding: 8363 8363 73
Width: 594
GlyphClass: 2
Flags: W
LayerCount: 2
Fore
SplineSet
236 -15 m 0,0,1
 189 -15 189 -15 148.5 4.5 c 128,-1,2
 108 24 108 24 78 58.5 c 128,-1,3
 48 93 48 93 31 139 c 128,-1,4
 14 185 14 185 14 239 c 0,5,6
 14 294 14 294 31.5 341.5 c 128,-1,7
 49 389 49 389 80 424.5 c 128,-1,8
 111 460 111 460 153 479.5 c 128,-1,9
 195 499 195 499 244 499 c 0,10,11
 287 499 287 499 323 481.5 c 128,-1,12
 359 464 359 464 383 432 c 1,13,-1
 383 541 l 1,14,-1
 256 541 l 1,15,-1
 256 628 l 1,16,-1
 383 628 l 1,17,-1
 383 690 l 1,18,-1
 523 690 l 1,19,-1
 523 628 l 1,20,-1
 586 628 l 1,21,-1
 586 541 l 1,22,-1
 523 541 l 1,23,-1
 523 0 l 1,24,-1
 394 0 l 1,25,-1
 390 68 l 1,26,27
 365 29 365 29 325 7 c 128,-1,28
 285 -15 285 -15 236 -15 c 0,0,1
270 107 m 256,29,30
 303 107 303 107 328.5 124.5 c 128,-1,31
 354 142 354 142 369 172.5 c 128,-1,32
 384 203 384 203 384 242 c 256,33,34
 384 281 384 281 369 311.5 c 128,-1,35
 354 342 354 342 328.5 359.5 c 128,-1,36
 303 377 303 377 270 377 c 256,37,38
 237 377 237 377 211.5 359.5 c 128,-1,39
 186 342 186 342 171 311.5 c 128,-1,40
 156 281 156 281 156 242 c 256,41,42
 156 203 156 203 171 172.5 c 128,-1,43
 186 142 186 142 211.5 124.5 c 128,-1,44
 237 107 237 107 270 107 c 256,29,30
21 -158 m 1,45,-1
 21 -71 l 1,46,-1
 553 -71 l 1,47,-1
 553 -158 l 1,48,-1
 21 -158 l 1,45,-1
EndSplineSet
Validated: 1
EndChar

StartChar: currency
Encoding: 164 164 74
Width: 594
GlyphClass: 2
Flags: W
LayerCount: 2
Fore
SplineSet
42 180 m 1,0,-1
 120 259 l 1,1,2
 106 282 106 282 98.5 308.5 c 128,-1,3
 91 335 91 335 91 363 c 256,4,5
 91 391 91 391 98.5 417.5 c 128,-1,6
 106 444 106 444 120 467 c 1,7,-1
 42 546 l 1,8,-1
 115 619 l 1,9,-1
 192 540 l 1,10,11
 216 554 216 554 242.5 561.5 c 128,-1,12
 269 569 269 569 297 569 c 256,13,14
 325 569 325 569 351.5 561.5 c 128,-1,15
 378 554 378 554 402 540 c 1,16,-1
 479 619 l 1,17,-1
 552 546 l 1,18,-1
 474 467 l 1,19,20
 488 444 488 444 495.5 417.5 c 128,-1,21
 503 391 503 391 503 363 c 256,22,23
 503 335 503 335 495.5 308.5 c 128,-1,24
 488 282 488 282 474 259 c 1,25,-1
 552 180 l 1,26,-1
 479 107 l 1,27,-1
 402 186 l 1,28,29
 378 172 378 172 351.5 164.5 c 128,-1,30
 325 157 325 157 297 157 c 256,31,32
 269 157 269 157 242.5 164.5 c 128,-1,33
 216 172 216 172 192 186 c 1,34,-1
 115 107 l 1,35,-1
 42 180 l 1,0,-1
297 271 m 256,36,37
 322 271 322 271 340.5 283 c 128,-1,38
 359 295 359 295 370 315.5 c 128,-1,39
 381 336 381 336 381 363 c 256,40,41
 381 390 381 390 370 410.5 c 128,-1,42
 359 431 359 431 340.5 443 c 128,-1,43
 322 455 322 455 297 455 c 256,44,45
 272 455 272 455 253.5 443 c 128,-1,46
 235 431 235 431 224 410.5 c 128,-1,47
 213 390 213 390 213 363 c 256,48,49
 213 336 213 336 224 315.5 c 128,-1,50
 235 295 235 295 253.5 283 c 128,-1,51
 272 271 272 271 297 271 c 256,36,37
EndSplineSet
Validated: 1
EndChar

StartChar: asciicircum
Encoding: 94 94 75
Width: 594
GlyphClass: 2
Flags: W
LayerCount: 2
Fore
SplineSet
66 340 m 1,0,-1
 237 690 l 1,1,-1
 358 690 l 1,2,-1
 529 340 l 1,3,-1
 397 340 l 1,4,-1
 295 556 l 1,5,-1
 192 340 l 1,6,-1
 66 340 l 1,0,-1
EndSplineSet
Validated: 1
EndChar

StartChar: plus
Encoding: 43 43 76
Width: 594
GlyphClass: 2
Flags: W
LayerCount: 2
Fore
SplineSet
78 217 m 1,0,-1
 78 334 l 1,1,-1
 237 334 l 1,2,-1
 237 495 l 1,3,-1
 357 495 l 1,4,-1
 357 334 l 1,5,-1
 516 334 l 1,6,-1
 516 217 l 1,7,-1
 357 217 l 1,8,-1
 357 50 l 1,9,-1
 237 50 l 1,10,-1
 237 217 l 1,11,-1
 78 217 l 1,0,-1
EndSplineSet
Validated: 1
EndChar

StartChar: minus
Encoding: 8722 8722 77
Width: 594
GlyphClass: 2
Flags: W
LayerCount: 2
Fore
SplineSet
87 215 m 1,0,-1
 87 336 l 1,1,-1
 507 336 l 1,2,-1
 507 215 l 1,3,-1
 87 215 l 1,0,-1
EndSplineSet
Validated: 1
EndChar

StartChar: plusminus
Encoding: 177 177 78
Width: 594
GlyphClass: 2
Flags: W
LayerCount: 2
Fore
SplineSet
240 167 m 1,0,-1
 240 324 l 1,1,-1
 85 324 l 1,2,-1
 85 434 l 1,3,-1
 240 434 l 1,4,-1
 240 586 l 1,5,-1
 354 586 l 1,6,-1
 354 434 l 1,7,-1
 509 434 l 1,8,-1
 509 324 l 1,9,-1
 354 324 l 1,10,-1
 354 167 l 1,11,-1
 240 167 l 1,0,-1
95 0 m 1,12,-1
 95 115 l 1,13,-1
 499 115 l 1,14,-1
 499 0 l 1,15,-1
 95 0 l 1,12,-1
EndSplineSet
Validated: 1
EndChar

StartChar: equal
Encoding: 61 61 79
Width: 594
GlyphClass: 2
Flags: W
LayerCount: 2
Fore
SplineSet
80 331 m 1,0,-1
 80 448 l 1,1,-1
 514 448 l 1,2,-1
 514 331 l 1,3,-1
 80 331 l 1,0,-1
80 101 m 1,4,-1
 80 219 l 1,5,-1
 514 219 l 1,6,-1
 514 101 l 1,7,-1
 80 101 l 1,4,-1
EndSplineSet
Validated: 1
EndChar

StartChar: divide
Encoding: 247 247 80
Width: 594
GlyphClass: 2
Flags: W
LayerCount: 2
Fore
SplineSet
297 380 m 256,0,1
 278 380 278 380 262.5 389.5 c 128,-1,2
 247 399 247 399 238 414.5 c 128,-1,3
 229 430 229 430 229 449 c 256,4,5
 229 468 229 468 238 483.5 c 128,-1,6
 247 499 247 499 262.5 508.5 c 128,-1,7
 278 518 278 518 297 518 c 256,8,9
 316 518 316 518 331.5 508.5 c 128,-1,10
 347 499 347 499 356 483.5 c 128,-1,11
 365 468 365 468 365 449 c 256,12,13
 365 430 365 430 356 414.5 c 128,-1,14
 347 399 347 399 331.5 389.5 c 128,-1,15
 316 380 316 380 297 380 c 256,0,1
81 217 m 1,16,-1
 81 334 l 1,17,-1
 513 334 l 1,18,-1
 513 217 l 1,19,-1
 81 217 l 1,16,-1
297 33 m 256,20,21
 278 33 278 33 262.5 42.5 c 128,-1,22
 247 52 247 52 238 67.5 c 128,-1,23
 229 83 229 83 229 102 c 256,24,25
 229 121 229 121 238 136.5 c 128,-1,26
 247 152 247 152 262.5 161.5 c 128,-1,27
 278 171 278 171 297 171 c 256,28,29
 316 171 316 171 331.5 161.5 c 128,-1,30
 347 152 347 152 356 136.5 c 128,-1,31
 365 121 365 121 365 102 c 256,32,33
 365 83 365 83 356 67.5 c 128,-1,34
 347 52 347 52 331.5 42.5 c 128,-1,35
 316 33 316 33 297 33 c 256,20,21
EndSplineSet
Validated: 1
EndChar

StartChar: less
Encoding: 60 60 81
Width: 594
GlyphClass: 2
Flags: W
LayerCount: 2
Fore
SplineSet
480 493 m 1,0,-1
 480 372 l 1,1,-1
 220 277 l 1,2,-1
 480 182 l 1,3,-1
 480 57 l 1,4,-1
 89 219 l 1,5,-1
 89 331 l 1,6,-1
 480 493 l 1,0,-1
EndSplineSet
Validated: 1
EndChar

StartChar: greater
Encoding: 62 62 82
Width: 594
GlyphClass: 2
Flags: W
LayerCount: 2
Fore
SplineSet
114 57 m 1,0,-1
 114 178 l 1,1,-1
 374 273 l 1,2,-1
 114 368 l 1,3,-1
 114 493 l 1,4,-1
 505 331 l 1,5,-1
 505 219 l 1,6,-1
 114 57 l 1,0,-1
EndSplineSet
Validated: 1
EndChar

StartChar: asciitilde
Encoding: 126 126 83
Width: 594
GlyphClass: 2
Flags: W
LayerCount: 2
Fore
SplineSet
385 175 m 0,0,1
 360 175 360 175 339.5 182.5 c 128,-1,2
 319 190 319 190 303 200.5 c 128,-1,3
 287 211 287 211 273.5 221.5 c 128,-1,4
 260 232 260 232 247 239.5 c 128,-1,5
 234 247 234 247 221 247 c 0,6,7
 185 247 185 247 175 182 c 1,8,-1
 59 182 l 1,9,10
 67 272 67 272 107 322 c 128,-1,11
 147 372 147 372 209 372 c 0,12,13
 234 372 234 372 254.5 364.5 c 128,-1,14
 275 357 275 357 291 346.5 c 128,-1,15
 307 336 307 336 320.5 325.5 c 128,-1,16
 334 315 334 315 347 307.5 c 128,-1,17
 360 300 360 300 373 300 c 0,18,19
 409 300 409 300 419 365 c 1,20,-1
 535 365 l 1,21,22
 527 275 527 275 487 225 c 128,-1,23
 447 175 447 175 385 175 c 0,0,1
EndSplineSet
Validated: 1
EndChar

StartChar: logicalnot
Encoding: 172 172 84
Width: 594
GlyphClass: 2
Flags: W
LayerCount: 2
Fore
SplineSet
76 263 m 1,0,-1
 76 380 l 1,1,-1
 498 380 l 1,2,-1
 498 97 l 1,3,-1
 378 97 l 1,4,-1
 378 263 l 1,5,-1
 76 263 l 1,0,-1
EndSplineSet
Validated: 1
EndChar

StartChar: multiply
Encoding: 215 215 85
Width: 594
GlyphClass: 2
Flags: W
LayerCount: 2
Fore
SplineSet
163 66 m 1,0,-1
 86 143 l 1,1,-1
 220 278 l 1,2,-1
 93 405 l 1,3,-1
 170 482 l 1,4,-1
 297 355 l 1,5,-1
 424 482 l 1,6,-1
 501 405 l 1,7,-1
 374 278 l 1,8,-1
 508 143 l 1,9,-1
 431 66 l 1,10,-1
 297 200 l 1,11,-1
 163 66 l 1,0,-1
EndSplineSet
Validated: 1
EndChar

StartChar: underscore
Encoding: 95 95 86
Width: 593
GlyphClass: 2
Flags: W
LayerCount: 2
Fore
SplineSet
30 -163 m 1,0,-1
 30 -59 l 1,1,-1
 563 -59 l 1,2,-1
 563 -163 l 1,3,-1
 30 -163 l 1,0,-1
EndSplineSet
Validated: 1
EndChar

StartChar: section
Encoding: 167 167 87
Width: 514
GlyphClass: 2
Flags: W
LayerCount: 2
Fore
SplineSet
253 -95 m 0,0,1
 200 -95 200 -95 154.5 -79 c 128,-1,2
 109 -63 109 -63 76 -31.5 c 128,-1,3
 43 0 43 0 27 47 c 1,4,-1
 158 73 l 1,5,6
 172 44 172 44 197 30.5 c 128,-1,7
 222 17 222 17 256 17 c 0,8,9
 291 17 291 17 313 31.5 c 128,-1,10
 335 46 335 46 335 69 c 256,11,12
 335 92 335 92 316.5 105.5 c 128,-1,13
 298 119 298 119 251 127 c 2,14,-1
 206 135 l 2,15,16
 124 149 124 149 79.5 190.5 c 128,-1,17
 35 232 35 232 35 296 c 0,18,19
 35 341 35 341 57 376 c 128,-1,20
 79 411 79 411 119 432 c 1,21,22
 48 475 48 475 48 554 c 0,23,24
 48 604 48 604 74.5 642.5 c 128,-1,25
 101 681 101 681 148.5 703 c 128,-1,26
 196 725 196 725 259 725 c 0,27,28
 310 725 310 725 353 709.5 c 128,-1,29
 396 694 396 694 426.5 663 c 128,-1,30
 457 632 457 632 471 585 c 1,31,-1
 341 559 l 1,32,33
 329 587 329 587 306.5 599.5 c 128,-1,34
 284 612 284 612 255 612 c 0,35,36
 225 612 225 612 205 598 c 128,-1,37
 185 584 185 584 185 564 c 0,38,39
 185 542 185 542 205.5 528.5 c 128,-1,40
 226 515 226 515 269 508 c 2,41,-1
 320 500 l 2,42,43
 402 487 402 487 444.5 447 c 128,-1,44
 487 407 487 407 487 344 c 0,45,46
 487 294 487 294 463 259 c 128,-1,47
 439 224 439 224 400 204 c 1,48,49
 474 160 474 160 474 79 c 0,50,51
 474 41 474 41 458 9 c 128,-1,52
 442 -23 442 -23 412 -46.5 c 128,-1,53
 382 -70 382 -70 341.5 -82.5 c 128,-1,54
 301 -95 301 -95 253 -95 c 0,0,1
356 315 m 0,55,56
 356 341 356 341 337 356.5 c 128,-1,57
 318 372 318 372 283 380 c 2,58,-1
 265 384 l 2,59,60
 258 386 258 386 251 386.5 c 128,-1,61
 244 387 244 387 240 387 c 0,62,63
 206 387 206 387 185.5 369.5 c 128,-1,64
 165 352 165 352 165 321 c 0,65,66
 165 295 165 295 184 279.5 c 128,-1,67
 203 264 203 264 238 256 c 2,68,-1
 256 252 l 2,69,70
 263 250 263 250 269.5 249.5 c 128,-1,71
 276 249 276 249 281 249 c 0,72,73
 315 249 315 249 335.5 266.5 c 128,-1,74
 356 284 356 284 356 315 c 0,55,56
EndSplineSet
Validated: 1
EndChar

StartChar: paragraph
Encoding: 182 182 88
Width: 590
GlyphClass: 2
Flags: W
LayerCount: 2
Fore
SplineSet
264 -92 m 1,0,-1
 264 235 l 1,1,2
 193 244 193 244 142.5 275.5 c 128,-1,3
 92 307 92 307 64.5 357 c 128,-1,4
 37 407 37 407 37 472 c 0,5,6
 37 546 37 546 70.5 599.5 c 128,-1,7
 104 653 104 653 167 681.5 c 128,-1,8
 230 710 230 710 317 710 c 2,9,-1
 354 710 l 1,10,-1
 354 -92 l 1,11,-1
 264 -92 l 1,0,-1
429 -92 m 1,12,-1
 429 710 l 1,13,-1
 519 710 l 1,14,-1
 519 -92 l 1,15,-1
 429 -92 l 1,12,-1
EndSplineSet
Validated: 1
EndChar

StartChar: numbersign
Encoding: 35 35 89
Width: 664
GlyphClass: 2
Flags: W
LayerCount: 2
Fore
SplineSet
130 0 m 1,0,-1
 144 177 l 1,1,-1
 50 177 l 1,2,-1
 58 272 l 1,3,-1
 152 272 l 1,4,-1
 164 418 l 1,5,-1
 71 418 l 1,6,-1
 79 513 l 1,7,-1
 172 513 l 1,8,-1
 186 690 l 1,9,-1
 293 690 l 1,10,-1
 279 513 l 1,11,-1
 413 513 l 1,12,-1
 427 690 l 1,13,-1
 534 690 l 1,14,-1
 520 513 l 1,15,-1
 614 513 l 1,16,-1
 606 418 l 1,17,-1
 512 418 l 1,18,-1
 500 272 l 1,19,-1
 594 272 l 1,20,-1
 586 177 l 1,21,-1
 492 177 l 1,22,-1
 478 0 l 1,23,-1
 371 0 l 1,24,-1
 385 177 l 1,25,-1
 251 177 l 1,26,-1
 237 0 l 1,27,-1
 130 0 l 1,0,-1
259 272 m 1,28,-1
 393 272 l 1,29,-1
 405 418 l 1,30,-1
 271 418 l 1,31,-1
 259 272 l 1,28,-1
EndSplineSet
Validated: 1
EndChar

StartChar: bar
Encoding: 124 124 90
Width: 273
GlyphClass: 2
Flags: W
LayerCount: 2
Fore
SplineSet
75 -115 m 1,0,-1
 75 763 l 1,1,-1
 198 763 l 1,2,-1
 198 -115 l 1,3,-1
 75 -115 l 1,0,-1
EndSplineSet
Validated: 1
EndChar

StartChar: dagger
Encoding: 8224 8224 91
Width: 480
GlyphClass: 2
Flags: W
LayerCount: 2
Fore
SplineSet
176 -82 m 1,0,-1
 176 428 l 1,1,-1
 30 428 l 1,2,-1
 30 540 l 1,3,-1
 176 540 l 1,4,-1
 176 710 l 1,5,-1
 304 710 l 1,6,-1
 304 540 l 1,7,-1
 450 540 l 1,8,-1
 450 428 l 1,9,-1
 304 428 l 1,10,-1
 304 -82 l 1,11,-1
 176 -82 l 1,0,-1
EndSplineSet
Validated: 1
EndChar

StartChar: daggerdbl
Encoding: 8225 8225 92
Width: 520
GlyphClass: 2
Flags: W
LayerCount: 2
Fore
SplineSet
50 93 m 1,0,-1
 50 205 l 1,1,-1
 196 205 l 1,2,-1
 196 428 l 1,3,-1
 50 428 l 1,4,-1
 50 540 l 1,5,-1
 196 540 l 1,6,-1
 196 710 l 1,7,-1
 324 710 l 1,8,-1
 324 540 l 1,9,-1
 470 540 l 1,10,-1
 470 428 l 1,11,-1
 324 428 l 1,12,-1
 324 205 l 1,13,-1
 470 205 l 1,14,-1
 470 93 l 1,15,-1
 324 93 l 1,16,-1
 324 -82 l 1,17,-1
 196 -82 l 1,18,-1
 196 93 l 1,19,-1
 50 93 l 1,0,-1
EndSplineSet
Validated: 1
EndChar

StartChar: ampersand
Encoding: 38 38 93
Width: 705
GlyphClass: 2
Flags: W
LayerCount: 2
Fore
SplineSet
281 -20 m 0,0,1
 226 -20 226 -20 180.5 -5 c 128,-1,2
 135 10 135 10 101.5 37.5 c 128,-1,3
 68 65 68 65 50 102.5 c 128,-1,4
 32 140 32 140 32 185 c 0,5,6
 32 246 32 246 65 296.5 c 128,-1,7
 98 347 98 347 157 379 c 1,8,9
 118 423 118 423 101.5 460 c 128,-1,10
 85 497 85 497 85 536 c 0,11,12
 85 577 85 577 100 611.5 c 128,-1,13
 115 646 115 646 142 671.5 c 128,-1,14
 169 697 169 697 206 711 c 128,-1,15
 243 725 243 725 287 725 c 0,16,17
 330 725 330 725 366 711.5 c 128,-1,18
 402 698 402 698 428.5 674 c 128,-1,19
 455 650 455 650 469.5 618 c 128,-1,20
 484 586 484 586 484 548 c 0,21,22
 484 435 484 435 352 359 c 1,23,-1
 482 226 l 1,24,25
 500 260 500 260 511 301 c 128,-1,26
 522 342 522 342 525 390 c 1,27,-1
 649 380 l 1,28,29
 641 308 641 308 621 247 c 128,-1,30
 601 186 601 186 569 138 c 1,31,-1
 705 0 l 1,32,-1
 527 0 l 1,33,-1
 483 45 l 1,34,35
 441 13 441 13 390 -3.5 c 128,-1,36
 339 -20 339 -20 281 -20 c 0,0,1
216 539 m 0,37,38
 216 517 216 517 229 494 c 128,-1,39
 242 471 242 471 274 439 c 1,40,41
 312 458 312 458 334 485.5 c 128,-1,42
 356 513 356 513 356 543 c 0,43,44
 356 572 356 572 337 590.5 c 128,-1,45
 318 609 318 609 289 609 c 0,46,47
 268 609 268 609 251.5 600 c 128,-1,48
 235 591 235 591 225.5 575 c 128,-1,49
 216 559 216 559 216 539 c 0,37,38
173 198 m 0,50,51
 173 168 173 168 188.5 146 c 128,-1,52
 204 124 204 124 232 111.5 c 128,-1,53
 260 99 260 99 296 99 c 0,54,55
 351 99 351 99 399 131 c 1,56,-1
 234 300 l 1,57,58
 205 284 205 284 189 257 c 128,-1,59
 173 230 173 230 173 198 c 0,50,51
EndSplineSet
Validated: 1
EndChar

StartChar: asterisk
Encoding: 42 42 94
Width: 427
GlyphClass: 2
Flags: W
LayerCount: 2
Fore
SplineSet
138 316 m 1,0,-1
 52 379 l 1,1,-1
 145 488 l 1,2,-1
 8 522 l 1,3,-1
 40 622 l 1,4,-1
 170 568 l 1,5,-1
 159 710 l 1,6,-1
 268 710 l 1,7,-1
 257 568 l 1,8,-1
 387 622 l 1,9,-1
 419 522 l 1,10,-1
 282 488 l 1,11,-1
 375 379 l 1,12,-1
 289 316 l 1,13,-1
 214 439 l 1,14,-1
 138 316 l 1,0,-1
EndSplineSet
Validated: 1
EndChar

StartChar: hyphen
Encoding: 45 45 95
Width: 371
GlyphClass: 2
Flags: W
LayerCount: 2
Fore
SplineSet
44 214 m 1,0,-1
 44 336 l 1,1,-1
 327 336 l 1,2,-1
 327 214 l 1,3,-1
 44 214 l 1,0,-1
EndSplineSet
Validated: 1
Substitution2: "'case' Case-Sensitive Forms in Latin lookup 20 subtable" hyphen.aalt
Substitution2: "'aalt' Access All Alternates in Latin lookup 0 subtable" hyphen.aalt
EndChar

StartChar: endash
Encoding: 8211 8211 96
Width: 500
GlyphClass: 2
Flags: W
LayerCount: 2
Fore
SplineSet
0 223 m 1,0,-1
 0 327 l 1,1,-1
 500 327 l 1,2,-1
 500 223 l 1,3,-1
 0 223 l 1,0,-1
EndSplineSet
Validated: 1
Substitution2: "'case' Case-Sensitive Forms in Latin lookup 20 subtable" endash.aalt
Substitution2: "'aalt' Access All Alternates in Latin lookup 0 subtable" endash.aalt
EndChar

StartChar: emdash
Encoding: 8212 8212 97
Width: 1000
GlyphClass: 2
Flags: W
LayerCount: 2
Fore
SplineSet
0 223 m 1,0,-1
 0 327 l 1,1,-1
 1000 327 l 1,2,-1
 1000 223 l 1,3,-1
 0 223 l 1,0,-1
EndSplineSet
Validated: 1
Substitution2: "'case' Case-Sensitive Forms in Latin lookup 20 subtable" emdash.aalt
Substitution2: "'aalt' Access All Alternates in Latin lookup 0 subtable" emdash.aalt
EndChar

StartChar: parenleft
Encoding: 40 40 98
Width: 356
GlyphClass: 2
Flags: W
LayerCount: 2
Fore
SplineSet
342 -145 m 1,0,-1
 208 -145 l 1,1,2
 127 -40 127 -40 85.5 79 c 128,-1,3
 44 198 44 198 44 324 c 256,4,5
 44 450 44 450 85.5 569 c 128,-1,6
 127 688 127 688 208 793 c 1,7,-1
 342 793 l 1,8,9
 259 684 259 684 216 565 c 128,-1,10
 173 446 173 446 173 324 c 256,11,12
 173 202 173 202 216 83 c 128,-1,13
 259 -36 259 -36 342 -145 c 1,0,-1
EndSplineSet
Validated: 1
Substitution2: "'case' Case-Sensitive Forms in Latin lookup 20 subtable" parenleft.aalt
Substitution2: "'aalt' Access All Alternates in Latin lookup 0 subtable" parenleft.aalt
EndChar

StartChar: parenright
Encoding: 41 41 99
Width: 356
GlyphClass: 2
Flags: W
LayerCount: 2
Fore
SplineSet
14 793 m 1,0,-1
 148 793 l 1,1,2
 229 688 229 688 270.5 569 c 128,-1,3
 312 450 312 450 312 324 c 256,4,5
 312 198 312 198 270.5 79 c 128,-1,6
 229 -40 229 -40 148 -145 c 1,7,-1
 14 -145 l 1,8,9
 97 -36 97 -36 140 83 c 128,-1,10
 183 202 183 202 183 324 c 256,11,12
 183 446 183 446 140 565 c 128,-1,13
 97 684 97 684 14 793 c 1,0,-1
EndSplineSet
Validated: 1
Substitution2: "'case' Case-Sensitive Forms in Latin lookup 20 subtable" parenright.aalt
Substitution2: "'aalt' Access All Alternates in Latin lookup 0 subtable" parenright.aalt
EndChar

StartChar: slash
Encoding: 47 47 100
Width: 475
GlyphClass: 2
Flags: W
LayerCount: 2
Fore
SplineSet
8 -115 m 1,0,-1
 339 763 l 1,1,-1
 467 763 l 1,2,-1
 136 -115 l 1,3,-1
 8 -115 l 1,0,-1
EndSplineSet
Validated: 1
Substitution2: "'case' Case-Sensitive Forms in Latin lookup 20 subtable" slash.case
Substitution2: "Single Substitution lookup 18 subtable" fraction
Substitution2: "Single Substitution lookup 17 subtable" fraction
Substitution2: "Single Substitution lookup 16 subtable" fraction
AlternateSubs2: "'aalt' Access All Alternates in Latin lookup 1 subtable" fraction slash.case
EndChar

StartChar: backslash
Encoding: 92 92 101
Width: 475
GlyphClass: 2
Flags: W
LayerCount: 2
Fore
SplineSet
339 -115 m 1,0,-1
 8 763 l 1,1,-1
 136 763 l 1,2,-1
 467 -115 l 1,3,-1
 339 -115 l 1,0,-1
EndSplineSet
Validated: 1
Substitution2: "'case' Case-Sensitive Forms in Latin lookup 20 subtable" backslash.aalt
Substitution2: "'aalt' Access All Alternates in Latin lookup 0 subtable" backslash.aalt
EndChar

StartChar: bracketleft
Encoding: 91 91 102
Width: 370
GlyphClass: 2
Flags: W
LayerCount: 2
Fore
SplineSet
75 -145 m 1,0,-1
 75 793 l 1,1,-1
 330 793 l 1,2,-1
 330 685 l 1,3,-1
 199 685 l 1,4,-1
 199 -37 l 1,5,-1
 330 -37 l 1,6,-1
 330 -145 l 1,7,-1
 75 -145 l 1,0,-1
EndSplineSet
Validated: 1
Substitution2: "'case' Case-Sensitive Forms in Latin lookup 20 subtable" bracketleft.aalt
Substitution2: "'aalt' Access All Alternates in Latin lookup 0 subtable" bracketleft.aalt
EndChar

StartChar: bracketright
Encoding: 93 93 103
Width: 370
GlyphClass: 2
Flags: W
LayerCount: 2
Fore
SplineSet
40 -145 m 1,0,-1
 40 -37 l 1,1,-1
 171 -37 l 1,2,-1
 171 685 l 1,3,-1
 40 685 l 1,4,-1
 40 793 l 1,5,-1
 295 793 l 1,6,-1
 295 -145 l 1,7,-1
 40 -145 l 1,0,-1
EndSplineSet
Validated: 1
Substitution2: "'case' Case-Sensitive Forms in Latin lookup 20 subtable" bracketright.aalt
Substitution2: "'aalt' Access All Alternates in Latin lookup 0 subtable" bracketright.aalt
EndChar

StartChar: braceleft
Encoding: 123 123 104
Width: 383
GlyphClass: 2
Flags: W
LayerCount: 2
Fore
SplineSet
343 793 m 1,0,-1
 343 685 l 1,1,-1
 311 685 l 2,2,3
 268 685 268 685 246 662.5 c 128,-1,4
 224 640 224 640 224 594 c 0,5,6
 224 570 224 570 228 543.5 c 128,-1,7
 232 517 232 517 235.5 491 c 128,-1,8
 239 465 239 465 239 444 c 0,9,10
 239 416 239 416 229.5 391 c 128,-1,11
 220 366 220 366 204.5 348.5 c 128,-1,12
 189 331 189 331 170 324 c 1,13,14
 189 317 189 317 204.5 299.5 c 128,-1,15
 220 282 220 282 229.5 257 c 128,-1,16
 239 232 239 232 239 204 c 0,17,18
 239 183 239 183 235.5 157 c 128,-1,19
 232 131 232 131 228 104.5 c 128,-1,20
 224 78 224 78 224 54 c 0,21,22
 224 8 224 8 246 -14.5 c 128,-1,23
 268 -37 268 -37 311 -37 c 2,24,-1
 343 -37 l 1,25,-1
 343 -145 l 1,26,-1
 301 -145 l 2,27,28
 200 -145 200 -145 148.5 -96.5 c 128,-1,29
 97 -48 97 -48 97 37 c 0,30,31
 97 68 97 68 100.5 100 c 128,-1,32
 104 132 104 132 108 159.5 c 128,-1,33
 112 187 112 187 112 206 c 0,34,35
 112 238 112 238 95 255.5 c 128,-1,36
 78 273 78 273 45 273 c 2,37,-1
 30 273 l 1,38,-1
 30 375 l 1,39,-1
 45 375 l 2,40,41
 78 375 78 375 95 392.5 c 128,-1,42
 112 410 112 410 112 442 c 0,43,44
 112 461 112 461 108 488.5 c 128,-1,45
 104 516 104 516 100.5 548 c 128,-1,46
 97 580 97 580 97 611 c 0,47,48
 97 696 97 696 148.5 744.5 c 128,-1,49
 200 793 200 793 301 793 c 2,50,-1
 343 793 l 1,0,-1
EndSplineSet
Validated: 1
Substitution2: "'case' Case-Sensitive Forms in Latin lookup 20 subtable" braceleft.aalt
Substitution2: "'aalt' Access All Alternates in Latin lookup 0 subtable" braceleft.aalt
EndChar

StartChar: braceright
Encoding: 125 125 105
Width: 383
GlyphClass: 2
Flags: W
LayerCount: 2
Fore
SplineSet
40 -145 m 1,0,-1
 40 -37 l 1,1,-1
 72 -37 l 2,2,3
 116 -37 116 -37 137.5 -14.5 c 128,-1,4
 159 8 159 8 159 54 c 0,5,6
 159 78 159 78 155.5 104.5 c 128,-1,7
 152 131 152 131 148 157 c 128,-1,8
 144 183 144 183 144 204 c 0,9,10
 144 232 144 232 153.5 257 c 128,-1,11
 163 282 163 282 178.5 299.5 c 128,-1,12
 194 317 194 317 213 324 c 1,13,14
 194 331 194 331 178.5 348.5 c 128,-1,15
 163 366 163 366 153.5 391 c 128,-1,16
 144 416 144 416 144 444 c 0,17,18
 144 465 144 465 148 491 c 128,-1,19
 152 517 152 517 155.5 543.5 c 128,-1,20
 159 570 159 570 159 594 c 0,21,22
 159 640 159 640 137.5 662.5 c 128,-1,23
 116 685 116 685 72 685 c 2,24,-1
 40 685 l 1,25,-1
 40 793 l 1,26,-1
 82 793 l 2,27,28
 182 793 182 793 234 744.5 c 128,-1,29
 286 696 286 696 286 611 c 0,30,31
 286 580 286 580 282 548 c 128,-1,32
 278 516 278 516 274.5 488.5 c 128,-1,33
 271 461 271 461 271 442 c 0,34,35
 271 410 271 410 288 392.5 c 128,-1,36
 305 375 305 375 338 375 c 2,37,-1
 353 375 l 1,38,-1
 353 273 l 1,39,-1
 338 273 l 2,40,41
 305 273 305 273 288 255.5 c 128,-1,42
 271 238 271 238 271 206 c 0,43,44
 271 187 271 187 274.5 159.5 c 128,-1,45
 278 132 278 132 282 100 c 128,-1,46
 286 68 286 68 286 37 c 0,47,48
 286 -48 286 -48 234 -96.5 c 128,-1,49
 182 -145 182 -145 82 -145 c 2,50,-1
 40 -145 l 1,0,-1
EndSplineSet
Validated: 1
Substitution2: "'case' Case-Sensitive Forms in Latin lookup 20 subtable" braceright.aalt
Substitution2: "'aalt' Access All Alternates in Latin lookup 0 subtable" braceright.aalt
EndChar

StartChar: bullet
Encoding: 8226 8226 106
Width: 314
GlyphClass: 2
Flags: W
LayerCount: 2
Fore
SplineSet
157 161 m 256,0,1
 125 161 125 161 99 176.5 c 128,-1,2
 73 192 73 192 57.5 218 c 128,-1,3
 42 244 42 244 42 276 c 256,4,5
 42 308 42 308 57.5 334 c 128,-1,6
 73 360 73 360 99 375.5 c 128,-1,7
 125 391 125 391 157 391 c 256,8,9
 189 391 189 391 215 375.5 c 128,-1,10
 241 360 241 360 256.5 334 c 128,-1,11
 272 308 272 308 272 276 c 256,12,13
 272 244 272 244 256.5 218 c 128,-1,14
 241 192 241 192 215 176.5 c 128,-1,15
 189 161 189 161 157 161 c 256,0,1
EndSplineSet
Validated: 1
Substitution2: "'case' Case-Sensitive Forms in Latin lookup 20 subtable" bullet.aalt
Substitution2: "'aalt' Access All Alternates in Latin lookup 0 subtable" bullet.aalt
EndChar

StartChar: guilsinglleft
Encoding: 8249 8249 107
Width: 311
GlyphClass: 2
Flags: W
LayerCount: 2
Fore
SplineSet
154 93 m 1,0,-1
 20 285 l 1,1,-1
 154 477 l 1,2,-1
 276 477 l 1,3,-1
 146 285 l 1,4,-1
 276 93 l 1,5,-1
 154 93 l 1,0,-1
EndSplineSet
Validated: 1
Substitution2: "'case' Case-Sensitive Forms in Latin lookup 20 subtable" guilsinglleft.aalt
Substitution2: "'aalt' Access All Alternates in Latin lookup 0 subtable" guilsinglleft.aalt
EndChar

StartChar: guilsinglright
Encoding: 8250 8250 108
Width: 311
GlyphClass: 2
Flags: W
LayerCount: 2
Fore
SplineSet
35 93 m 1,0,-1
 165 285 l 1,1,-1
 35 477 l 1,2,-1
 157 477 l 1,3,-1
 291 285 l 1,4,-1
 157 93 l 1,5,-1
 35 93 l 1,0,-1
EndSplineSet
Validated: 1
Substitution2: "'case' Case-Sensitive Forms in Latin lookup 20 subtable" guilsinglright.aalt
Substitution2: "'aalt' Access All Alternates in Latin lookup 0 subtable" guilsinglright.aalt
EndChar

StartChar: at
Encoding: 64 64 111
Width: 1015
GlyphClass: 2
Flags: W
LayerCount: 2
Fore
SplineSet
482 30 m 0,0,1
 438 30 438 30 400.5 47.5 c 128,-1,2
 363 65 363 65 334.5 96 c 128,-1,3
 306 127 306 127 290.5 168.5 c 128,-1,4
 275 210 275 210 275 259 c 0,5,6
 275 307 275 307 290.5 349 c 128,-1,7
 306 391 306 391 334 422.5 c 128,-1,8
 362 454 362 454 399.5 472 c 128,-1,9
 437 490 437 490 480 490 c 0,10,11
 522 490 522 490 556 472 c 128,-1,12
 590 454 590 454 612 421 c 1,13,-1
 615 479 l 1,14,-1
 732 479 l 1,15,-1
 732 192 l 2,16,17
 732 165 732 165 744.5 149 c 128,-1,18
 757 133 757 133 778 133 c 0,19,20
 801 133 801 133 819 153 c 128,-1,21
 837 173 837 173 847 208.5 c 128,-1,22
 857 244 857 244 857 289 c 0,23,24
 857 359 857 359 832.5 417 c 128,-1,25
 808 475 808 475 763 518 c 128,-1,26
 718 561 718 561 657 584.5 c 128,-1,27
 596 608 596 608 523 608 c 0,28,29
 461 608 461 608 406.5 591 c 128,-1,30
 352 574 352 574 307 542 c 128,-1,31
 262 510 262 510 229.5 466.5 c 128,-1,32
 197 423 197 423 179.5 369.5 c 128,-1,33
 162 316 162 316 162 256 c 0,34,35
 162 197 162 197 179 144 c 128,-1,36
 196 91 196 91 228 48 c 128,-1,37
 260 5 260 5 303.5 -26.5 c 128,-1,38
 347 -58 347 -58 400 -75 c 128,-1,39
 453 -92 453 -92 513 -92 c 0,40,41
 566 -92 566 -92 619.5 -78.5 c 128,-1,42
 673 -65 673 -65 719 -40 c 1,43,-1
 764 -135 l 1,44,45
 710 -166 710 -166 646.5 -182.5 c 128,-1,46
 583 -199 583 -199 512 -199 c 0,47,48
 432 -199 432 -199 361 -177 c 128,-1,49
 290 -155 290 -155 231.5 -114 c 128,-1,50
 173 -73 173 -73 130.5 -17 c 128,-1,51
 88 39 88 39 65 108 c 128,-1,52
 42 177 42 177 42 254 c 0,53,54
 42 333 42 333 65.5 402.5 c 128,-1,55
 89 472 89 472 132 529.5 c 128,-1,56
 175 587 175 587 234.5 628.5 c 128,-1,57
 294 670 294 670 366.5 692.5 c 128,-1,58
 439 715 439 715 520 715 c 0,59,60
 598 715 598 715 667 694.5 c 128,-1,61
 736 674 736 674 792 635.5 c 128,-1,62
 848 597 848 597 888.5 544 c 128,-1,63
 929 491 929 491 951 426.5 c 128,-1,64
 973 362 973 362 973 289 c 0,65,66
 973 210 973 210 948 152.5 c 128,-1,67
 923 95 923 95 877 63 c 128,-1,68
 831 31 831 31 769 31 c 0,69,70
 717 31 717 31 681 53 c 128,-1,71
 645 75 645 75 628 116 c 1,72,73
 606 75 606 75 568 52.5 c 128,-1,74
 530 30 530 30 482 30 c 0,0,1
504 146 m 0,75,76
 534 146 534 146 557 161 c 128,-1,77
 580 176 580 176 593.5 202 c 128,-1,78
 607 228 607 228 607 261 c 256,79,80
 607 294 607 294 593.5 320.5 c 128,-1,81
 580 347 580 347 557 362 c 128,-1,82
 534 377 534 377 504 377 c 0,83,84
 475 377 475 377 452 361.5 c 128,-1,85
 429 346 429 346 415.5 320 c 128,-1,86
 402 294 402 294 402 261 c 256,87,88
 402 228 402 228 415.5 202 c 128,-1,89
 429 176 429 176 452 161 c 128,-1,90
 475 146 475 146 504 146 c 0,75,76
EndSplineSet
Validated: 1
Substitution2: "'case' Case-Sensitive Forms in Latin lookup 20 subtable" at.aalt
Substitution2: "'aalt' Access All Alternates in Latin lookup 0 subtable" at.aalt
EndChar

StartChar: A
Encoding: 65 65 133
Width: 755
GlyphClass: 2
Flags: W
AnchorPoint: "Anchor-7" 377 760 basechar 0
AnchorPoint: "Anchor-4" 739 -50 basechar 0
LayerCount: 2
Fore
SplineSet
16 0 m 1,0,-1
 298 710 l 1,1,-1
 456 710 l 1,2,-1
 739 0 l 1,3,-1
 586 0 l 1,4,-1
 528 156 l 1,5,-1
 221 156 l 1,6,-1
 163 0 l 1,7,-1
 16 0 l 1,0,-1
268 282 m 1,8,-1
 481 282 l 1,9,-1
 374 565 l 1,10,-1
 268 282 l 1,8,-1
EndSplineSet
Validated: 1
Substitution2: "'ordn' Ordinals in Latin lookup 25 subtable" ordfeminine
Substitution2: "'aalt' Access All Alternates in Latin lookup 0 subtable" ordfeminine
Position2: "'case' Case-Sensitive Forms in Latin lookup 0 subtable" dx=10 dy=0 dh=20 dv=0
EndChar

StartChar: B
Encoding: 66 66 134
Width: 620
GlyphClass: 2
Flags: W
LayerCount: 2
Fore
SplineSet
65 0 m 1,0,-1
 65 710 l 1,1,-1
 323 710 l 2,2,3
 395 710 395 710 447.5 687.5 c 128,-1,4
 500 665 500 665 528.5 623.5 c 128,-1,5
 557 582 557 582 557 526 c 0,6,7
 557 475 557 475 535 436.5 c 128,-1,8
 513 398 513 398 473 376 c 1,9,10
 527 355 527 355 557 309.5 c 128,-1,11
 587 264 587 264 587 202 c 256,12,13
 587 140 587 140 555 95 c 128,-1,14
 523 50 523 50 465 25 c 128,-1,15
 407 0 407 0 328 0 c 2,16,-1
 65 0 l 1,0,-1
209 587 m 1,17,-1
 209 424 l 1,18,-1
 307 424 l 2,19,20
 356 424 356 424 382.5 444.5 c 128,-1,21
 409 465 409 465 409 505 c 256,22,23
 409 545 409 545 382.5 566 c 128,-1,24
 356 587 356 587 307 587 c 2,25,-1
 209 587 l 1,17,-1
209 123 m 1,26,-1
 321 123 l 2,27,28
 377 123 377 123 407.5 147 c 128,-1,29
 438 171 438 171 438 216 c 256,30,31
 438 261 438 261 407.5 285 c 128,-1,32
 377 309 377 309 321 309 c 2,33,-1
 209 309 l 1,34,-1
 209 123 l 1,26,-1
EndSplineSet
Validated: 1
Position2: "'case' Case-Sensitive Forms in Latin lookup 0 subtable" dx=10 dy=0 dh=20 dv=0
EndChar

StartChar: C
Encoding: 67 67 135
Width: 741
GlyphClass: 2
Flags: W
AnchorPoint: "Anchor-7" 395 760 basechar 0
AnchorPoint: "Anchor-1" 396 -50 basechar 0
LayerCount: 2
Fore
SplineSet
396 -20 m 0,0,1
 335 -20 335 -20 281 -2 c 128,-1,2
 227 16 227 16 183 49 c 128,-1,3
 139 82 139 82 107.5 127.5 c 128,-1,4
 76 173 76 173 59 229.5 c 128,-1,5
 42 286 42 286 42 350 c 256,6,7
 42 414 42 414 59.5 471.5 c 128,-1,8
 77 529 77 529 109 576.5 c 128,-1,9
 141 624 141 624 185 658.5 c 128,-1,10
 229 693 229 693 282.5 711.5 c 128,-1,11
 336 730 336 730 396 730 c 0,12,13
 451 730 451 730 500 715 c 128,-1,14
 549 700 549 700 589 672 c 128,-1,15
 629 644 629 644 658.5 605 c 128,-1,16
 688 566 688 566 703 517 c 1,17,-1
 559 481 l 1,18,19
 535 534 535 534 492 563.5 c 128,-1,20
 449 593 449 593 394 593 c 0,21,22
 352 593 352 593 315.5 575 c 128,-1,23
 279 557 279 557 252.5 524.5 c 128,-1,24
 226 492 226 492 211 448 c 128,-1,25
 196 404 196 404 196 352 c 256,26,27
 196 300 196 300 210.5 257 c 128,-1,28
 225 214 225 214 252 182.5 c 128,-1,29
 279 151 279 151 315.5 134 c 128,-1,30
 352 117 352 117 396 117 c 0,31,32
 453 117 453 117 496.5 145.5 c 128,-1,33
 540 174 540 174 566 229 c 1,34,-1
 710 193 l 1,35,36
 689 128 689 128 643.5 80 c 128,-1,37
 598 32 598 32 535 6 c 128,-1,38
 472 -20 472 -20 396 -20 c 0,0,1
EndSplineSet
Validated: 1
Position2: "'case' Case-Sensitive Forms in Latin lookup 0 subtable" dx=10 dy=0 dh=20 dv=0
EndChar

StartChar: D
Encoding: 68 68 136
Width: 759
GlyphClass: 2
Flags: W
AnchorPoint: "Anchor-7" 353 760 basechar 0
LayerCount: 2
Fore
SplineSet
65 0 m 1,0,-1
 65 710 l 1,1,-1
 341 710 l 2,2,3
 425 710 425 710 494 684.5 c 128,-1,4
 563 659 563 659 613 612 c 128,-1,5
 663 565 663 565 690 500 c 128,-1,6
 717 435 717 435 717 356 c 256,7,8
 717 277 717 277 689.5 211.5 c 128,-1,9
 662 146 662 146 612 98.5 c 128,-1,10
 562 51 562 51 492.5 25.5 c 128,-1,11
 423 0 423 0 339 0 c 2,12,-1
 65 0 l 1,0,-1
214 132 m 1,13,-1
 332 132 l 2,14,15
 403 132 403 132 455 159 c 128,-1,16
 507 186 507 186 535 236 c 128,-1,17
 563 286 563 286 563 355 c 256,18,19
 563 424 563 424 535 474 c 128,-1,20
 507 524 507 524 455 551 c 128,-1,21
 403 578 403 578 332 578 c 2,22,-1
 214 578 l 1,23,-1
 214 132 l 1,13,-1
EndSplineSet
Validated: 1
Position2: "'case' Case-Sensitive Forms in Latin lookup 0 subtable" dx=10 dy=0 dh=20 dv=0
EndChar

StartChar: E
Encoding: 69 69 137
Width: 574
GlyphClass: 2
Flags: W
AnchorPoint: "Anchor-7" 287 760 basechar 0
AnchorPoint: "Anchor-4" 521 -50 basechar 0
LayerCount: 2
Fore
SplineSet
65 0 m 1,0,-1
 65 710 l 1,1,-1
 510 710 l 1,2,-1
 510 583 l 1,3,-1
 209 583 l 1,4,-1
 209 428 l 1,5,-1
 478 428 l 1,6,-1
 478 301 l 1,7,-1
 209 301 l 1,8,-1
 209 127 l 1,9,-1
 520 127 l 1,10,-1
 520 0 l 1,11,-1
 65 0 l 1,0,-1
EndSplineSet
Validated: 1
Position2: "'case' Case-Sensitive Forms in Latin lookup 0 subtable" dx=10 dy=0 dh=20 dv=0
EndChar

StartChar: F
Encoding: 70 70 138
Width: 543
GlyphClass: 2
Flags: W
LayerCount: 2
Fore
SplineSet
65 0 m 1,0,-1
 65 710 l 1,1,-1
 500 710 l 1,2,-1
 500 580 l 1,3,-1
 210 580 l 1,4,-1
 210 405 l 1,5,-1
 468 405 l 1,6,-1
 468 276 l 1,7,-1
 210 276 l 1,8,-1
 210 0 l 1,9,-1
 65 0 l 1,0,-1
EndSplineSet
Validated: 1
Position2: "'case' Case-Sensitive Forms in Latin lookup 0 subtable" dx=10 dy=0 dh=20 dv=0
EndChar

StartChar: G
Encoding: 71 71 139
Width: 794
GlyphClass: 2
Flags: W
AnchorPoint: "Anchor-7" 416 760 basechar 0
AnchorPoint: "Anchor-1" 414 -50 basechar 0
LayerCount: 2
Fore
SplineSet
408 -20 m 0,0,1
 345 -20 345 -20 289.5 -2 c 128,-1,2
 234 16 234 16 188.5 49.5 c 128,-1,3
 143 83 143 83 110.5 129 c 128,-1,4
 78 175 78 175 60 231.5 c 128,-1,5
 42 288 42 288 42 353 c 256,6,7
 42 418 42 418 60 475 c 128,-1,8
 78 532 78 532 111 579 c 128,-1,9
 144 626 144 626 190 659.5 c 128,-1,10
 236 693 236 693 291.5 711.5 c 128,-1,11
 347 730 347 730 410 730 c 0,12,13
 481 730 481 730 542 707 c 128,-1,14
 603 684 603 684 649.5 641 c 128,-1,15
 696 598 696 598 722 537 c 1,16,-1
 578 493 l 1,17,18
 551 541 551 541 508.5 567 c 128,-1,19
 466 593 466 593 410 593 c 0,20,21
 364 593 364 593 325 575.5 c 128,-1,22
 286 558 286 558 257 525.5 c 128,-1,23
 228 493 228 493 212 450 c 128,-1,24
 196 407 196 407 196 356 c 0,25,26
 196 304 196 304 212 260 c 128,-1,27
 228 216 228 216 257.5 184 c 128,-1,28
 287 152 287 152 327 134.5 c 128,-1,29
 367 117 367 117 415 117 c 0,30,31
 466 117 466 117 506 136 c 128,-1,32
 546 155 546 155 571 189 c 128,-1,33
 596 223 596 223 602 269 c 1,34,-1
 425 269 l 1,35,-1
 425 392 l 1,36,-1
 755 392 l 1,37,-1
 755 317 l 2,38,39
 755 243 755 243 729.5 181 c 128,-1,40
 704 119 704 119 658 74 c 128,-1,41
 612 29 612 29 548 4.5 c 128,-1,42
 484 -20 484 -20 408 -20 c 0,0,1
EndSplineSet
Validated: 1
Position2: "'case' Case-Sensitive Forms in Latin lookup 0 subtable" dx=10 dy=0 dh=20 dv=0
EndChar

StartChar: H
Encoding: 72 72 140
Width: 742
GlyphClass: 2
Flags: W
AnchorPoint: "Anchor-1" 371 -50 basechar 0
LayerCount: 2
Fore
SplineSet
65 0 m 1,0,-1
 65 710 l 1,1,-1
 214 710 l 1,2,-1
 214 433 l 1,3,-1
 528 433 l 1,4,-1
 528 710 l 1,5,-1
 677 710 l 1,6,-1
 677 0 l 1,7,-1
 528 0 l 1,8,-1
 528 301 l 1,9,-1
 214 301 l 1,10,-1
 214 0 l 1,11,-1
 65 0 l 1,0,-1
EndSplineSet
Validated: 1
Position2: "'case' Case-Sensitive Forms in Latin lookup 0 subtable" dx=10 dy=0 dh=20 dv=0
EndChar

StartChar: I
Encoding: 73 73 141
Width: 279
GlyphClass: 2
Flags: W
AnchorPoint: "Anchor-7" 139 760 basechar 0
AnchorPoint: "Anchor-4" 214 -50 basechar 0
LayerCount: 2
Fore
SplineSet
65 0 m 1,0,-1
 65 710 l 1,1,-1
 214 710 l 1,2,-1
 214 0 l 1,3,-1
 65 0 l 1,0,-1
EndSplineSet
Validated: 1
Position2: "'case' Case-Sensitive Forms in Latin lookup 0 subtable" dx=10 dy=0 dh=20 dv=0
EndChar

StartChar: J
Encoding: 74 74 142
Width: 554
GlyphClass: 2
Flags: W
LayerCount: 2
Fore
SplineSet
256 -15 m 0,0,1
 195 -15 195 -15 146 8 c 128,-1,2
 97 31 97 31 62.5 74.5 c 128,-1,3
 28 118 28 118 12 179 c 1,4,-1
 160 205 l 1,5,6
 174 164 174 164 197.5 141.5 c 128,-1,7
 221 119 221 119 255 119 c 0,8,9
 297 119 297 119 322 149.5 c 128,-1,10
 347 180 347 180 347 232 c 2,11,-1
 347 710 l 1,12,-1
 496 710 l 1,13,-1
 496 237 l 2,14,15
 496 181 496 181 478.5 134.5 c 128,-1,16
 461 88 461 88 429.5 54.5 c 128,-1,17
 398 21 398 21 354 3 c 128,-1,18
 310 -15 310 -15 256 -15 c 0,0,1
EndSplineSet
Validated: 1
Position2: "'case' Case-Sensitive Forms in Latin lookup 0 subtable" dx=10 dy=0 dh=20 dv=0
EndChar

StartChar: K
Encoding: 75 75 143
Width: 696
GlyphClass: 2
Flags: W
AnchorPoint: "Anchor-1" 346 -50 basechar 0
LayerCount: 2
Fore
SplineSet
65 0 m 1,0,-1
 65 710 l 1,1,-1
 214 710 l 1,2,-1
 214 395 l 1,3,-1
 477 710 l 1,4,-1
 651 710 l 1,5,-1
 367 379 l 1,6,-1
 687 0 l 1,7,-1
 494 0 l 1,8,-1
 214 344 l 1,9,-1
 214 0 l 1,10,-1
 65 0 l 1,0,-1
EndSplineSet
Validated: 1
Position2: "'case' Case-Sensitive Forms in Latin lookup 0 subtable" dx=10 dy=0 dh=20 dv=0
EndChar

StartChar: L
Encoding: 76 76 144
Width: 544
GlyphClass: 2
Flags: W
AnchorPoint: "Anchor-8" 214 790 basechar 0
AnchorPoint: "Anchor-7" 139 760 basechar 0
AnchorPoint: "Anchor-1" 284 -50 basechar 0
LayerCount: 2
Fore
SplineSet
65 0 m 1,0,-1
 65 710 l 1,1,-1
 214 710 l 1,2,-1
 214 132 l 1,3,-1
 504 132 l 1,4,-1
 504 0 l 1,5,-1
 65 0 l 1,0,-1
EndSplineSet
Validated: 1
Position2: "'case' Case-Sensitive Forms in Latin lookup 0 subtable" dx=10 dy=0 dh=20 dv=0
EndChar

StartChar: M
Encoding: 77 77 145
Width: 854
GlyphClass: 2
Flags: W
LayerCount: 2
Fore
SplineSet
65 0 m 1,0,-1
 65 710 l 1,1,-1
 205 710 l 1,2,-1
 429 300 l 1,3,-1
 654 710 l 1,4,-1
 789 710 l 1,5,-1
 789 0 l 1,6,-1
 645 0 l 1,7,-1
 645 449 l 1,8,-1
 480 148 l 1,9,-1
 374 148 l 1,10,-1
 209 449 l 1,11,-1
 209 0 l 1,12,-1
 65 0 l 1,0,-1
EndSplineSet
Validated: 1
Position2: "'case' Case-Sensitive Forms in Latin lookup 0 subtable" dx=10 dy=0 dh=20 dv=0
EndChar

StartChar: N
Encoding: 78 78 146
Width: 732
GlyphClass: 2
Flags: W
AnchorPoint: "Anchor-7" 366 760 basechar 0
AnchorPoint: "Anchor-1" 366 -50 basechar 0
LayerCount: 2
Fore
SplineSet
65 0 m 1,0,-1
 65 710 l 1,1,-1
 194 710 l 1,2,-1
 523 240 l 1,3,-1
 523 710 l 1,4,-1
 667 710 l 1,5,-1
 667 0 l 1,6,-1
 538 0 l 1,7,-1
 209 470 l 1,8,-1
 209 0 l 1,9,-1
 65 0 l 1,0,-1
EndSplineSet
Validated: 1
Position2: "'case' Case-Sensitive Forms in Latin lookup 0 subtable" dx=10 dy=0 dh=20 dv=0
EndChar

StartChar: O
Encoding: 79 79 147
Width: 820
GlyphClass: 2
Flags: W
AnchorPoint: "Anchor-7" 410 760 basechar 0
LayerCount: 2
Fore
SplineSet
409 -20 m 0,0,1
 346 -20 346 -20 290 -2 c 128,-1,2
 234 16 234 16 188.5 49.5 c 128,-1,3
 143 83 143 83 110.5 129.5 c 128,-1,4
 78 176 78 176 60 233 c 128,-1,5
 42 290 42 290 42 354 c 256,6,7
 42 418 42 418 60 475.5 c 128,-1,8
 78 533 78 533 111 579.5 c 128,-1,9
 144 626 144 626 189.5 659.5 c 128,-1,10
 235 693 235 693 291 711.5 c 128,-1,11
 347 730 347 730 411 730 c 0,12,13
 474 730 474 730 530 712 c 128,-1,14
 586 694 586 694 631.5 660.5 c 128,-1,15
 677 627 677 627 709.5 580.5 c 128,-1,16
 742 534 742 534 760 477 c 128,-1,17
 778 420 778 420 778 356 c 256,18,19
 778 292 778 292 760 234.5 c 128,-1,20
 742 177 742 177 709 130.5 c 128,-1,21
 676 84 676 84 630.5 50.5 c 128,-1,22
 585 17 585 17 529 -1.5 c 128,-1,23
 473 -20 473 -20 409 -20 c 0,0,1
410 117 m 256,24,25
 456 117 456 117 495.5 134.5 c 128,-1,26
 535 152 535 152 563.5 184 c 128,-1,27
 592 216 592 216 608 259.5 c 128,-1,28
 624 303 624 303 624 355 c 256,29,30
 624 407 624 407 608 450.5 c 128,-1,31
 592 494 592 494 563.5 526 c 128,-1,32
 535 558 535 558 495.5 575.5 c 128,-1,33
 456 593 456 593 410 593 c 256,34,35
 364 593 364 593 324.5 575.5 c 128,-1,36
 285 558 285 558 256.5 526 c 128,-1,37
 228 494 228 494 212 450.5 c 128,-1,38
 196 407 196 407 196 355 c 256,39,40
 196 303 196 303 212 259.5 c 128,-1,41
 228 216 228 216 256.5 184 c 128,-1,42
 285 152 285 152 324.5 134.5 c 128,-1,43
 364 117 364 117 410 117 c 256,24,25
EndSplineSet
Validated: 1
Substitution2: "'ordn' Ordinals in Latin lookup 25 subtable" ordmasculine
Substitution2: "'aalt' Access All Alternates in Latin lookup 0 subtable" ordmasculine
Position2: "'case' Case-Sensitive Forms in Latin lookup 0 subtable" dx=10 dy=0 dh=20 dv=0
EndChar

StartChar: P
Encoding: 80 80 148
Width: 599
GlyphClass: 2
Flags: W
LayerCount: 2
Fore
SplineSet
65 0 m 1,0,-1
 65 710 l 1,1,-1
 293 710 l 2,2,3
 380 710 380 710 442.5 681.5 c 128,-1,4
 505 653 505 653 538.5 599.5 c 128,-1,5
 572 546 572 546 572 470 c 0,6,7
 572 416 572 416 552 372.5 c 128,-1,8
 532 329 532 329 495 297.5 c 128,-1,9
 458 266 458 266 406.5 249 c 128,-1,10
 355 232 355 232 292 232 c 0,11,12
 255 232 255 232 212 239 c 1,13,-1
 212 0 l 1,14,-1
 65 0 l 1,0,-1
212 584 m 1,15,-1
 212 364 l 1,16,17
 252 358 252 358 286 358 c 0,18,19
 350 358 350 358 385.5 387 c 128,-1,20
 421 416 421 416 421 471 c 0,21,22
 421 525 421 525 387 554.5 c 128,-1,23
 353 584 353 584 290 584 c 2,24,-1
 212 584 l 1,15,-1
EndSplineSet
Validated: 1
Position2: "'case' Case-Sensitive Forms in Latin lookup 0 subtable" dx=10 dy=0 dh=20 dv=0
EndChar

StartChar: Q
Encoding: 81 81 149
Width: 820
GlyphClass: 2
Flags: W
LayerCount: 2
Fore
SplineSet
406 -20 m 0,0,1
 344 -20 344 -20 289 -2 c 128,-1,2
 234 16 234 16 188.5 49.5 c 128,-1,3
 143 83 143 83 110.5 129.5 c 128,-1,4
 78 176 78 176 60 233 c 128,-1,5
 42 290 42 290 42 354 c 256,6,7
 42 418 42 418 60 475.5 c 128,-1,8
 78 533 78 533 111 579.5 c 128,-1,9
 144 626 144 626 189.5 659.5 c 128,-1,10
 235 693 235 693 291 711.5 c 128,-1,11
 347 730 347 730 411 730 c 0,12,13
 474 730 474 730 530 712 c 128,-1,14
 586 694 586 694 631.5 660.5 c 128,-1,15
 677 627 677 627 709.5 580.5 c 128,-1,16
 742 534 742 534 760 477 c 128,-1,17
 778 420 778 420 778 356 c 0,18,19
 778 279 778 279 751.5 211.5 c 128,-1,20
 725 144 725 144 677 94 c 1,21,-1
 758 -6 l 1,22,-1
 658 -86 l 1,23,-1
 574 18 l 1,24,25
 536 0 536 0 494 -10 c 128,-1,26
 452 -20 452 -20 406 -20 c 0,0,1
413 117 m 0,27,28
 451 117 451 117 485 129 c 1,29,-1
 371 271 l 1,30,-1
 469 350 l 1,31,-1
 584 208 l 1,32,33
 603 237 603 237 613.5 274.5 c 128,-1,34
 624 312 624 312 624 355 c 0,35,36
 624 407 624 407 608 450.5 c 128,-1,37
 592 494 592 494 563.5 526 c 128,-1,38
 535 558 535 558 495.5 575.5 c 128,-1,39
 456 593 456 593 410 593 c 256,40,41
 364 593 364 593 324.5 575.5 c 128,-1,42
 285 558 285 558 256.5 526 c 128,-1,43
 228 494 228 494 212 450.5 c 128,-1,44
 196 407 196 407 196 355 c 256,45,46
 196 303 196 303 212 259.5 c 128,-1,47
 228 216 228 216 256.5 184 c 128,-1,48
 285 152 285 152 325 134.5 c 128,-1,49
 365 117 365 117 413 117 c 0,27,28
EndSplineSet
Validated: 1
Position2: "'case' Case-Sensitive Forms in Latin lookup 0 subtable" dx=10 dy=0 dh=20 dv=0
EndChar

StartChar: R
Encoding: 82 82 150
Width: 631
GlyphClass: 2
Flags: W
AnchorPoint: "Anchor-7" 288 760 basechar 0
LayerCount: 2
Fore
SplineSet
65 0 m 1,0,-1
 65 710 l 1,1,-1
 293 710 l 2,2,3
 380 710 380 710 443.5 682.5 c 128,-1,4
 507 655 507 655 541 603.5 c 128,-1,5
 575 552 575 552 575 482 c 0,6,7
 575 441 575 441 560 403.5 c 128,-1,8
 545 366 545 366 518 335.5 c 128,-1,9
 491 305 491 305 453 285 c 1,10,-1
 614 0 l 1,11,-1
 450 0 l 1,12,-1
 323 246 l 1,13,14
 304 245 304 245 282 245 c 0,15,16
 250 245 250 245 212 251 c 1,17,-1
 212 0 l 1,18,-1
 65 0 l 1,0,-1
212 584 m 1,19,-1
 212 375 l 1,20,21
 231 372 231 372 250 370.5 c 128,-1,22
 269 369 269 369 290 369 c 0,23,24
 354 369 354 369 389 397.5 c 128,-1,25
 424 426 424 426 424 477 c 256,26,27
 424 528 424 528 389 556 c 128,-1,28
 354 584 354 584 290 584 c 2,29,-1
 212 584 l 1,19,-1
EndSplineSet
Validated: 1
Position2: "'case' Case-Sensitive Forms in Latin lookup 0 subtable" dx=10 dy=0 dh=20 dv=0
EndChar

StartChar: S
Encoding: 83 83 151
Width: 573
GlyphClass: 2
Flags: W
AnchorPoint: "Anchor-7" 288 760 basechar 0
AnchorPoint: "Anchor-1" 284 -50 basechar 0
LayerCount: 2
Fore
SplineSet
284 -15 m 0,0,1
 220 -15 220 -15 166.5 7.5 c 128,-1,2
 113 30 113 30 75.5 71.5 c 128,-1,3
 38 113 38 113 24 171 c 1,4,-1
 163 201 l 1,5,6
 176 160 176 160 208.5 137 c 128,-1,7
 241 114 241 114 286 114 c 0,8,9
 318 114 318 114 342.5 125.5 c 128,-1,10
 367 137 367 137 380.5 157 c 128,-1,11
 394 177 394 177 394 203 c 0,12,13
 394 236 394 236 369 256.5 c 128,-1,14
 344 277 344 277 288 290 c 2,15,-1
 256 297 l 2,16,17
 146 321 146 321 94 374.5 c 128,-1,18
 42 428 42 428 42 505 c 0,19,20
 42 553 42 553 61 593 c 128,-1,21
 80 633 80 633 113.5 662.5 c 128,-1,22
 147 692 147 692 192 708.5 c 128,-1,23
 237 725 237 725 289 725 c 0,24,25
 348 725 348 725 399 703 c 128,-1,26
 450 681 450 681 485 640 c 128,-1,27
 520 599 520 599 532 543 c 1,28,-1
 395 513 l 1,29,30
 383 553 383 553 353.5 574.5 c 128,-1,31
 324 596 324 596 285 596 c 0,32,33
 258 596 258 596 236.5 585.5 c 128,-1,34
 215 575 215 575 202.5 556.5 c 128,-1,35
 190 538 190 538 190 515 c 0,36,37
 190 480 190 480 217 461.5 c 128,-1,38
 244 443 244 443 297 431 c 2,39,-1
 329 424 l 2,40,41
 438 400 438 400 490.5 348 c 128,-1,42
 543 296 543 296 543 215 c 0,43,44
 543 164 543 164 523.5 122 c 128,-1,45
 504 80 504 80 469 49 c 128,-1,46
 434 18 434 18 387 1.5 c 128,-1,47
 340 -15 340 -15 284 -15 c 0,0,1
EndSplineSet
Validated: 1
Position2: "'case' Case-Sensitive Forms in Latin lookup 0 subtable" dx=10 dy=0 dh=20 dv=0
EndChar

StartChar: T
Encoding: 84 84 152
Width: 631
GlyphClass: 2
Flags: W
AnchorPoint: "Anchor-7" 315 760 basechar 0
AnchorPoint: "Anchor-1" 315 -50 basechar 0
LayerCount: 2
Fore
SplineSet
241 0 m 1,0,-1
 241 578 l 1,1,-1
 41 578 l 1,2,-1
 41 710 l 1,3,-1
 590 710 l 1,4,-1
 590 578 l 1,5,-1
 390 578 l 1,6,-1
 390 0 l 1,7,-1
 241 0 l 1,0,-1
EndSplineSet
Validated: 1
Position2: "'case' Case-Sensitive Forms in Latin lookup 0 subtable" dx=10 dy=0 dh=20 dv=0
EndChar

StartChar: U
Encoding: 85 85 153
Width: 722
GlyphClass: 2
Flags: W
AnchorPoint: "Anchor-7" 361 760 basechar 0
AnchorPoint: "Anchor-5" 560 -50 basechar 0
LayerCount: 2
Fore
SplineSet
360 -20 m 256,0,1
 290 -20 290 -20 234 1.5 c 128,-1,2
 178 23 178 23 138 63.5 c 128,-1,3
 98 104 98 104 76.5 160.5 c 128,-1,4
 55 217 55 217 55 287 c 2,5,-1
 55 710 l 1,6,-1
 204 710 l 1,7,-1
 204 294 l 2,8,9
 204 240 204 240 223 200 c 128,-1,10
 242 160 242 160 277.5 138.5 c 128,-1,11
 313 117 313 117 361 117 c 256,12,13
 409 117 409 117 444 138.5 c 128,-1,14
 479 160 479 160 498.5 200 c 128,-1,15
 518 240 518 240 518 294 c 2,16,-1
 518 710 l 1,17,-1
 667 710 l 1,18,-1
 667 287 l 2,19,20
 667 217 667 217 645.5 160.5 c 128,-1,21
 624 104 624 104 583.5 63.5 c 128,-1,22
 543 23 543 23 486.5 1.5 c 128,-1,23
 430 -20 430 -20 360 -20 c 256,0,1
EndSplineSet
Validated: 1
Position2: "'case' Case-Sensitive Forms in Latin lookup 0 subtable" dx=10 dy=0 dh=20 dv=0
EndChar

StartChar: V
Encoding: 86 86 154
Width: 733
GlyphClass: 2
Flags: W
LayerCount: 2
Fore
SplineSet
286 0 m 1,0,-1
 16 710 l 1,1,-1
 179 710 l 1,2,-1
 370 165 l 1,3,-1
 560 710 l 1,4,-1
 717 710 l 1,5,-1
 447 0 l 1,6,-1
 286 0 l 1,0,-1
EndSplineSet
Validated: 1
Position2: "'case' Case-Sensitive Forms in Latin lookup 0 subtable" dx=10 dy=0 dh=20 dv=0
EndChar

StartChar: W
Encoding: 87 87 155
Width: 1044
GlyphClass: 2
Flags: W
AnchorPoint: "Anchor-7" 522 760 basechar 0
LayerCount: 2
Fore
SplineSet
1015 710 m 1,0,-1
 806 0 l 1,1,-1
 662 0 l 1,2,-1
 523 509 l 1,3,-1
 384 0 l 1,4,-1
 238 0 l 1,5,-1
 29 710 l 1,6,-1
 185 710 l 1,7,-1
 315 197 l 1,8,-1
 456 710 l 1,9,-1
 593 710 l 1,10,-1
 734 197 l 1,11,-1
 863 710 l 1,12,-1
 1015 710 l 1,0,-1
EndSplineSet
Validated: 1
Position2: "'case' Case-Sensitive Forms in Latin lookup 0 subtable" dx=10 dy=0 dh=20 dv=0
EndChar

StartChar: X
Encoding: 88 88 156
Width: 689
GlyphClass: 2
Flags: W
LayerCount: 2
Fore
SplineSet
9 0 m 1,0,-1
 261 374 l 1,1,-1
 38 710 l 1,2,-1
 207 710 l 1,3,-1
 346 480 l 1,4,-1
 485 710 l 1,5,-1
 650 710 l 1,6,-1
 428 374 l 1,7,-1
 680 0 l 1,8,-1
 504 0 l 1,9,-1
 342 260 l 1,10,-1
 180 0 l 1,11,-1
 9 0 l 1,0,-1
EndSplineSet
Validated: 1
Position2: "'case' Case-Sensitive Forms in Latin lookup 0 subtable" dx=10 dy=0 dh=20 dv=0
EndChar

StartChar: Y
Encoding: 89 89 157
Width: 667
GlyphClass: 2
Flags: W
AnchorPoint: "Anchor-7" 333 760 basechar 0
LayerCount: 2
Fore
SplineSet
259 0 m 1,0,-1
 259 276 l 1,1,-1
 11 710 l 1,2,-1
 177 710 l 1,3,-1
 336 411 l 1,4,-1
 494 710 l 1,5,-1
 656 710 l 1,6,-1
 408 276 l 1,7,-1
 408 0 l 1,8,-1
 259 0 l 1,0,-1
EndSplineSet
Validated: 1
Position2: "'case' Case-Sensitive Forms in Latin lookup 0 subtable" dx=10 dy=0 dh=20 dv=0
EndChar

StartChar: Z
Encoding: 90 90 158
Width: 640
GlyphClass: 2
Flags: W
AnchorPoint: "Anchor-7" 318 760 basechar 0
LayerCount: 2
Fore
SplineSet
37 0 m 1,0,-1
 37 106 l 1,1,-1
 398 584 l 1,2,-1
 52 584 l 1,3,-1
 52 710 l 1,4,-1
 584 710 l 1,5,-1
 584 604 l 1,6,-1
 223 126 l 1,7,-1
 606 126 l 1,8,-1
 606 0 l 1,9,-1
 37 0 l 1,0,-1
EndSplineSet
Validated: 1
Position2: "'case' Case-Sensitive Forms in Latin lookup 0 subtable" dx=10 dy=0 dh=20 dv=0
EndChar

StartChar: a
Encoding: 97 97 159
Width: 560
GlyphClass: 2
Flags: W
AnchorPoint: "Anchor-6" 278 562 basechar 0
AnchorPoint: "Anchor-2" 504 -50 basechar 0
LayerCount: 2
Fore
SplineSet
219 -15 m 0,0,1
 178 -15 178 -15 144 -3 c 128,-1,2
 110 9 110 9 84.5 31.5 c 128,-1,3
 59 54 59 54 45 84 c 128,-1,4
 31 114 31 114 31 150 c 0,5,6
 31 200 31 200 58 238 c 128,-1,7
 85 276 85 276 134 297.5 c 128,-1,8
 183 319 183 319 248 319 c 0,9,10
 281 319 281 319 310.5 313 c 128,-1,11
 340 307 340 307 368 296 c 1,12,-1
 368 327 l 2,13,14
 368 372 368 372 342.5 400 c 128,-1,15
 317 428 317 428 273 428 c 0,16,17
 240 428 240 428 213 411.5 c 128,-1,18
 186 395 186 395 175 365 c 1,19,-1
 50 390 l 1,20,21
 61 436 61 436 93.5 470.5 c 128,-1,22
 126 505 126 505 173 524 c 128,-1,23
 220 543 220 543 275 543 c 0,24,25
 326 543 326 543 368 527 c 128,-1,26
 410 511 410 511 440.5 481 c 128,-1,27
 471 451 471 451 487.5 410.5 c 128,-1,28
 504 370 504 370 504 320 c 2,29,-1
 504 0 l 1,30,-1
 379 0 l 1,31,-1
 375 62 l 1,32,33
 354 28 354 28 314 6.5 c 128,-1,34
 274 -15 274 -15 219 -15 c 0,0,1
169 157 m 0,35,36
 169 129 169 129 192 111 c 128,-1,37
 215 93 215 93 253 93 c 0,38,39
 286 93 286 93 312 107 c 128,-1,40
 338 121 338 121 353 145.5 c 128,-1,41
 368 170 368 170 368 200 c 2,42,-1
 368 205 l 1,43,44
 346 214 346 214 321 219.5 c 128,-1,45
 296 225 296 225 271 225 c 0,46,47
 224 225 224 225 196.5 206.5 c 128,-1,48
 169 188 169 188 169 157 c 0,35,36
EndSplineSet
Validated: 1
Substitution2: "'ordn' Ordinals in Latin lookup 25 subtable" ordfeminine
Substitution2: "'ss01' Style Set 1 in Latin lookup 14 subtable" a.ss01
Substitution2: "'aalt' Access All Alternates in Latin lookup 0 subtable" ordfeminine
EndChar

StartChar: b
Encoding: 98 98 160
Width: 639
GlyphClass: 2
Flags: W
LayerCount: 2
Fore
SplineSet
56 0 m 1,0,-1
 56 746 l 1,1,-1
 196 746 l 1,2,-1
 196 461 l 1,3,4
 224 499 224 499 266.5 521 c 128,-1,5
 309 543 309 543 360 543 c 0,6,7
 412 543 412 543 456 522 c 128,-1,8
 500 501 500 501 533 463.5 c 128,-1,9
 566 426 566 426 584.5 376 c 128,-1,10
 603 326 603 326 603 267 c 0,11,12
 603 207 603 207 584 156 c 128,-1,13
 565 105 565 105 531 66.5 c 128,-1,14
 497 28 497 28 451 6.5 c 128,-1,15
 405 -15 405 -15 352 -15 c 0,16,17
 300 -15 300 -15 258 7 c 128,-1,18
 216 29 216 29 189 69 c 1,19,-1
 185 0 l 1,20,-1
 56 0 l 1,0,-1
327 111 m 256,21,22
 365 111 365 111 395 131 c 128,-1,23
 425 151 425 151 442.5 185.5 c 128,-1,24
 460 220 460 220 460 264 c 256,25,26
 460 308 460 308 442.5 342.5 c 128,-1,27
 425 377 425 377 395 397 c 128,-1,28
 365 417 365 417 327 417 c 256,29,30
 289 417 289 417 259 397 c 128,-1,31
 229 377 229 377 211.5 342.5 c 128,-1,32
 194 308 194 308 194 264 c 256,33,34
 194 220 194 220 211.5 185.5 c 128,-1,35
 229 151 229 151 259 131 c 128,-1,36
 289 111 289 111 327 111 c 256,21,22
EndSplineSet
Validated: 1
EndChar

StartChar: c
Encoding: 99 99 161
Width: 571
GlyphClass: 2
Flags: W
AnchorPoint: "Anchor-6" 304 562 basechar 0
AnchorPoint: "Anchor-0" 303 -50 basechar 0
LayerCount: 2
Fore
SplineSet
301 -15 m 0,0,1
 244 -15 244 -15 195.5 5.5 c 128,-1,2
 147 26 147 26 111.5 63 c 128,-1,3
 76 100 76 100 56 150.5 c 128,-1,4
 36 201 36 201 36 260 c 0,5,6
 36 320 36 320 56.5 371.5 c 128,-1,7
 77 423 77 423 113.5 461.5 c 128,-1,8
 150 500 150 500 199 521.5 c 128,-1,9
 248 543 248 543 305 543 c 256,10,11
 362 543 362 543 410 521.5 c 128,-1,12
 458 500 458 500 491.5 461 c 128,-1,13
 525 422 525 422 538 370 c 1,14,-1
 405 344 l 1,15,16
 390 378 390 378 363 397.5 c 128,-1,17
 336 417 336 417 302 417 c 0,18,19
 266 417 266 417 238.5 397 c 128,-1,20
 211 377 211 377 195 341.5 c 128,-1,21
 179 306 179 306 179 262 c 256,22,23
 179 218 179 218 194.5 184 c 128,-1,24
 210 150 210 150 238 130.5 c 128,-1,25
 266 111 266 111 302 111 c 256,26,27
 338 111 338 111 367 130 c 128,-1,28
 396 149 396 149 410 184 c 1,29,-1
 543 158 l 1,30,31
 530 105 530 105 494.5 66 c 128,-1,32
 459 27 459 27 409 6 c 128,-1,33
 359 -15 359 -15 301 -15 c 0,0,1
EndSplineSet
Validated: 1
EndChar

StartChar: d
Encoding: 100 100 162
Width: 639
GlyphClass: 2
Flags: W
AnchorPoint: "Anchor-8" 583 790 basechar 0
LayerCount: 2
Fore
SplineSet
278 -15 m 0,0,1
 227 -15 227 -15 183 6 c 128,-1,2
 139 27 139 27 106 64.5 c 128,-1,3
 73 102 73 102 54.5 152 c 128,-1,4
 36 202 36 202 36 261 c 0,5,6
 36 321 36 321 55 372 c 128,-1,7
 74 423 74 423 108 461.5 c 128,-1,8
 142 500 142 500 187.5 521.5 c 128,-1,9
 233 543 233 543 286 543 c 0,10,11
 335 543 335 543 375.5 523.5 c 128,-1,12
 416 504 416 504 443 469 c 1,13,-1
 443 746 l 1,14,-1
 583 746 l 1,15,-1
 583 0 l 1,16,-1
 454 0 l 1,17,-1
 450 77 l 1,18,19
 422 34 422 34 377.5 9.5 c 128,-1,20
 333 -15 333 -15 278 -15 c 0,0,1
312 111 m 256,21,22
 350 111 350 111 380 131 c 128,-1,23
 410 151 410 151 427.5 185.5 c 128,-1,24
 445 220 445 220 445 264 c 256,25,26
 445 308 445 308 427.5 342.5 c 128,-1,27
 410 377 410 377 380 397 c 128,-1,28
 350 417 350 417 312 417 c 256,29,30
 274 417 274 417 244 397 c 128,-1,31
 214 377 214 377 196.5 342.5 c 128,-1,32
 179 308 179 308 179 264 c 256,33,34
 179 220 179 220 196.5 185.5 c 128,-1,35
 214 151 214 151 244 131 c 128,-1,36
 274 111 274 111 312 111 c 256,21,22
EndSplineSet
Validated: 1
EndChar

StartChar: e
Encoding: 101 101 163
Width: 588
GlyphClass: 2
Flags: W
AnchorPoint: "Anchor-6" 299 562 basechar 0
AnchorPoint: "Anchor-3" 476 -50 basechar 0
LayerCount: 2
Fore
SplineSet
306 -15 m 0,0,1
 247 -15 247 -15 197.5 5.5 c 128,-1,2
 148 26 148 26 112 63.5 c 128,-1,3
 76 101 76 101 56 152.5 c 128,-1,4
 36 204 36 204 36 265 c 0,5,6
 36 324 36 324 56 375 c 128,-1,7
 76 426 76 426 111.5 463.5 c 128,-1,8
 147 501 147 501 195 522 c 128,-1,9
 243 543 243 543 299 543 c 0,10,11
 357 543 357 543 404.5 523 c 128,-1,12
 452 503 452 503 486 466 c 128,-1,13
 520 429 520 429 538.5 378 c 128,-1,14
 557 327 557 327 557 264 c 2,15,-1
 557 229 l 1,16,-1
 178 229 l 1,17,18
 187 170 187 170 221 136.5 c 128,-1,19
 255 103 255 103 307 103 c 0,20,21
 343 103 343 103 372.5 120 c 128,-1,22
 402 137 402 137 421 169 c 1,23,-1
 546 129 l 1,24,25
 528 84 528 84 492 52 c 128,-1,26
 456 20 456 20 408 2.5 c 128,-1,27
 360 -15 360 -15 306 -15 c 0,0,1
299 435 m 0,28,29
 253 435 253 435 221.5 405 c 128,-1,30
 190 375 190 375 180 323 c 1,31,-1
 413 323 l 1,32,33
 405 375 405 375 374.5 405 c 128,-1,34
 344 435 344 435 299 435 c 0,28,29
EndSplineSet
Validated: 1
EndChar

StartChar: f
Encoding: 102 102 164
Width: 410
GlyphClass: 2
Flags: W
LayerCount: 2
Fore
SplineSet
108 0 m 1,0,-1
 108 415 l 1,1,-1
 18 415 l 1,2,-1
 18 528 l 1,3,-1
 108 528 l 1,4,-1
 108 558 l 2,5,6
 108 601 108 601 122.5 637.5 c 128,-1,7
 137 674 137 674 163.5 700.5 c 128,-1,8
 190 727 190 727 226.5 741.5 c 128,-1,9
 263 756 263 756 306 756 c 0,10,11
 339 756 339 756 365.5 748 c 128,-1,12
 392 740 392 740 411 730 c 1,13,-1
 383 623 l 1,14,15
 371 629 371 629 355.5 633.5 c 128,-1,16
 340 638 340 638 326 638 c 0,17,18
 286 638 286 638 267 614.5 c 128,-1,19
 248 591 248 591 248 549 c 2,20,-1
 248 528 l 1,21,-1
 388 528 l 1,22,-1
 388 415 l 1,23,-1
 248 415 l 1,24,-1
 248 0 l 1,25,-1
 108 0 l 1,0,-1
EndSplineSet
Validated: 1
EndChar

StartChar: g
Encoding: 103 103 165
Width: 629
GlyphClass: 2
Flags: W
AnchorPoint: "Anchor-6" 303 562 basechar 0
LayerCount: 2
Fore
SplineSet
273 15 m 256,0,1
 223 15 223 15 179.5 35 c 128,-1,2
 136 55 136 55 104 90.5 c 128,-1,3
 72 126 72 126 54 173.5 c 128,-1,4
 36 221 36 221 36 276 c 0,5,6
 36 333 36 333 54.5 381.5 c 128,-1,7
 73 430 73 430 106.5 466 c 128,-1,8
 140 502 140 502 184.5 522.5 c 128,-1,9
 229 543 229 543 281 543 c 0,10,11
 332 543 332 543 373 522.5 c 128,-1,12
 414 502 414 502 441 463 c 1,13,-1
 444 528 l 1,14,-1
 573 528 l 1,15,-1
 573 63 l 2,16,17
 573 2 573 2 553.5 -48 c 128,-1,18
 534 -98 534 -98 498 -134 c 128,-1,19
 462 -170 462 -170 412.5 -189.5 c 128,-1,20
 363 -209 363 -209 303 -209 c 0,21,22
 244 -209 244 -209 197 -190.5 c 128,-1,23
 150 -172 150 -172 115 -139 c 128,-1,24
 80 -106 80 -106 60 -62 c 1,25,-1
 194 -29 l 1,26,27
 212 -58 212 -58 240.5 -74.5 c 128,-1,28
 269 -91 269 -91 305 -91 c 0,29,30
 344 -91 344 -91 372.5 -73.5 c 128,-1,31
 401 -56 401 -56 417 -24.5 c 128,-1,32
 433 7 433 7 433 49 c 2,33,-1
 433 92 l 1,34,35
 406 56 406 56 364.5 35.5 c 128,-1,36
 323 15 323 15 273 15 c 256,0,1
307 139 m 256,37,38
 344 139 344 139 372.5 157.5 c 128,-1,39
 401 176 401 176 418 207.5 c 128,-1,40
 435 239 435 239 435 279 c 256,41,42
 435 319 435 319 418 350.5 c 128,-1,43
 401 382 401 382 372.5 400.5 c 128,-1,44
 344 419 344 419 307 419 c 256,45,46
 270 419 270 419 241.5 400.5 c 128,-1,47
 213 382 213 382 196 350.5 c 128,-1,48
 179 319 179 319 179 279 c 256,49,50
 179 239 179 239 196 207.5 c 128,-1,51
 213 176 213 176 241.5 157.5 c 128,-1,52
 270 139 270 139 307 139 c 256,37,38
EndSplineSet
Validated: 1
EndChar

StartChar: h
Encoding: 104 104 166
Width: 594
GlyphClass: 2
Flags: W
AnchorPoint: "Anchor-0" 297 -50 basechar 0
LayerCount: 2
Fore
SplineSet
56 0 m 1,0,-1
 56 746 l 1,1,-1
 196 746 l 1,2,-1
 196 470 l 1,3,4
 220 504 220 504 258 523.5 c 128,-1,5
 296 543 296 543 345 543 c 0,6,7
 403 543 403 543 446.5 515.5 c 128,-1,8
 490 488 490 488 514 437 c 128,-1,9
 538 386 538 386 538 317 c 2,10,-1
 538 0 l 1,11,-1
 398 0 l 1,12,-1
 398 299 l 2,13,14
 398 354 398 354 373 385.5 c 128,-1,15
 348 417 348 417 304 417 c 0,16,17
 272 417 272 417 248 402.5 c 128,-1,18
 224 388 224 388 210 362 c 128,-1,19
 196 336 196 336 196 303 c 2,20,-1
 196 0 l 1,21,-1
 56 0 l 1,0,-1
EndSplineSet
Validated: 1
EndChar

StartChar: i
Encoding: 105 105 167
Width: 252
GlyphClass: 2
Flags: W
AnchorPoint: "Anchor-2" 196 -50 basechar 0
LayerCount: 2
Fore
SplineSet
206 671 m 256,0,1
 206 648 206 648 195.5 630 c 128,-1,2
 185 612 185 612 166.5 601.5 c 128,-1,3
 148 591 148 591 126 591 c 256,4,5
 104 591 104 591 85.5 601.5 c 128,-1,6
 67 612 67 612 56.5 630 c 128,-1,7
 46 648 46 648 46 671 c 256,8,9
 46 694 46 694 56.5 712 c 128,-1,10
 67 730 67 730 85.5 740.5 c 128,-1,11
 104 751 104 751 126 751 c 256,12,13
 148 751 148 751 166.5 740.5 c 128,-1,14
 185 730 185 730 195.5 712 c 128,-1,15
 206 694 206 694 206 671 c 256,0,1
56 0 m 1,16,-1
 56 528 l 1,17,-1
 196 528 l 1,18,-1
 196 0 l 1,19,-1
 56 0 l 1,16,-1
EndSplineSet
Validated: 1
EndChar

StartChar: j
Encoding: 106 106 168
Width: 257
GlyphClass: 2
Flags: W
LayerCount: 2
Fore
SplineSet
211 671 m 256,0,1
 211 648 211 648 200.5 630 c 128,-1,2
 190 612 190 612 172 601.5 c 128,-1,3
 154 591 154 591 131 591 c 256,4,5
 108 591 108 591 90 601.5 c 128,-1,6
 72 612 72 612 61.5 630 c 128,-1,7
 51 648 51 648 51 671 c 256,8,9
 51 694 51 694 61.5 712 c 128,-1,10
 72 730 72 730 90 740.5 c 128,-1,11
 108 751 108 751 131 751 c 256,12,13
 154 751 154 751 172 740.5 c 128,-1,14
 190 730 190 730 200.5 712 c 128,-1,15
 211 694 211 694 211 671 c 256,0,1
25 -204 m 0,16,17
 -2 -204 -2 -204 -27 -197.5 c 128,-1,18
 -52 -191 -52 -191 -73 -179 c 1,19,-1
 -45 -71 l 1,20,21
 -35 -76 -35 -76 -22.5 -79.5 c 128,-1,22
 -10 -83 -10 -83 1 -83 c 0,23,24
 30 -83 30 -83 45.5 -64 c 128,-1,25
 61 -45 61 -45 61 -10 c 2,26,-1
 61 528 l 1,27,-1
 201 528 l 1,28,-1
 201 -19 l 2,29,30
 201 -74 201 -74 179 -116 c 128,-1,31
 157 -158 157 -158 117.5 -181 c 128,-1,32
 78 -204 78 -204 25 -204 c 0,16,17
EndSplineSet
Validated: 1
EndChar

StartChar: k
Encoding: 107 107 169
Width: 581
GlyphClass: 2
Flags: W
AnchorPoint: "Anchor-0" 290 -50 basechar 0
LayerCount: 2
Fore
SplineSet
56 0 m 1,0,-1
 56 746 l 1,1,-1
 193 746 l 1,2,-1
 193 313 l 1,3,-1
 389 528 l 1,4,-1
 553 528 l 1,5,-1
 333 294 l 1,6,-1
 577 0 l 1,7,-1
 400 0 l 1,8,-1
 193 263 l 1,9,-1
 193 0 l 1,10,-1
 56 0 l 1,0,-1
EndSplineSet
Validated: 1
EndChar

StartChar: l
Encoding: 108 108 170
Width: 252
GlyphClass: 2
Flags: W
AnchorPoint: "Anchor-8" 196 790 basechar 0
AnchorPoint: "Anchor-6" 125 766 basechar 0
AnchorPoint: "Anchor-0" 125 -50 basechar 0
LayerCount: 2
Fore
SplineSet
56 0 m 1,0,-1
 56 746 l 1,1,-1
 196 746 l 1,2,-1
 196 0 l 1,3,-1
 56 0 l 1,0,-1
EndSplineSet
Validated: 1
EndChar

StartChar: m
Encoding: 109 109 171
Width: 920
GlyphClass: 2
Flags: W
LayerCount: 2
Fore
SplineSet
56 0 m 1,0,-1
 56 528 l 1,1,-1
 185 528 l 1,2,-1
 189 461 l 1,3,4
 212 499 212 499 251 521 c 128,-1,5
 290 543 290 543 339 543 c 0,6,7
 392 543 392 543 433.5 517 c 128,-1,8
 475 491 475 491 498 445 c 1,9,10
 522 489 522 489 567.5 516 c 128,-1,11
 613 543 613 543 672 543 c 256,12,13
 731 543 731 543 774 515.5 c 128,-1,14
 817 488 817 488 840.5 437 c 128,-1,15
 864 386 864 386 864 317 c 2,16,-1
 864 0 l 1,17,-1
 724 0 l 1,18,-1
 724 299 l 2,19,20
 724 354 724 354 700 385.5 c 128,-1,21
 676 417 676 417 633 417 c 0,22,23
 603 417 603 417 579.5 402.5 c 128,-1,24
 556 388 556 388 543 362 c 128,-1,25
 530 336 530 336 530 303 c 2,26,-1
 530 0 l 1,27,-1
 390 0 l 1,28,-1
 390 299 l 2,29,30
 390 354 390 354 366 385.5 c 128,-1,31
 342 417 342 417 299 417 c 0,32,33
 269 417 269 417 245.5 402.5 c 128,-1,34
 222 388 222 388 209 362 c 128,-1,35
 196 336 196 336 196 303 c 2,36,-1
 196 0 l 1,37,-1
 56 0 l 1,0,-1
EndSplineSet
Validated: 1
EndChar

StartChar: n
Encoding: 110 110 172
Width: 594
GlyphClass: 2
Flags: W
AnchorPoint: "Anchor-6" 297 562 basechar 0
AnchorPoint: "Anchor-0" 297 -50 basechar 0
LayerCount: 2
Fore
SplineSet
56 0 m 1,0,-1
 56 528 l 1,1,-1
 185 528 l 1,2,-1
 189 460 l 1,3,4
 212 498 212 498 252.5 520.5 c 128,-1,5
 293 543 293 543 345 543 c 0,6,7
 403 543 403 543 446.5 515.5 c 128,-1,8
 490 488 490 488 514 437 c 128,-1,9
 538 386 538 386 538 317 c 2,10,-1
 538 0 l 1,11,-1
 398 0 l 1,12,-1
 398 299 l 2,13,14
 398 354 398 354 373 385.5 c 128,-1,15
 348 417 348 417 304 417 c 0,16,17
 272 417 272 417 248 402.5 c 128,-1,18
 224 388 224 388 210 362 c 128,-1,19
 196 336 196 336 196 303 c 2,20,-1
 196 0 l 1,21,-1
 56 0 l 1,0,-1
EndSplineSet
Validated: 1
EndChar

StartChar: o
Encoding: 111 111 173
Width: 624
GlyphClass: 2
Flags: W
AnchorPoint: "Anchor-6" 312 562 basechar 0
LayerCount: 2
Fore
SplineSet
310 -15 m 0,0,1
 251 -15 251 -15 201 6 c 128,-1,2
 151 27 151 27 114 64.5 c 128,-1,3
 77 102 77 102 56.5 153 c 128,-1,4
 36 204 36 204 36 264 c 256,5,6
 36 324 36 324 57 374.5 c 128,-1,7
 78 425 78 425 115.5 463 c 128,-1,8
 153 501 153 501 203.5 522 c 128,-1,9
 254 543 254 543 314 543 c 0,10,11
 373 543 373 543 423 522 c 128,-1,12
 473 501 473 501 510 463.5 c 128,-1,13
 547 426 547 426 567.5 375.5 c 128,-1,14
 588 325 588 325 588 265 c 256,15,16
 588 205 588 205 567 154 c 128,-1,17
 546 103 546 103 508.5 65 c 128,-1,18
 471 27 471 27 420.5 6 c 128,-1,19
 370 -15 370 -15 310 -15 c 0,0,1
312 111 m 256,20,21
 350 111 350 111 380 131 c 128,-1,22
 410 151 410 151 427.5 185.5 c 128,-1,23
 445 220 445 220 445 264 c 256,24,25
 445 308 445 308 427.5 342.5 c 128,-1,26
 410 377 410 377 380 397 c 128,-1,27
 350 417 350 417 312 417 c 256,28,29
 274 417 274 417 244 397 c 128,-1,30
 214 377 214 377 196.5 342.5 c 128,-1,31
 179 308 179 308 179 264 c 256,32,33
 179 220 179 220 196.5 185.5 c 128,-1,34
 214 151 214 151 244 131 c 128,-1,35
 274 111 274 111 312 111 c 256,20,21
EndSplineSet
Validated: 1
Substitution2: "'ordn' Ordinals in Latin lookup 25 subtable" ordmasculine
Substitution2: "'aalt' Access All Alternates in Latin lookup 0 subtable" ordmasculine
EndChar

StartChar: p
Encoding: 112 112 174
Width: 639
GlyphClass: 2
Flags: W
LayerCount: 2
Fore
SplineSet
56 -194 m 1,0,-1
 56 528 l 1,1,-1
 185 528 l 1,2,-1
 189 451 l 1,3,4
 216 494 216 494 261 518.5 c 128,-1,5
 306 543 306 543 360 543 c 0,6,7
 412 543 412 543 456 522 c 128,-1,8
 500 501 500 501 533 463.5 c 128,-1,9
 566 426 566 426 584.5 376 c 128,-1,10
 603 326 603 326 603 267 c 0,11,12
 603 207 603 207 584 156 c 128,-1,13
 565 105 565 105 531 66.5 c 128,-1,14
 497 28 497 28 451 6.5 c 128,-1,15
 405 -15 405 -15 352 -15 c 0,16,17
 303 -15 303 -15 263 4.5 c 128,-1,18
 223 24 223 24 196 59 c 1,19,-1
 196 -194 l 1,20,-1
 56 -194 l 1,0,-1
327 111 m 256,21,22
 365 111 365 111 395 131 c 128,-1,23
 425 151 425 151 442.5 185.5 c 128,-1,24
 460 220 460 220 460 264 c 256,25,26
 460 308 460 308 442.5 342.5 c 128,-1,27
 425 377 425 377 395 397 c 128,-1,28
 365 417 365 417 327 417 c 256,29,30
 289 417 289 417 259 397 c 128,-1,31
 229 377 229 377 211.5 342.5 c 128,-1,32
 194 308 194 308 194 264 c 256,33,34
 194 220 194 220 211.5 185.5 c 128,-1,35
 229 151 229 151 259 131 c 128,-1,36
 289 111 289 111 327 111 c 256,21,22
EndSplineSet
Validated: 1
EndChar

StartChar: q
Encoding: 113 113 175
Width: 639
GlyphClass: 2
Flags: W
LayerCount: 2
Fore
SplineSet
279 -15 m 0,0,1
 227 -15 227 -15 183 6 c 128,-1,2
 139 27 139 27 106 64.5 c 128,-1,3
 73 102 73 102 54.5 152 c 128,-1,4
 36 202 36 202 36 261 c 0,5,6
 36 321 36 321 55 372 c 128,-1,7
 74 423 74 423 108 461.5 c 128,-1,8
 142 500 142 500 188 521.5 c 128,-1,9
 234 543 234 543 287 543 c 0,10,11
 339 543 339 543 381 521 c 128,-1,12
 423 499 423 499 450 459 c 1,13,-1
 454 528 l 1,14,-1
 583 528 l 1,15,-1
 583 -194 l 1,16,-1
 443 -194 l 1,17,-1
 443 67 l 1,18,19
 415 29 415 29 372.5 7 c 128,-1,20
 330 -15 330 -15 279 -15 c 0,0,1
312 111 m 256,21,22
 350 111 350 111 380 131 c 128,-1,23
 410 151 410 151 427.5 185.5 c 128,-1,24
 445 220 445 220 445 264 c 256,25,26
 445 308 445 308 427.5 342.5 c 128,-1,27
 410 377 410 377 380 397 c 128,-1,28
 350 417 350 417 312 417 c 256,29,30
 274 417 274 417 244 397 c 128,-1,31
 214 377 214 377 196.5 342.5 c 128,-1,32
 179 308 179 308 179 264 c 256,33,34
 179 220 179 220 196.5 185.5 c 128,-1,35
 214 151 214 151 244 131 c 128,-1,36
 274 111 274 111 312 111 c 256,21,22
EndSplineSet
Validated: 1
EndChar

StartChar: r
Encoding: 114 114 176
Width: 397
GlyphClass: 2
Flags: W
AnchorPoint: "Anchor-6" 218 562 basechar 0
LayerCount: 2
Fore
SplineSet
56 0 m 1,0,-1
 56 528 l 1,1,-1
 185 528 l 1,2,-1
 190 448 l 1,3,4
 210 490 210 490 244 512.5 c 128,-1,5
 278 535 278 535 324 535 c 0,6,7
 338 535 338 535 352 532.5 c 128,-1,8
 366 530 366 530 377 526 c 1,9,-1
 362 388 l 1,10,11
 351 392 351 392 339.5 393.5 c 128,-1,12
 328 395 328 395 316 395 c 0,13,14
 258 395 258 395 227 359.5 c 128,-1,15
 196 324 196 324 196 259 c 2,16,-1
 196 0 l 1,17,-1
 56 0 l 1,0,-1
EndSplineSet
Validated: 1
EndChar

StartChar: s
Encoding: 115 115 177
Width: 491
GlyphClass: 2
Flags: W
AnchorPoint: "Anchor-6" 243 562 basechar 0
AnchorPoint: "Anchor-0" 246 -50 basechar 0
LayerCount: 2
Fore
SplineSet
246 -15 m 0,0,1
 190 -15 190 -15 144.5 3 c 128,-1,2
 99 21 99 21 67.5 54 c 128,-1,3
 36 87 36 87 24 132 c 1,4,-1
 150 159 l 1,5,6
 160 128 160 128 186 110 c 128,-1,7
 212 92 212 92 248 92 c 0,8,9
 282 92 282 92 304 107 c 128,-1,10
 326 122 326 122 326 148 c 0,11,12
 326 170 326 170 306.5 184.5 c 128,-1,13
 287 199 287 199 242 207 c 2,14,-1
 214 212 l 2,15,16
 128 227 128 227 83.5 268 c 128,-1,17
 39 309 39 309 39 372 c 0,18,19
 39 422 39 422 65 460.5 c 128,-1,20
 91 499 91 499 137 521 c 128,-1,21
 183 543 183 543 243 543 c 0,22,23
 296 543 296 543 339.5 525.5 c 128,-1,24
 383 508 383 508 412 476 c 128,-1,25
 441 444 441 444 452 399 c 1,26,-1
 327 373 l 1,27,28
 317 403 317 403 294.5 420 c 128,-1,29
 272 437 272 437 242 437 c 0,30,31
 211 437 211 437 191 422 c 128,-1,32
 171 407 171 407 171 384 c 0,33,34
 171 364 171 364 190.5 350.5 c 128,-1,35
 210 337 210 337 257 329 c 2,36,-1
 285 324 l 2,37,38
 370 309 370 309 415 267.5 c 128,-1,39
 460 226 460 226 460 162 c 0,40,41
 460 123 460 123 444.5 91 c 128,-1,42
 429 59 429 59 400 35 c 128,-1,43
 371 11 371 11 332 -2 c 128,-1,44
 293 -15 293 -15 246 -15 c 0,0,1
EndSplineSet
Validated: 1
EndChar

StartChar: t
Encoding: 116 116 178
Width: 438
GlyphClass: 2
Flags: W
AnchorPoint: "Anchor-9" 255 790 basechar 0
AnchorPoint: "Anchor-0" 251 -50 basechar 0
LayerCount: 2
Fore
SplineSet
285 -15 m 0,0,1
 230 -15 230 -15 190.5 6.5 c 128,-1,2
 151 28 151 28 129.5 69 c 128,-1,3
 108 110 108 110 108 169 c 2,4,-1
 108 415 l 1,5,-1
 18 415 l 1,6,-1
 18 528 l 1,7,-1
 108 528 l 1,8,-1
 108 708 l 1,9,-1
 248 708 l 1,10,-1
 248 528 l 1,11,-1
 392 528 l 1,12,-1
 392 415 l 1,13,-1
 248 415 l 1,14,-1
 248 186 l 2,15,16
 248 148 248 148 264 127.5 c 128,-1,17
 280 107 280 107 313 107 c 0,18,19
 330 107 330 107 349.5 112 c 128,-1,20
 369 117 369 117 387 125 c 1,21,-1
 412 20 l 1,22,23
 386 4 386 4 354 -5.5 c 128,-1,24
 322 -15 322 -15 285 -15 c 0,0,1
EndSplineSet
Validated: 1
EndChar

StartChar: u
Encoding: 117 117 179
Width: 592
GlyphClass: 2
Flags: W
AnchorPoint: "Anchor-6" 295 562 basechar 0
AnchorPoint: "Anchor-3" 455 -50 basechar 0
LayerCount: 2
Fore
SplineSet
294 -15 m 0,0,1
 222 -15 222 -15 168.5 15.5 c 128,-1,2
 115 46 115 46 85.5 102.5 c 128,-1,3
 56 159 56 159 56 236 c 2,4,-1
 56 528 l 1,5,-1
 196 528 l 1,6,-1
 196 233 l 2,7,8
 196 176 196 176 223 143.5 c 128,-1,9
 250 111 250 111 296 111 c 256,10,11
 342 111 342 111 369 143.5 c 128,-1,12
 396 176 396 176 396 233 c 2,13,-1
 396 528 l 1,14,-1
 536 528 l 1,15,-1
 536 236 l 2,16,17
 536 179 536 179 519 133 c 128,-1,18
 502 87 502 87 470 54 c 128,-1,19
 438 21 438 21 393.5 3 c 128,-1,20
 349 -15 349 -15 294 -15 c 0,0,1
EndSplineSet
Validated: 1
EndChar

StartChar: v
Encoding: 118 118 180
Width: 561
GlyphClass: 2
Flags: W
LayerCount: 2
Fore
SplineSet
209 0 m 1,0,-1
 11 528 l 1,1,-1
 164 528 l 1,2,-1
 282 148 l 1,3,-1
 402 528 l 1,4,-1
 550 528 l 1,5,-1
 352 0 l 1,6,-1
 209 0 l 1,0,-1
EndSplineSet
Validated: 1
EndChar

StartChar: w
Encoding: 119 119 181
Width: 840
GlyphClass: 2
Flags: W
AnchorPoint: "Anchor-6" 420 562 basechar 0
LayerCount: 2
Fore
SplineSet
186 0 m 1,0,-1
 11 528 l 1,1,-1
 155 528 l 1,2,-1
 254 171 l 1,3,-1
 361 528 l 1,4,-1
 482 528 l 1,5,-1
 589 170 l 1,6,-1
 690 528 l 1,7,-1
 829 528 l 1,8,-1
 654 0 l 1,9,-1
 525 0 l 1,10,-1
 419 357 l 1,11,-1
 313 0 l 1,12,-1
 186 0 l 1,0,-1
EndSplineSet
Validated: 1
EndChar

StartChar: x
Encoding: 120 120 182
Width: 575
GlyphClass: 2
Flags: W
LayerCount: 2
Fore
SplineSet
12 0 m 1,0,-1
 210 279 l 1,1,-1
 34 528 l 1,2,-1
 192 528 l 1,3,-1
 289 369 l 1,4,-1
 388 528 l 1,5,-1
 541 528 l 1,6,-1
 366 278 l 1,7,-1
 563 0 l 1,8,-1
 398 0 l 1,9,-1
 287 182 l 1,10,-1
 173 0 l 1,11,-1
 12 0 l 1,0,-1
EndSplineSet
Validated: 1
EndChar

StartChar: y
Encoding: 121 121 183
Width: 561
GlyphClass: 2
Flags: W
AnchorPoint: "Anchor-6" 280 562 basechar 0
LayerCount: 2
Fore
SplineSet
144 -204 m 0,0,1
 117 -204 117 -204 93 -198.5 c 128,-1,2
 69 -193 69 -193 48 -181 c 1,3,-1
 75 -71 l 1,4,5
 86 -76 86 -76 101 -79.5 c 128,-1,6
 116 -83 116 -83 129 -83 c 0,7,8
 158 -83 158 -83 179.5 -67.5 c 128,-1,9
 201 -52 201 -52 215 -18 c 2,10,-1
 224 5 l 1,11,-1
 11 528 l 1,12,-1
 164 528 l 1,13,-1
 289 154 l 1,14,-1
 402 528 l 1,15,-1
 550 528 l 1,16,-1
 333 -50 l 2,17,18
 303 -130 303 -130 256.5 -167 c 128,-1,19
 210 -204 210 -204 144 -204 c 0,0,1
EndSplineSet
Validated: 1
EndChar

StartChar: z
Encoding: 122 122 184
Width: 525
GlyphClass: 2
Flags: W
AnchorPoint: "Anchor-6" 257 562 basechar 0
LayerCount: 2
Fore
SplineSet
39 0 m 1,0,-1
 39 93 l 1,1,-1
 295 415 l 1,2,-1
 46 415 l 1,3,-1
 46 528 l 1,4,-1
 469 528 l 1,5,-1
 469 435 l 1,6,-1
 212 113 l 1,7,-1
 486 113 l 1,8,-1
 486 0 l 1,9,-1
 39 0 l 1,0,-1
EndSplineSet
Validated: 1
EndChar

StartChar: a.ss01
Encoding: 65567 -1 185
Width: 639
Flags: W
AnchorPoint: "Anchor-6" 317 562 basechar 0
AnchorPoint: "Anchor-2" 583 -50 basechar 0
LayerCount: 2
Fore
SplineSet
279 -15 m 0,0,1
 227 -15 227 -15 183 6 c 128,-1,2
 139 27 139 27 106 64.5 c 128,-1,3
 73 102 73 102 54.5 152 c 128,-1,4
 36 202 36 202 36 261 c 0,5,6
 36 321 36 321 55 372 c 128,-1,7
 74 423 74 423 108 461.5 c 128,-1,8
 142 500 142 500 188 521.5 c 128,-1,9
 234 543 234 543 287 543 c 0,10,11
 339 543 339 543 381 521 c 128,-1,12
 423 499 423 499 450 459 c 1,13,-1
 454 528 l 1,14,-1
 583 528 l 1,15,-1
 583 0 l 1,16,-1
 454 0 l 1,17,-1
 450 77 l 1,18,19
 423 34 423 34 378 9.5 c 128,-1,20
 333 -15 333 -15 279 -15 c 0,0,1
312 111 m 256,21,22
 350 111 350 111 380 131 c 128,-1,23
 410 151 410 151 427.5 185.5 c 128,-1,24
 445 220 445 220 445 264 c 256,25,26
 445 308 445 308 427.5 342.5 c 128,-1,27
 410 377 410 377 380 397 c 128,-1,28
 350 417 350 417 312 417 c 256,29,30
 274 417 274 417 244 397 c 128,-1,31
 214 377 214 377 196.5 342.5 c 128,-1,32
 179 308 179 308 179 264 c 256,33,34
 179 220 179 220 196.5 185.5 c 128,-1,35
 214 151 214 151 244 131 c 128,-1,36
 274 111 274 111 312 111 c 256,21,22
EndSplineSet
Validated: 1
Substitution2: "'ordn' Ordinals in Latin lookup 25 subtable" ordfeminine.ss01
Substitution2: "'aalt' Access All Alternates in Latin lookup 0 subtable" ordfeminine.ss01
EndChar

StartChar: trademark
Encoding: 8482 8482 186
Width: 797
GlyphClass: 2
Flags: W
LayerCount: 2
Fore
SplineSet
121 359 m 1,0,-1
 121 625 l 1,1,-1
 25 625 l 1,2,-1
 25 710 l 1,3,-1
 314 710 l 1,4,-1
 314 625 l 1,5,-1
 218 625 l 1,6,-1
 218 359 l 1,7,-1
 121 359 l 1,0,-1
368 359 m 1,8,-1
 368 710 l 1,9,-1
 466 710 l 1,10,-1
 555 527 l 1,11,-1
 644 710 l 1,12,-1
 739 710 l 1,13,-1
 739 359 l 1,14,-1
 647 359 l 1,15,-1
 647 564 l 1,16,-1
 584 432 l 1,17,-1
 523 432 l 1,18,-1
 461 563 l 1,19,-1
 461 359 l 1,20,-1
 368 359 l 1,8,-1
EndSplineSet
Validated: 1
EndChar

StartChar: ordfeminine.ss01
Encoding: 65568 -1 187
Width: 467
Flags: W
LayerCount: 2
Fore
SplineSet
422 318 m 1,0,-1
 318 318 l 1,1,-1
 314 369 l 1,2,3
 294 341 294 341 266 324.5 c 128,-1,4
 238 308 238 308 200 308 c 0,5,6
 166 308 166 308 134.5 322 c 128,-1,7
 103 336 103 336 79.5 362 c 128,-1,8
 56 388 56 388 42 423.5 c 128,-1,9
 28 459 28 459 28 502 c 0,10,11
 28 544 28 544 41.5 580.5 c 128,-1,12
 55 617 55 617 79 643.5 c 128,-1,13
 103 670 103 670 135 685 c 128,-1,14
 167 700 167 700 203 700 c 0,15,16
 238 700 238 700 266 685 c 128,-1,17
 294 670 294 670 315 642 c 1,18,-1
 318 690 l 1,19,-1
 422 690 l 1,20,-1
 422 318 l 1,0,-1
226 411 m 256,21,22
 250 411 250 411 269 423 c 128,-1,23
 288 435 288 435 299 455.5 c 128,-1,24
 310 476 310 476 310 504 c 0,25,26
 310 531 310 531 299 552 c 128,-1,27
 288 573 288 573 269 585 c 128,-1,28
 250 597 250 597 226 597 c 256,29,30
 202 597 202 597 183 585 c 128,-1,31
 164 573 164 573 153.5 552 c 128,-1,32
 143 531 143 531 143 504 c 0,33,34
 143 476 143 476 153.5 455.5 c 128,-1,35
 164 435 164 435 183 423 c 128,-1,36
 202 411 202 411 226 411 c 256,21,22
EndSplineSet
Validated: 1
EndChar

StartChar: ordfeminine
Encoding: 170 170 188
Width: 416
GlyphClass: 2
Flags: W
LayerCount: 2
Fore
SplineSet
162 308 m 0,0,1
 124 308 124 308 94.5 323 c 128,-1,2
 65 338 65 338 48 364 c 128,-1,3
 31 390 31 390 31 425 c 256,4,5
 31 460 31 460 50 487 c 128,-1,6
 69 514 69 514 103.5 528.5 c 128,-1,7
 138 543 138 543 184 543 c 0,8,9
 206 543 206 543 224 539.5 c 128,-1,10
 242 536 242 536 261 529 c 1,11,-1
 261 548 l 2,12,13
 261 576 261 576 245 594 c 128,-1,14
 229 612 229 612 203 612 c 0,15,16
 184 612 184 612 168 602 c 128,-1,17
 152 592 152 592 146 575 c 1,18,-1
 44 593 l 1,19,20
 52 624 52 624 75.5 648.5 c 128,-1,21
 99 673 99 673 132.5 686.5 c 128,-1,22
 166 700 166 700 206 700 c 0,23,24
 255 700 255 700 292 680 c 128,-1,25
 329 660 329 660 350 624.5 c 128,-1,26
 371 589 371 589 371 542 c 2,27,-1
 371 318 l 1,28,-1
 270 318 l 1,29,-1
 267 358 l 1,30,31
 252 335 252 335 225 321.5 c 128,-1,32
 198 308 198 308 162 308 c 0,0,1
142 429 m 0,33,34
 142 410 142 410 155.5 399.5 c 128,-1,35
 169 389 169 389 191 389 c 0,36,37
 222 389 222 389 241.5 409 c 128,-1,38
 261 429 261 429 261 459 c 2,39,-1
 261 461 l 1,40,41
 249 466 249 466 233.5 469.5 c 128,-1,42
 218 473 218 473 203 473 c 0,43,44
 176 473 176 473 159 462 c 128,-1,45
 142 451 142 451 142 429 c 0,33,34
EndSplineSet
Validated: 1
Substitution2: "'ss01' Style Set 1 in Latin lookup 14 subtable" ordfeminine.ss01
EndChar

StartChar: ordmasculine
Encoding: 186 186 189
Width: 453
GlyphClass: 2
Flags: W
LayerCount: 2
Fore
SplineSet
226 308 m 0,0,1
 184 308 184 308 147.5 322.5 c 128,-1,2
 111 337 111 337 84.5 364 c 128,-1,3
 58 391 58 391 43 426.5 c 128,-1,4
 28 462 28 462 28 504 c 256,5,6
 28 546 28 546 43 581.5 c 128,-1,7
 58 617 58 617 84.5 643.5 c 128,-1,8
 111 670 111 670 147.5 685 c 128,-1,9
 184 700 184 700 226 700 c 0,10,11
 269 700 269 700 305 685 c 128,-1,12
 341 670 341 670 368 643.5 c 128,-1,13
 395 617 395 617 410 581.5 c 128,-1,14
 425 546 425 546 425 504 c 256,15,16
 425 462 425 462 410 426.5 c 128,-1,17
 395 391 395 391 368 364 c 128,-1,18
 341 337 341 337 305 322.5 c 128,-1,19
 269 308 269 308 226 308 c 0,0,1
226 411 m 256,20,21
 250 411 250 411 269 423 c 128,-1,22
 288 435 288 435 299 455.5 c 128,-1,23
 310 476 310 476 310 504 c 0,24,25
 310 531 310 531 299 552 c 128,-1,26
 288 573 288 573 269 585 c 128,-1,27
 250 597 250 597 226 597 c 256,28,29
 202 597 202 597 183 585 c 128,-1,30
 164 573 164 573 153.5 552 c 128,-1,31
 143 531 143 531 143 504 c 0,32,33
 143 476 143 476 153.5 455.5 c 128,-1,34
 164 435 164 435 183 423 c 128,-1,35
 202 411 202 411 226 411 c 256,20,21
EndSplineSet
Validated: 1
EndChar

StartChar: degree
Encoding: 176 176 190
Width: 377
GlyphClass: 2
Flags: W
LayerCount: 2
Fore
SplineSet
356 589 m 256,0,1
 356 555 356 555 343 525.5 c 128,-1,2
 330 496 330 496 307 473.5 c 128,-1,3
 284 451 284 451 253.5 438 c 128,-1,4
 223 425 223 425 188 425 c 256,5,6
 153 425 153 425 123 437.5 c 128,-1,7
 93 450 93 450 70 472.5 c 128,-1,8
 47 495 47 495 34 524.5 c 128,-1,9
 21 554 21 554 21 588 c 256,10,11
 21 622 21 622 34 651.5 c 128,-1,12
 47 681 47 681 70 703.5 c 128,-1,13
 93 726 93 726 123.5 739 c 128,-1,14
 154 752 154 752 189 752 c 256,15,16
 224 752 224 752 254 739.5 c 128,-1,17
 284 727 284 727 307 704.5 c 128,-1,18
 330 682 330 682 343 652.5 c 128,-1,19
 356 623 356 623 356 589 c 256,0,1
257 589 m 256,20,21
 257 610 257 610 247.5 626.5 c 128,-1,22
 238 643 238 643 222.5 653 c 128,-1,23
 207 663 207 663 188 663 c 256,24,25
 169 663 169 663 153.5 653 c 128,-1,26
 138 643 138 643 129 626.5 c 128,-1,27
 120 610 120 610 120 589 c 256,28,29
 120 568 120 568 129 551 c 128,-1,30
 138 534 138 534 153.5 524 c 128,-1,31
 169 514 169 514 188 514 c 256,32,33
 207 514 207 514 222.5 524 c 128,-1,34
 238 534 238 534 247.5 551 c 128,-1,35
 257 568 257 568 257 589 c 256,20,21
EndSplineSet
Validated: 1
EndChar

StartChar: copyright
Encoding: 169 169 191
Width: 846
GlyphClass: 2
Flags: W
LayerCount: 2
Fore
SplineSet
423 -21 m 256,0,1
 359 -21 359 -21 302 -2.5 c 128,-1,2
 245 16 245 16 198.5 50 c 128,-1,3
 152 84 152 84 118 130.5 c 128,-1,4
 84 177 84 177 65.5 234 c 128,-1,5
 47 291 47 291 47 355 c 256,6,7
 47 419 47 419 65.5 475.5 c 128,-1,8
 84 532 84 532 118 579 c 128,-1,9
 152 626 152 626 198.5 659.5 c 128,-1,10
 245 693 245 693 302 711.5 c 128,-1,11
 359 730 359 730 423 730 c 256,12,13
 487 730 487 730 544 711.5 c 128,-1,14
 601 693 601 693 647.5 659.5 c 128,-1,15
 694 626 694 626 728 579 c 128,-1,16
 762 532 762 532 780.5 475.5 c 128,-1,17
 799 419 799 419 799 355 c 256,18,19
 799 291 799 291 780.5 234 c 128,-1,20
 762 177 762 177 728 130.5 c 128,-1,21
 694 84 694 84 647.5 50 c 128,-1,22
 601 16 601 16 544 -2.5 c 128,-1,23
 487 -21 487 -21 423 -21 c 256,0,1
423 64 m 256,24,25
 470 64 470 64 513 78.5 c 128,-1,26
 556 93 556 93 591.5 120 c 128,-1,27
 627 147 627 147 653 183 c 128,-1,28
 679 219 679 219 693.5 263 c 128,-1,29
 708 307 708 307 708 355 c 256,30,31
 708 403 708 403 693.5 446.5 c 128,-1,32
 679 490 679 490 653 526.5 c 128,-1,33
 627 563 627 563 591.5 589.5 c 128,-1,34
 556 616 556 616 513 630.5 c 128,-1,35
 470 645 470 645 423 645 c 256,36,37
 376 645 376 645 333 630.5 c 128,-1,38
 290 616 290 616 254.5 589.5 c 128,-1,39
 219 563 219 563 193 526.5 c 128,-1,40
 167 490 167 490 152.5 446.5 c 128,-1,41
 138 403 138 403 138 355 c 256,42,43
 138 307 138 307 152.5 263 c 128,-1,44
 167 219 167 219 193 183 c 128,-1,45
 219 147 219 147 254.5 120 c 128,-1,46
 290 93 290 93 333 78.5 c 128,-1,47
 376 64 376 64 423 64 c 256,24,25
427 155 m 0,48,49
 385 155 385 155 349.5 170 c 128,-1,50
 314 185 314 185 287.5 212.5 c 128,-1,51
 261 240 261 240 246.5 276.5 c 128,-1,52
 232 313 232 313 232 356 c 0,53,54
 232 400 232 400 247 437.5 c 128,-1,55
 262 475 262 475 289 503.5 c 128,-1,56
 316 532 316 532 352 547.5 c 128,-1,57
 388 563 388 563 430 563 c 256,58,59
 472 563 472 563 507.5 546.5 c 128,-1,60
 543 530 543 530 567.5 499 c 128,-1,61
 592 468 592 468 602 427 c 1,62,-1
 496 407 l 1,63,64
 486 431 486 431 469 445 c 128,-1,65
 452 459 452 459 430 459 c 0,66,67
 406 459 406 459 388 446 c 128,-1,68
 370 433 370 433 359.5 410 c 128,-1,69
 349 387 349 387 349 358 c 256,70,71
 349 329 349 329 359.5 306.5 c 128,-1,72
 370 284 370 284 388 271.5 c 128,-1,73
 406 259 406 259 430 259 c 0,74,75
 452 259 452 259 471.5 272.5 c 128,-1,76
 491 286 491 286 500 311 c 1,77,-1
 606 291 l 1,78,79
 596 251 596 251 570 220.5 c 128,-1,80
 544 190 544 190 507 172.5 c 128,-1,81
 470 155 470 155 427 155 c 0,48,49
EndSplineSet
Validated: 1
EndChar

StartChar: registered
Encoding: 174 174 192
Width: 536
GlyphClass: 2
Flags: W
LayerCount: 2
Fore
SplineSet
268 270 m 256,0,1
 219 270 219 270 177.5 287 c 128,-1,2
 136 304 136 304 105 334.5 c 128,-1,3
 74 365 74 365 57 406 c 128,-1,4
 40 447 40 447 40 495 c 256,5,6
 40 543 40 543 57 584 c 128,-1,7
 74 625 74 625 105 655.5 c 128,-1,8
 136 686 136 686 177.5 703 c 128,-1,9
 219 720 219 720 268 720 c 256,10,11
 317 720 317 720 358.5 703 c 128,-1,12
 400 686 400 686 431 655.5 c 128,-1,13
 462 625 462 625 479 584 c 128,-1,14
 496 543 496 543 496 495 c 256,15,16
 496 447 496 447 479 406 c 128,-1,17
 462 365 462 365 431 334.5 c 128,-1,18
 400 304 400 304 358.5 287 c 128,-1,19
 317 270 317 270 268 270 c 256,0,1
268 326 m 256,20,21
 304 326 304 326 334.5 339 c 128,-1,22
 365 352 365 352 388 375 c 128,-1,23
 411 398 411 398 424 428.5 c 128,-1,24
 437 459 437 459 437 495 c 256,25,26
 437 531 437 531 424 561.5 c 128,-1,27
 411 592 411 592 388 615 c 128,-1,28
 365 638 365 638 334.5 651 c 128,-1,29
 304 664 304 664 268 664 c 256,30,31
 232 664 232 664 201.5 651 c 128,-1,32
 171 638 171 638 148 615 c 128,-1,33
 125 592 125 592 112 561.5 c 128,-1,34
 99 531 99 531 99 495 c 256,35,36
 99 459 99 459 112 428.5 c 128,-1,37
 125 398 125 398 148 375 c 128,-1,38
 171 352 171 352 201.5 339 c 128,-1,39
 232 326 232 326 268 326 c 256,20,21
180 380 m 1,40,-1
 180 614 l 1,41,-1
 267 614 l 2,42,43
 312 614 312 614 338 593 c 128,-1,44
 364 572 364 572 364 535 c 0,45,46
 364 515 364 515 354 497.5 c 128,-1,47
 344 480 344 480 327 469 c 1,48,-1
 376 380 l 1,49,-1
 307 380 l 1,50,-1
 273 452 l 2,51,52
 271 452 271 452 269 452 c 128,-1,53
 267 452 267 452 264 452 c 0,54,55
 254 452 254 452 243 453 c 1,56,-1
 243 380 l 1,57,-1
 180 380 l 1,40,-1
243 560 m 1,58,-1
 243 505 l 1,59,60
 248 505 248 505 253.5 504.5 c 128,-1,61
 259 504 259 504 266 504 c 0,62,63
 282 504 282 504 291 512 c 128,-1,64
 300 520 300 520 300 533 c 256,65,66
 300 546 300 546 291 553 c 128,-1,67
 282 560 282 560 265 560 c 2,68,-1
 243 560 l 1,58,-1
EndSplineSet
Validated: 1
EndChar

StartChar: quoteleft
Encoding: 8216 8216 193
Width: 249
GlyphClass: 2
Flags: W
LayerCount: 2
Fore
SplineSet
134 416 m 0,0,1
 106 416 106 416 83 432.5 c 128,-1,2
 60 449 60 449 46.5 477.5 c 128,-1,3
 33 506 33 506 33 541 c 0,4,5
 33 584 33 584 51.5 620.5 c 128,-1,6
 70 657 70 657 104 683 c 128,-1,7
 138 709 138 709 183 721 c 1,8,-1
 207 649 l 1,9,10
 180 642 180 642 160 627.5 c 128,-1,11
 140 613 140 613 129 594.5 c 128,-1,12
 118 576 118 576 118 556 c 0,13,14
 118 550 118 550 119 545 c 1,15,16
 130 552 130 552 144 552 c 0,17,18
 162 552 162 552 177 543 c 128,-1,19
 192 534 192 534 200.5 519 c 128,-1,20
 209 504 209 504 209 485 c 256,21,22
 209 466 209 466 199 450.5 c 128,-1,23
 189 435 189 435 171.5 425.5 c 128,-1,24
 154 416 154 416 134 416 c 0,0,1
EndSplineSet
Validated: 1
EndChar

StartChar: quoteright
Encoding: 8217 8217 194
Width: 249
GlyphClass: 2
Flags: W
LayerCount: 2
Fore
SplineSet
115 714 m 0,0,1
 143 714 143 714 166 697.5 c 128,-1,2
 189 681 189 681 202.5 652.5 c 128,-1,3
 216 624 216 624 216 589 c 0,4,5
 216 546 216 546 197.5 509.5 c 128,-1,6
 179 473 179 473 145.5 447 c 128,-1,7
 112 421 112 421 66 409 c 1,8,-1
 42 481 l 1,9,10
 68 488 68 488 88.5 502.5 c 128,-1,11
 109 517 109 517 120 535.5 c 128,-1,12
 131 554 131 554 131 574 c 0,13,14
 131 580 131 580 130 585 c 1,15,16
 119 578 119 578 105 578 c 0,17,18
 87 578 87 578 72 587 c 128,-1,19
 57 596 57 596 48.5 611 c 128,-1,20
 40 626 40 626 40 645 c 256,21,22
 40 664 40 664 50 679.5 c 128,-1,23
 60 695 60 695 77 704.5 c 128,-1,24
 94 714 94 714 115 714 c 0,0,1
EndSplineSet
Validated: 1
EndChar

StartChar: glyph199
Encoding: 65569 -1 199
Width: 122
GlyphClass: 2
Flags: W
LayerCount: 2
Fore
SplineSet
61 304 m 256,0,1
 41 304 41 304 24.5 314 c 128,-1,2
 8 324 8 324 -2 341 c 128,-1,3
 -12 358 -12 358 -12 378 c 256,4,5
 -12 398 -12 398 -2 415 c 128,-1,6
 8 432 8 432 24.5 442 c 128,-1,7
 41 452 41 452 61 452 c 256,8,9
 81 452 81 452 97.5 442 c 128,-1,10
 114 432 114 432 124 415 c 128,-1,11
 134 398 134 398 134 378 c 256,12,13
 134 358 134 358 124 341 c 128,-1,14
 114 324 114 324 97.5 314 c 128,-1,15
 81 304 81 304 61 304 c 256,0,1
EndSplineSet
Validated: 1
EndChar

StartChar: glyph200
Encoding: 65570 -1 200
Width: 0
GlyphClass: 2
Flags: W
LayerCount: 2
Fore
SplineSet
-136 320 m 256,0,1
 -158 320 -158 320 -176.5 330.5 c 128,-1,2
 -195 341 -195 341 -205.5 359.5 c 128,-1,3
 -216 378 -216 378 -216 400 c 256,4,5
 -216 422 -216 422 -205.5 440.5 c 128,-1,6
 -195 459 -195 459 -176.5 469.5 c 128,-1,7
 -158 480 -158 480 -136 480 c 256,8,9
 -114 480 -114 480 -95.5 469.5 c 128,-1,10
 -77 459 -77 459 -66.5 440.5 c 128,-1,11
 -56 422 -56 422 -56 400 c 256,12,13
 -56 378 -56 378 -66.5 359.5 c 128,-1,14
 -77 341 -77 341 -95.5 330.5 c 128,-1,15
 -114 320 -114 320 -136 320 c 256,0,1
EndSplineSet
Validated: 1
EndChar

StartChar: dotlessi
Encoding: 305 305 201
Width: 252
GlyphClass: 2
Flags: W
AnchorPoint: "Anchor-6" 125 562 basechar 0
LayerCount: 2
Fore
SplineSet
56 0 m 1,0,-1
 56 528 l 1,1,-1
 196 528 l 1,2,-1
 196 0 l 1,3,-1
 56 0 l 1,0,-1
EndSplineSet
Validated: 1
EndChar

StartChar: uni0237
Encoding: 567 567 202
Width: 257
GlyphClass: 2
Flags: W
LayerCount: 2
Fore
SplineSet
25 -204 m 0,0,1
 -2 -204 -2 -204 -27 -197.5 c 128,-1,2
 -52 -191 -52 -191 -73 -179 c 1,3,-1
 -45 -71 l 1,4,5
 -35 -76 -35 -76 -22.5 -79.5 c 128,-1,6
 -10 -83 -10 -83 1 -83 c 0,7,8
 30 -83 30 -83 45.5 -64 c 128,-1,9
 61 -45 61 -45 61 -10 c 2,10,-1
 61 528 l 1,11,-1
 201 528 l 1,12,-1
 201 -19 l 2,13,14
 201 -74 201 -74 179 -116 c 128,-1,15
 157 -158 157 -158 117.5 -181 c 128,-1,16
 78 -204 78 -204 25 -204 c 0,0,1
EndSplineSet
Validated: 1
EndChar

StartChar: IJ
Encoding: 306 306 203
Width: 698
GlyphClass: 2
Flags: W
AnchorPoint: "Anchor-11" 129 760 baselig 0
AnchorPoint: "Anchor-11" 568 760 baselig 1
LayerCount: 2
Fore
SplineSet
55 307 m 1,0,-1
 55 710 l 1,1,-1
 204 710 l 1,2,-1
 204 307 l 1,3,-1
 55 307 l 1,0,-1
350 -20 m 0,4,5
 278 -20 278 -20 218.5 4.5 c 128,-1,6
 159 29 159 29 117.5 76 c 128,-1,7
 76 123 76 123 57 189 c 1,8,-1
 200 215 l 1,9,10
 220 168 220 168 257 142.5 c 128,-1,11
 294 117 294 117 343 117 c 0,12,13
 389 117 389 117 423 138.5 c 128,-1,14
 457 160 457 160 475.5 199 c 128,-1,15
 494 238 494 238 494 292 c 2,16,-1
 494 710 l 1,17,-1
 643 710 l 1,18,-1
 643 291 l 2,19,20
 643 220 643 220 622.5 163 c 128,-1,21
 602 106 602 106 563 65 c 128,-1,22
 524 24 524 24 470 2 c 128,-1,23
 416 -20 416 -20 350 -20 c 0,4,5
EndSplineSet
Validated: 1
Ligature2: "Ligature Substitution lookup 8 subtable" I J
Position2: "'case' Case-Sensitive Forms in Latin lookup 0 subtable" dx=10 dy=0 dh=20 dv=0
EndChar

StartChar: ij
Encoding: 307 307 204
Width: 594
GlyphClass: 2
Flags: W
LayerCount: 2
Fore
SplineSet
206 671 m 256,0,1
 206 648 206 648 195.5 630 c 128,-1,2
 185 612 185 612 166.5 601.5 c 128,-1,3
 148 591 148 591 126 591 c 256,4,5
 104 591 104 591 85.5 601.5 c 128,-1,6
 67 612 67 612 56.5 630 c 128,-1,7
 46 648 46 648 46 671 c 256,8,9
 46 694 46 694 56.5 712 c 128,-1,10
 67 730 67 730 85.5 740.5 c 128,-1,11
 104 751 104 751 126 751 c 256,12,13
 148 751 148 751 166.5 740.5 c 128,-1,14
 185 730 185 730 195.5 712 c 128,-1,15
 206 694 206 694 206 671 c 256,0,1
548 671 m 256,16,17
 548 648 548 648 537.5 630 c 128,-1,18
 527 612 527 612 508.5 601.5 c 128,-1,19
 490 591 490 591 468 591 c 256,20,21
 446 591 446 591 427.5 601.5 c 128,-1,22
 409 612 409 612 398.5 630 c 128,-1,23
 388 648 388 648 388 671 c 256,24,25
 388 694 388 694 398.5 712 c 128,-1,26
 409 730 409 730 427.5 740.5 c 128,-1,27
 446 751 446 751 468 751 c 256,28,29
 490 751 490 751 508.5 740.5 c 128,-1,30
 527 730 527 730 537.5 712 c 128,-1,31
 548 694 548 694 548 671 c 256,16,17
250 15 m 0,32,33
 191 15 191 15 147.5 42.5 c 128,-1,34
 104 70 104 70 80 121 c 128,-1,35
 56 172 56 172 56 241 c 2,36,-1
 56 528 l 1,37,-1
 196 528 l 1,38,-1
 196 260 l 2,39,40
 196 204 196 204 221 173 c 128,-1,41
 246 142 246 142 290 142 c 0,42,43
 322 142 322 142 346 157 c 128,-1,44
 370 172 370 172 384 197.5 c 128,-1,45
 398 223 398 223 398 256 c 2,46,-1
 398 528 l 1,47,-1
 538 528 l 1,48,-1
 538 49 l 2,49,50
 538 -10 538 -10 520 -57 c 128,-1,51
 502 -104 502 -104 469 -138 c 128,-1,52
 436 -172 436 -172 390 -190.5 c 128,-1,53
 344 -209 344 -209 288 -209 c 0,54,55
 236 -209 236 -209 191.5 -192 c 128,-1,56
 147 -175 147 -175 113.5 -143.5 c 128,-1,57
 80 -112 80 -112 61 -68 c 1,58,-1
 190 -34 l 1,59,60
 206 -61 206 -61 231.5 -76 c 128,-1,61
 257 -91 257 -91 286 -91 c 0,62,63
 320 -91 320 -91 345 -75.5 c 128,-1,64
 370 -60 370 -60 384 -31 c 128,-1,65
 398 -2 398 -2 398 36 c 2,66,-1
 398 88 l 1,67,68
 374 54 374 54 336 34.5 c 128,-1,69
 298 15 298 15 250 15 c 0,32,33
EndSplineSet
Validated: 1
Ligature2: "Ligature Substitution lookup 7 subtable" i j
EndChar

StartChar: glyph205
Encoding: 65571 -1 205
Width: 594
GlyphClass: 2
Flags: W
AnchorPoint: "Anchor-10" 126 562 baselig 0
AnchorPoint: "Anchor-10" 468 562 baselig 1
LayerCount: 2
Fore
SplineSet
250 15 m 0,0,1
 191 15 191 15 147.5 42.5 c 128,-1,2
 104 70 104 70 80 121 c 128,-1,3
 56 172 56 172 56 241 c 2,4,-1
 56 528 l 1,5,-1
 196 528 l 1,6,-1
 196 260 l 2,7,8
 196 204 196 204 221 173 c 128,-1,9
 246 142 246 142 290 142 c 0,10,11
 322 142 322 142 346 157 c 128,-1,12
 370 172 370 172 384 197.5 c 128,-1,13
 398 223 398 223 398 256 c 2,14,-1
 398 528 l 1,15,-1
 538 528 l 1,16,-1
 538 49 l 2,17,18
 538 -10 538 -10 520 -57 c 128,-1,19
 502 -104 502 -104 469 -138 c 128,-1,20
 436 -172 436 -172 390 -190.5 c 128,-1,21
 344 -209 344 -209 288 -209 c 0,22,23
 236 -209 236 -209 191.5 -192 c 128,-1,24
 147 -175 147 -175 113.5 -143.5 c 128,-1,25
 80 -112 80 -112 61 -68 c 1,26,-1
 193 -34 l 1,27,28
 210 -62 210 -62 234.5 -78 c 128,-1,29
 259 -94 259 -94 288 -94 c 0,30,31
 322 -94 322 -94 346.5 -78 c 128,-1,32
 371 -62 371 -62 384.5 -33 c 128,-1,33
 398 -4 398 -4 398 36 c 2,34,-1
 398 88 l 1,35,36
 374 54 374 54 336 34.5 c 128,-1,37
 298 15 298 15 250 15 c 0,0,1
EndSplineSet
Validated: 1
EndChar

StartChar: Thorn
Encoding: 222 222 206
Width: 599
GlyphClass: 2
Flags: W
LayerCount: 2
Fore
SplineSet
65 0 m 1,0,-1
 65 710 l 1,1,-1
 212 710 l 1,2,-1
 212 596 l 1,3,-1
 293 596 l 2,4,5
 380 596 380 596 442.5 567.5 c 128,-1,6
 505 539 505 539 538.5 485.5 c 128,-1,7
 572 432 572 432 572 356 c 0,8,9
 572 302 572 302 552 258.5 c 128,-1,10
 532 215 532 215 495 183.5 c 128,-1,11
 458 152 458 152 406.5 135 c 128,-1,12
 355 118 355 118 292 118 c 0,13,14
 255 118 255 118 212 125 c 1,15,-1
 212 0 l 1,16,-1
 65 0 l 1,0,-1
212 470 m 1,17,-1
 212 250 l 1,18,19
 252 244 252 244 286 244 c 0,20,21
 350 244 350 244 385.5 273 c 128,-1,22
 421 302 421 302 421 357 c 0,23,24
 421 411 421 411 387 440.5 c 128,-1,25
 353 470 353 470 290 470 c 2,26,-1
 212 470 l 1,17,-1
EndSplineSet
Validated: 1
Position2: "'case' Case-Sensitive Forms in Latin lookup 0 subtable" dx=10 dy=0 dh=20 dv=0
EndChar

StartChar: AE
Encoding: 198 198 207
Width: 1026
GlyphClass: 2
Flags: W
LayerCount: 2
Fore
SplineSet
16 0 m 1,0,-1
 462 710 l 1,1,-1
 962 710 l 1,2,-1
 962 583 l 1,3,-1
 671 583 l 1,4,-1
 671 428 l 1,5,-1
 930 428 l 1,6,-1
 930 301 l 1,7,-1
 671 301 l 1,8,-1
 671 127 l 1,9,-1
 972 127 l 1,10,-1
 972 0 l 1,11,-1
 527 0 l 1,12,-1
 527 156 l 1,13,-1
 275 156 l 1,14,-1
 182 0 l 1,15,-1
 16 0 l 1,0,-1
350 282 m 1,16,-1
 527 282 l 1,17,-1
 527 579 l 1,18,-1
 350 282 l 1,16,-1
EndSplineSet
Validated: 1
Position2: "'case' Case-Sensitive Forms in Latin lookup 0 subtable" dx=10 dy=0 dh=20 dv=0
EndChar

StartChar: OE
Encoding: 338 338 208
Width: 1029
GlyphClass: 2
Flags: W
LayerCount: 2
Fore
SplineSet
418 0 m 2,0,1
 334 0 334 0 265 25.5 c 128,-1,2
 196 51 196 51 146 98 c 128,-1,3
 96 145 96 145 69 210 c 128,-1,4
 42 275 42 275 42 354 c 256,5,6
 42 433 42 433 69.5 498.5 c 128,-1,7
 97 564 97 564 147 611.5 c 128,-1,8
 197 659 197 659 266.5 684.5 c 128,-1,9
 336 710 336 710 420 710 c 2,10,-1
 965 710 l 1,11,-1
 965 583 l 1,12,-1
 674 583 l 1,13,-1
 674 428 l 1,14,-1
 933 428 l 1,15,-1
 933 301 l 1,16,-1
 674 301 l 1,17,-1
 674 127 l 1,18,-1
 975 127 l 1,19,-1
 975 0 l 1,20,-1
 418 0 l 2,0,1
427 132 m 2,21,-1
 530 132 l 1,22,-1
 530 578 l 1,23,-1
 427 578 l 2,24,25
 356 578 356 578 304 551 c 128,-1,26
 252 524 252 524 224 474 c 128,-1,27
 196 424 196 424 196 355 c 256,28,29
 196 286 196 286 224 236 c 128,-1,30
 252 186 252 186 304 159 c 128,-1,31
 356 132 356 132 427 132 c 2,21,-1
EndSplineSet
Validated: 1
Position2: "'case' Case-Sensitive Forms in Latin lookup 0 subtable" dx=10 dy=0 dh=20 dv=0
EndChar

StartChar: uni1E9E
Encoding: 7838 7838 209
Width: 659
GlyphClass: 2
Flags: W
LayerCount: 2
Fore
SplineSet
388 -15 m 0,0,1
 354 -15 354 -15 323.5 -8 c 128,-1,2
 293 -1 293 -1 265 12 c 1,3,-1
 291 134 l 1,4,5
 308 126 308 126 329.5 120.5 c 128,-1,6
 351 115 351 115 371 115 c 0,7,8
 402 115 402 115 427 128.5 c 128,-1,9
 452 142 452 142 466 165 c 128,-1,10
 480 188 480 188 480 219 c 0,11,12
 480 266 480 266 445 294.5 c 128,-1,13
 410 323 410 323 350 324 c 1,14,-1
 338 412 l 1,15,-1
 445 558 l 1,16,17
 426 574 426 574 401 584 c 128,-1,18
 376 594 376 594 347 594 c 0,19,20
 306 594 306 594 274.5 574 c 128,-1,21
 243 554 243 554 225 517 c 128,-1,22
 207 480 207 480 207 428 c 2,23,-1
 207 0 l 1,24,-1
 58 0 l 1,25,-1
 58 423 l 2,26,27
 58 491 58 491 78 546.5 c 128,-1,28
 98 602 98 602 135 642 c 128,-1,29
 172 682 172 682 224.5 703.5 c 128,-1,30
 277 725 277 725 342 725 c 0,31,32
 398 725 398 725 449 708.5 c 128,-1,33
 500 692 500 692 542 662 c 128,-1,34
 584 632 584 632 613 589 c 1,35,-1
 489 418 l 1,36,37
 532 404 532 404 564.5 374.5 c 128,-1,38
 597 345 597 345 615 304.5 c 128,-1,39
 633 264 633 264 633 215 c 256,40,41
 633 166 633 166 614.5 124 c 128,-1,42
 596 82 596 82 563 50.5 c 128,-1,43
 530 19 530 19 485 2 c 128,-1,44
 440 -15 440 -15 388 -15 c 0,0,1
EndSplineSet
Validated: 1
Position2: "'case' Case-Sensitive Forms in Latin lookup 0 subtable" dx=10 dy=0 dh=20 dv=0
EndChar

StartChar: thorn
Encoding: 254 254 210
Width: 639
GlyphClass: 2
Flags: W
LayerCount: 2
Fore
SplineSet
56 -194 m 1,0,-1
 56 746 l 1,1,-1
 196 746 l 1,2,-1
 196 461 l 1,3,4
 224 499 224 499 266.5 521 c 128,-1,5
 309 543 309 543 360 543 c 0,6,7
 412 543 412 543 456 522 c 128,-1,8
 500 501 500 501 533 463.5 c 128,-1,9
 566 426 566 426 584.5 376 c 128,-1,10
 603 326 603 326 603 267 c 0,11,12
 603 207 603 207 584 156 c 128,-1,13
 565 105 565 105 531 66.5 c 128,-1,14
 497 28 497 28 451 6.5 c 128,-1,15
 405 -15 405 -15 352 -15 c 0,16,17
 303 -15 303 -15 263 4.5 c 128,-1,18
 223 24 223 24 196 59 c 1,19,-1
 196 -194 l 1,20,-1
 56 -194 l 1,0,-1
327 111 m 256,21,22
 365 111 365 111 395 131 c 128,-1,23
 425 151 425 151 442.5 185.5 c 128,-1,24
 460 220 460 220 460 264 c 256,25,26
 460 308 460 308 442.5 342.5 c 128,-1,27
 425 377 425 377 395 397 c 128,-1,28
 365 417 365 417 327 417 c 256,29,30
 289 417 289 417 259 397 c 128,-1,31
 229 377 229 377 211.5 342.5 c 128,-1,32
 194 308 194 308 194 264 c 256,33,34
 194 220 194 220 211.5 185.5 c 128,-1,35
 229 151 229 151 259 131 c 128,-1,36
 289 111 289 111 327 111 c 256,21,22
EndSplineSet
Validated: 1
EndChar

StartChar: f_i.liga
Encoding: 65572 -1 211
Width: 646
GlyphClass: 3
Flags: W
LayerCount: 2
Fore
SplineSet
108 0 m 1,0,-1
 108 418 l 1,1,-1
 18 418 l 1,2,-1
 18 528 l 1,3,-1
 108 528 l 1,4,-1
 108 558 l 2,5,6
 108 602 108 602 121.5 638 c 128,-1,7
 135 674 135 674 160 700.5 c 128,-1,8
 185 727 185 727 219.5 741.5 c 128,-1,9
 254 756 254 756 296 756 c 0,10,11
 325 756 325 756 349 749 c 128,-1,12
 373 742 373 742 391 732 c 1,13,-1
 363 626 l 1,14,15
 352 630 352 630 340 634 c 128,-1,16
 328 638 328 638 314 638 c 0,17,18
 281 638 281 638 264.5 615 c 128,-1,19
 248 592 248 592 248 549 c 2,20,-1
 248 528 l 1,21,-1
 590 528 l 1,22,-1
 590 0 l 1,23,-1
 450 0 l 1,24,-1
 450 418 l 1,25,-1
 248 418 l 1,26,-1
 248 0 l 1,27,-1
 108 0 l 1,0,-1
600 671 m 256,28,29
 600 648 600 648 589.5 630 c 128,-1,30
 579 612 579 612 560.5 601.5 c 128,-1,31
 542 591 542 591 520 591 c 256,32,33
 498 591 498 591 479.5 601.5 c 128,-1,34
 461 612 461 612 450.5 630 c 128,-1,35
 440 648 440 648 440 671 c 256,36,37
 440 694 440 694 450.5 712 c 128,-1,38
 461 730 461 730 479.5 740.5 c 128,-1,39
 498 751 498 751 520 751 c 256,40,41
 542 751 542 751 560.5 740.5 c 128,-1,42
 579 730 579 730 589.5 712 c 128,-1,43
 600 694 600 694 600 671 c 256,28,29
EndSplineSet
Validated: 1
Ligature2: "'liga' Standard Ligatures in Latin lookup 23 subtable" f i
EndChar

StartChar: f_f.liga
Encoding: 65573 -1 212
Width: 752
GlyphClass: 3
Flags: W
LayerCount: 2
Fore
SplineSet
108 0 m 1,0,-1
 108 418 l 1,1,-1
 18 418 l 1,2,-1
 18 528 l 1,3,-1
 108 528 l 1,4,-1
 108 558 l 2,5,6
 108 601 108 601 122.5 637.5 c 128,-1,7
 137 674 137 674 163.5 700.5 c 128,-1,8
 190 727 190 727 226.5 741.5 c 128,-1,9
 263 756 263 756 306 756 c 0,10,11
 339 756 339 756 365.5 748 c 128,-1,12
 392 740 392 740 411 730 c 1,13,-1
 383 623 l 1,14,15
 371 629 371 629 355.5 633.5 c 128,-1,16
 340 638 340 638 326 638 c 0,17,18
 286 638 286 638 267 614.5 c 128,-1,19
 248 591 248 591 248 549 c 2,20,-1
 248 528 l 1,21,-1
 450 528 l 1,22,-1
 450 558 l 2,23,24
 450 601 450 601 464.5 637.5 c 128,-1,25
 479 674 479 674 505.5 700.5 c 128,-1,26
 532 727 532 727 568.5 741.5 c 128,-1,27
 605 756 605 756 648 756 c 0,28,29
 681 756 681 756 707.5 748 c 128,-1,30
 734 740 734 740 753 730 c 1,31,-1
 725 623 l 1,32,33
 713 629 713 629 697.5 633.5 c 128,-1,34
 682 638 682 638 668 638 c 0,35,36
 628 638 628 638 609 614.5 c 128,-1,37
 590 591 590 591 590 549 c 2,38,-1
 590 528 l 1,39,-1
 730 528 l 1,40,-1
 730 418 l 1,41,-1
 590 418 l 1,42,-1
 590 0 l 1,43,-1
 450 0 l 1,44,-1
 450 418 l 1,45,-1
 248 418 l 1,46,-1
 248 0 l 1,47,-1
 108 0 l 1,0,-1
EndSplineSet
Validated: 1
Ligature2: "'liga' Standard Ligatures in Latin lookup 23 subtable" f f
EndChar

StartChar: f_f_i.liga
Encoding: 65574 -1 213
Width: 988
GlyphClass: 3
Flags: W
LayerCount: 2
Fore
SplineSet
108 0 m 1,0,-1
 108 418 l 1,1,-1
 18 418 l 1,2,-1
 18 528 l 1,3,-1
 108 528 l 1,4,-1
 108 558 l 2,5,6
 108 601 108 601 122.5 637.5 c 128,-1,7
 137 674 137 674 163.5 700.5 c 128,-1,8
 190 727 190 727 226.5 741.5 c 128,-1,9
 263 756 263 756 306 756 c 0,10,11
 339 756 339 756 365.5 748 c 128,-1,12
 392 740 392 740 411 730 c 1,13,-1
 383 623 l 1,14,15
 371 629 371 629 355.5 633.5 c 128,-1,16
 340 638 340 638 326 638 c 0,17,18
 286 638 286 638 267 614.5 c 128,-1,19
 248 591 248 591 248 549 c 2,20,-1
 248 528 l 1,21,-1
 450 528 l 1,22,-1
 450 558 l 2,23,24
 450 602 450 602 463.5 638 c 128,-1,25
 477 674 477 674 502 700.5 c 128,-1,26
 527 727 527 727 561.5 741.5 c 128,-1,27
 596 756 596 756 638 756 c 0,28,29
 667 756 667 756 691 749 c 128,-1,30
 715 742 715 742 733 732 c 1,31,-1
 705 626 l 1,32,33
 694 630 694 630 682 634 c 128,-1,34
 670 638 670 638 656 638 c 0,35,36
 623 638 623 638 606.5 615 c 128,-1,37
 590 592 590 592 590 549 c 2,38,-1
 590 528 l 1,39,-1
 932 528 l 1,40,-1
 932 0 l 1,41,-1
 792 0 l 1,42,-1
 792 418 l 1,43,-1
 590 418 l 1,44,-1
 590 0 l 1,45,-1
 450 0 l 1,46,-1
 450 418 l 1,47,-1
 248 418 l 1,48,-1
 248 0 l 1,49,-1
 108 0 l 1,0,-1
942 671 m 256,50,51
 942 648 942 648 931.5 630 c 128,-1,52
 921 612 921 612 902.5 601.5 c 128,-1,53
 884 591 884 591 862 591 c 256,54,55
 840 591 840 591 821.5 601.5 c 128,-1,56
 803 612 803 612 792.5 630 c 128,-1,57
 782 648 782 648 782 671 c 256,58,59
 782 694 782 694 792.5 712 c 128,-1,60
 803 730 803 730 821.5 740.5 c 128,-1,61
 840 751 840 751 862 751 c 256,62,63
 884 751 884 751 902.5 740.5 c 128,-1,64
 921 730 921 730 931.5 712 c 128,-1,65
 942 694 942 694 942 671 c 256,50,51
EndSplineSet
Validated: 1
Ligature2: "'liga' Standard Ligatures in Latin lookup 23 subtable" f f i
EndChar

StartChar: ae.ss01
Encoding: 65575 -1 214
Width: 971
Flags: W
LayerCount: 2
Fore
SplineSet
270 -15 m 0,0,1
 220 -15 220 -15 177.5 6 c 128,-1,2
 135 27 135 27 103.5 64.5 c 128,-1,3
 72 102 72 102 54 152 c 128,-1,4
 36 202 36 202 36 261 c 0,5,6
 36 321 36 321 54.5 372 c 128,-1,7
 73 423 73 423 106 461.5 c 128,-1,8
 139 500 139 500 183 521.5 c 128,-1,9
 227 543 227 543 278 543 c 0,10,11
 330 543 330 543 372 519.5 c 128,-1,12
 414 496 414 496 440 452 c 1,13,-1
 444 528 l 1,14,-1
 549 528 l 1,15,-1
 552 463 l 1,16,17
 581 500 581 500 621 521.5 c 128,-1,18
 661 543 661 543 712 543 c 0,19,20
 761 543 761 543 802.5 523 c 128,-1,21
 844 503 844 503 875 466 c 128,-1,22
 906 429 906 429 923 378 c 128,-1,23
 940 327 940 327 940 264 c 2,24,-1
 940 229 l 1,25,-1
 571 229 l 1,26,27
 580 170 580 170 612.5 136.5 c 128,-1,28
 645 103 645 103 695 103 c 0,29,30
 730 103 730 103 757.5 120 c 128,-1,31
 785 137 785 137 804 169 c 1,32,-1
 929 129 l 1,33,34
 912 84 912 84 878 52 c 128,-1,35
 844 20 844 20 800 2.5 c 128,-1,36
 756 -15 756 -15 708 -15 c 0,37,38
 658 -15 658 -15 619 4 c 128,-1,39
 580 23 580 23 552 58 c 1,40,-1
 549 0 l 1,41,-1
 444 0 l 1,42,-1
 440 84 l 1,43,44
 414 38 414 38 369.5 11.5 c 128,-1,45
 325 -15 325 -15 270 -15 c 0,0,1
687 435 m 256,46,47
 643 435 643 435 613 405 c 128,-1,48
 583 375 583 375 573 323 c 1,49,-1
 796 323 l 1,50,51
 788 375 788 375 759.5 405 c 128,-1,52
 731 435 731 435 687 435 c 256,46,47
307 111 m 256,53,54
 344 111 344 111 372.5 131 c 128,-1,55
 401 151 401 151 418 185.5 c 128,-1,56
 435 220 435 220 435 264 c 256,57,58
 435 308 435 308 418 342.5 c 128,-1,59
 401 377 401 377 372.5 397 c 128,-1,60
 344 417 344 417 307 417 c 256,61,62
 270 417 270 417 241.5 397 c 128,-1,63
 213 377 213 377 196 342.5 c 128,-1,64
 179 308 179 308 179 264 c 256,65,66
 179 220 179 220 196 185.5 c 128,-1,67
 213 151 213 151 241.5 131 c 128,-1,68
 270 111 270 111 307 111 c 256,53,54
EndSplineSet
Validated: 1
EndChar

StartChar: ae
Encoding: 230 230 215
Width: 893
GlyphClass: 2
Flags: W
LayerCount: 2
Fore
SplineSet
232 -15 m 256,0,1
 189 -15 189 -15 152.5 -3 c 128,-1,2
 116 9 116 9 88.5 31.5 c 128,-1,3
 61 54 61 54 46 84.5 c 128,-1,4
 31 115 31 115 31 152 c 0,5,6
 31 200 31 200 57.5 238 c 128,-1,7
 84 276 84 276 132 297.5 c 128,-1,8
 180 319 180 319 243 319 c 0,9,10
 275 319 275 319 303 313 c 128,-1,11
 331 307 331 307 358 296 c 1,12,-1
 358 327 l 2,13,14
 358 372 358 372 334 400 c 128,-1,15
 310 428 310 428 268 428 c 0,16,17
 236 428 236 428 210.5 411.5 c 128,-1,18
 185 395 185 395 175 365 c 1,19,-1
 50 390 l 1,20,21
 60 436 60 436 92 470.5 c 128,-1,22
 124 505 124 505 170 524 c 128,-1,23
 216 543 216 543 270 543 c 0,24,25
 323 543 323 543 365 521 c 128,-1,26
 407 499 407 499 434 460 c 1,27,28
 466 500 466 500 512 521.5 c 128,-1,29
 558 543 558 543 614 543 c 0,30,31
 668 543 668 543 713.5 523 c 128,-1,32
 759 503 759 503 792 466 c 128,-1,33
 825 429 825 429 843.5 378 c 128,-1,34
 862 327 862 327 862 264 c 2,35,-1
 862 229 l 1,36,-1
 493 229 l 1,37,38
 502 170 502 170 534.5 136.5 c 128,-1,39
 567 103 567 103 617 103 c 0,40,41
 652 103 652 103 679.5 120 c 128,-1,42
 707 137 707 137 726 169 c 1,43,-1
 851 129 l 1,44,45
 833 84 833 84 797.5 52 c 128,-1,46
 762 20 762 20 716 2.5 c 128,-1,47
 670 -15 670 -15 618 -15 c 0,48,49
 554 -15 554 -15 502.5 12 c 128,-1,50
 451 39 451 39 418 87 c 1,51,52
 403 55 403 55 375.5 32.5 c 128,-1,53
 348 10 348 10 311.5 -2.5 c 128,-1,54
 275 -15 275 -15 232 -15 c 256,0,1
609 435 m 256,55,56
 565 435 565 435 535 405 c 128,-1,57
 505 375 505 375 495 323 c 1,58,-1
 718 323 l 1,59,60
 710 375 710 375 681.5 405 c 128,-1,61
 653 435 653 435 609 435 c 256,55,56
169 157 m 0,62,63
 169 129 169 129 190 111 c 128,-1,64
 211 93 211 93 248 93 c 0,65,66
 280 93 280 93 305 107 c 128,-1,67
 330 121 330 121 344 145.5 c 128,-1,68
 358 170 358 170 358 200 c 2,69,-1
 358 205 l 1,70,71
 337 214 337 214 313 219.5 c 128,-1,72
 289 225 289 225 266 225 c 0,73,74
 221 225 221 225 195 206.5 c 128,-1,75
 169 188 169 188 169 157 c 0,62,63
EndSplineSet
Validated: 1
Substitution2: "'ss01' Style Set 1 in Latin lookup 14 subtable" ae.ss01
EndChar

StartChar: oe
Encoding: 339 339 216
Width: 980
GlyphClass: 2
Flags: W
LayerCount: 2
Fore
SplineSet
303 -15 m 0,0,1
 247 -15 247 -15 198.5 6 c 128,-1,2
 150 27 150 27 113.5 64.5 c 128,-1,3
 77 102 77 102 56.5 153 c 128,-1,4
 36 204 36 204 36 263 c 0,5,6
 36 323 36 323 56.5 374 c 128,-1,7
 77 425 77 425 114 463 c 128,-1,8
 151 501 151 501 200 522 c 128,-1,9
 249 543 249 543 305 543 c 0,10,11
 367 543 367 543 417 516.5 c 128,-1,12
 467 490 467 490 500 445 c 1,13,14
 535 491 535 491 586 517 c 128,-1,15
 637 543 637 543 701 543 c 0,16,17
 755 543 755 543 800.5 523 c 128,-1,18
 846 503 846 503 879 466 c 128,-1,19
 912 429 912 429 930.5 378 c 128,-1,20
 949 327 949 327 949 264 c 2,21,-1
 949 229 l 1,22,-1
 580 229 l 1,23,24
 589 170 589 170 621.5 136.5 c 128,-1,25
 654 103 654 103 704 103 c 0,26,27
 739 103 739 103 766.5 120 c 128,-1,28
 794 137 794 137 813 169 c 1,29,-1
 938 129 l 1,30,31
 920 84 920 84 884.5 52 c 128,-1,32
 849 20 849 20 802.5 2.5 c 128,-1,33
 756 -15 756 -15 705 -15 c 0,34,35
 639 -15 639 -15 586 11 c 128,-1,36
 533 37 533 37 499 84 c 1,37,38
 465 38 465 38 414.5 11.5 c 128,-1,39
 364 -15 364 -15 303 -15 c 0,0,1
696 435 m 256,40,41
 652 435 652 435 622 405 c 128,-1,42
 592 375 592 375 582 323 c 1,43,-1
 805 323 l 1,44,45
 797 375 797 375 768.5 405 c 128,-1,46
 740 435 740 435 696 435 c 256,40,41
307 111 m 256,47,48
 344 111 344 111 372.5 131 c 128,-1,49
 401 151 401 151 418 185.5 c 128,-1,50
 435 220 435 220 435 264 c 256,51,52
 435 308 435 308 418 342.5 c 128,-1,53
 401 377 401 377 372.5 397 c 128,-1,54
 344 417 344 417 307 417 c 256,55,56
 270 417 270 417 241.5 397 c 128,-1,57
 213 377 213 377 196 342.5 c 128,-1,58
 179 308 179 308 179 264 c 256,59,60
 179 220 179 220 196 185.5 c 128,-1,61
 213 151 213 151 241.5 131 c 128,-1,62
 270 111 270 111 307 111 c 256,47,48
EndSplineSet
Validated: 1
EndChar

StartChar: germandbls
Encoding: 223 223 217
Width: 612
GlyphClass: 2
Flags: W
LayerCount: 2
Fore
SplineSet
340 -10 m 0,0,1
 317 -10 317 -10 292.5 -6.5 c 128,-1,2
 268 -3 268 -3 249 4 c 1,3,-1
 268 123 l 1,4,5
 279 118 279 118 294.5 116 c 128,-1,6
 310 114 310 114 322 114 c 0,7,8
 354 114 354 114 379.5 128 c 128,-1,9
 405 142 405 142 419 166.5 c 128,-1,10
 433 191 433 191 433 223 c 0,11,12
 433 274 433 274 399.5 303.5 c 128,-1,13
 366 333 366 333 310 333 c 2,14,-1
 279 333 l 1,15,-1
 279 449 l 1,16,-1
 300 449 l 2,17,18
 328 449 328 449 349.5 461 c 128,-1,19
 371 473 371 473 384 494 c 128,-1,20
 397 515 397 515 397 541 c 256,21,22
 397 567 397 567 384 588 c 128,-1,23
 371 609 371 609 349.5 621 c 128,-1,24
 328 633 328 633 300 633 c 0,25,26
 270 633 270 633 246.5 619 c 128,-1,27
 223 605 223 605 209.5 578.5 c 128,-1,28
 196 552 196 552 196 514 c 2,29,-1
 196 0 l 1,30,-1
 56 0 l 1,31,-1
 56 513 l 2,32,33
 56 568 56 568 73.5 613 c 128,-1,34
 91 658 91 658 123.5 690.5 c 128,-1,35
 156 723 156 723 201 741 c 128,-1,36
 246 759 246 759 300 759 c 0,37,38
 351 759 351 759 394.5 744 c 128,-1,39
 438 729 438 729 470 701.5 c 128,-1,40
 502 674 502 674 520 637.5 c 128,-1,41
 538 601 538 601 538 558 c 0,42,43
 538 509 538 509 515.5 467.5 c 128,-1,44
 493 426 493 426 454 401 c 1,45,46
 491 388 491 388 518.5 360 c 128,-1,47
 546 332 546 332 561 293.5 c 128,-1,48
 576 255 576 255 576 211 c 0,49,50
 576 164 576 164 558.5 123.5 c 128,-1,51
 541 83 541 83 509 53 c 128,-1,52
 477 23 477 23 434 6.5 c 128,-1,53
 391 -10 391 -10 340 -10 c 0,0,1
EndSplineSet
Validated: 1
EndChar

StartChar: kgreenlandic
Encoding: 312 312 218
Width: 581
GlyphClass: 2
Flags: W
LayerCount: 2
Fore
SplineSet
56 0 m 1,0,-1
 56 528 l 1,1,-1
 193 528 l 1,2,-1
 193 304 l 1,3,-1
 389 528 l 1,4,-1
 553 528 l 1,5,-1
 333 286 l 1,6,-1
 577 0 l 1,7,-1
 400 0 l 1,8,-1
 193 254 l 1,9,-1
 193 0 l 1,10,-1
 56 0 l 1,0,-1
EndSplineSet
Validated: 1
EndChar

StartChar: Eng
Encoding: 330 330 219
Width: 732
GlyphClass: 2
Flags: W
LayerCount: 2
Fore
SplineSet
65 0 m 1,0,-1
 65 710 l 1,1,-1
 194 710 l 1,2,-1
 523 240 l 1,3,-1
 523 710 l 1,4,-1
 667 710 l 1,5,-1
 667 3 l 2,6,7
 667 -62 667 -62 641.5 -109.5 c 128,-1,8
 616 -157 616 -157 571 -183 c 128,-1,9
 526 -209 526 -209 468 -209 c 0,10,11
 428 -209 428 -209 396 -198 c 128,-1,12
 364 -187 364 -187 341 -172 c 1,13,-1
 377 -64 l 1,14,15
 391 -72 391 -72 410.5 -77.5 c 128,-1,16
 430 -83 430 -83 447 -83 c 0,17,18
 480 -83 480 -83 501.5 -60.5 c 128,-1,19
 523 -38 523 -38 523 2 c 2,20,-1
 523 21 l 1,21,-1
 209 470 l 1,22,-1
 209 0 l 1,23,-1
 65 0 l 1,0,-1
EndSplineSet
Validated: 1
EndChar

StartChar: eng
Encoding: 331 331 220
Width: 594
GlyphClass: 2
Flags: W
LayerCount: 2
Fore
SplineSet
56 0 m 1,0,-1
 56 528 l 1,1,-1
 185 528 l 1,2,-1
 189 460 l 1,3,4
 212 498 212 498 252.5 520.5 c 128,-1,5
 293 543 293 543 345 543 c 0,6,7
 403 543 403 543 446.5 515.5 c 128,-1,8
 490 488 490 488 514 437 c 128,-1,9
 538 386 538 386 538 317 c 2,10,-1
 538 -19 l 2,11,12
 538 -74 538 -74 516.5 -116 c 128,-1,13
 495 -158 495 -158 456.5 -181 c 128,-1,14
 418 -204 418 -204 366 -204 c 0,15,16
 339 -204 339 -204 314 -197.5 c 128,-1,17
 289 -191 289 -191 269 -180 c 1,18,-1
 297 -72 l 1,19,20
 306 -76 306 -76 318.5 -79.5 c 128,-1,21
 331 -83 331 -83 342 -83 c 0,22,23
 368 -83 368 -83 383 -64 c 128,-1,24
 398 -45 398 -45 398 -10 c 2,25,-1
 398 298 l 2,26,27
 398 354 398 354 373 385 c 128,-1,28
 348 416 348 416 304 416 c 0,29,30
 272 416 272 416 248 401 c 128,-1,31
 224 386 224 386 210 360.5 c 128,-1,32
 196 335 196 335 196 302 c 2,33,-1
 196 0 l 1,34,-1
 56 0 l 1,0,-1
EndSplineSet
Validated: 1
EndChar

StartChar: Eth
Encoding: 208 208 221
Width: 769
GlyphClass: 2
Flags: W
LayerCount: 2
Fore
SplineSet
75 0 m 1,0,-1
 75 308 l 1,1,-1
 -3 308 l 1,2,-1
 -3 422 l 1,3,-1
 75 422 l 1,4,-1
 75 710 l 1,5,-1
 351 710 l 2,6,7
 435 710 435 710 504 684.5 c 128,-1,8
 573 659 573 659 623 612 c 128,-1,9
 673 565 673 565 700 500 c 128,-1,10
 727 435 727 435 727 356 c 256,11,12
 727 277 727 277 699.5 211.5 c 128,-1,13
 672 146 672 146 622 98.5 c 128,-1,14
 572 51 572 51 502.5 25.5 c 128,-1,15
 433 0 433 0 349 0 c 2,16,-1
 75 0 l 1,0,-1
224 132 m 1,17,-1
 342 132 l 2,18,19
 413 132 413 132 465 159 c 128,-1,20
 517 186 517 186 545 236 c 128,-1,21
 573 286 573 286 573 355 c 256,22,23
 573 424 573 424 545 474 c 128,-1,24
 517 524 517 524 465 551 c 128,-1,25
 413 578 413 578 342 578 c 2,26,-1
 224 578 l 1,27,-1
 224 422 l 1,28,-1
 366 422 l 1,29,-1
 366 308 l 1,30,-1
 224 308 l 1,31,-1
 224 132 l 1,17,-1
EndSplineSet
Validated: 1
Position2: "'case' Case-Sensitive Forms in Latin lookup 0 subtable" dx=10 dy=0 dh=20 dv=0
EndChar

StartChar: Hbar
Encoding: 294 294 223
Width: 763
GlyphClass: 2
Flags: W
LayerCount: 2
Fore
SplineSet
75 0 m 1,0,-1
 75 525 l 1,1,-1
 -3 525 l 1,2,-1
 -3 627 l 1,3,-1
 75 627 l 1,4,-1
 75 710 l 1,5,-1
 224 710 l 1,6,-1
 224 627 l 1,7,-1
 538 627 l 1,8,-1
 538 710 l 1,9,-1
 687 710 l 1,10,-1
 687 627 l 1,11,-1
 766 627 l 1,12,-1
 766 525 l 1,13,-1
 687 525 l 1,14,-1
 687 0 l 1,15,-1
 538 0 l 1,16,-1
 538 291 l 1,17,-1
 224 291 l 1,18,-1
 224 0 l 1,19,-1
 75 0 l 1,0,-1
224 423 m 1,20,-1
 538 423 l 1,21,-1
 538 525 l 1,22,-1
 224 525 l 1,23,-1
 224 423 l 1,20,-1
EndSplineSet
Validated: 1
Position2: "'case' Case-Sensitive Forms in Latin lookup 0 subtable" dx=10 dy=0 dh=20 dv=0
EndChar

StartChar: Tbar
Encoding: 358 358 224
Width: 631
GlyphClass: 2
Flags: W
LayerCount: 2
Fore
SplineSet
241 0 m 1,0,-1
 241 270 l 1,1,-1
 118 270 l 1,2,-1
 118 384 l 1,3,-1
 241 384 l 1,4,-1
 241 578 l 1,5,-1
 41 578 l 1,6,-1
 41 710 l 1,7,-1
 590 710 l 1,8,-1
 590 578 l 1,9,-1
 390 578 l 1,10,-1
 390 384 l 1,11,-1
 513 384 l 1,12,-1
 513 270 l 1,13,-1
 390 270 l 1,14,-1
 390 0 l 1,15,-1
 241 0 l 1,0,-1
EndSplineSet
Validated: 1
Position2: "'case' Case-Sensitive Forms in Latin lookup 0 subtable" dx=10 dy=0 dh=20 dv=0
EndChar

StartChar: Lslash
Encoding: 321 321 225
Width: 554
GlyphClass: 2
Flags: W
LayerCount: 2
Fore
SplineSet
75 0 m 1,0,-1
 75 215 l 1,1,-1
 -3 158 l 1,2,-1
 -3 291 l 1,3,-1
 75 348 l 1,4,-1
 75 710 l 1,5,-1
 224 710 l 1,6,-1
 224 457 l 1,7,-1
 348 547 l 1,8,-1
 348 414 l 1,9,-1
 224 324 l 1,10,-1
 224 132 l 1,11,-1
 514 132 l 1,12,-1
 514 0 l 1,13,-1
 75 0 l 1,0,-1
EndSplineSet
Validated: 1
Position2: "'case' Case-Sensitive Forms in Latin lookup 0 subtable" dx=10 dy=0 dh=20 dv=0
EndChar

StartChar: Oslash
Encoding: 216 216 226
Width: 820
GlyphClass: 2
Flags: W
LayerCount: 2
Fore
SplineSet
190 -35 m 1,0,-1
 52 -35 l 1,1,-1
 145 90 l 1,2,3
 97 140 97 140 69.5 208 c 128,-1,4
 42 276 42 276 42 354 c 0,5,6
 42 418 42 418 60 475.5 c 128,-1,7
 78 533 78 533 111 579.5 c 128,-1,8
 144 626 144 626 189.5 659.5 c 128,-1,9
 235 693 235 693 291 711.5 c 128,-1,10
 347 730 347 730 411 730 c 0,11,12
 459 730 459 730 503.5 719 c 128,-1,13
 548 708 548 708 587 687 c 1,14,-1
 630 745 l 1,15,-1
 768 745 l 1,16,-1
 675 620 l 1,17,18
 723 570 723 570 750.5 502 c 128,-1,19
 778 434 778 434 778 356 c 0,20,21
 778 292 778 292 760 234.5 c 128,-1,22
 742 177 742 177 709 130.5 c 128,-1,23
 676 84 676 84 630.5 50.5 c 128,-1,24
 585 17 585 17 529 -1.5 c 128,-1,25
 473 -20 473 -20 409 -20 c 0,26,27
 361 -20 361 -20 316.5 -9 c 128,-1,28
 272 2 272 2 233 23 c 1,29,-1
 190 -35 l 1,0,-1
191 355 m 0,30,31
 191 312 191 312 201.5 274.5 c 128,-1,32
 212 237 212 237 232 207 c 1,33,-1
 505 577 l 1,34,35
 462 598 462 598 410 598 c 0,36,37
 362 598 362 598 322 580 c 128,-1,38
 282 562 282 562 252.5 529.5 c 128,-1,39
 223 497 223 497 207 452.5 c 128,-1,40
 191 408 191 408 191 355 c 0,30,31
410 112 m 0,41,42
 458 112 458 112 498 130 c 128,-1,43
 538 148 538 148 567.5 180.5 c 128,-1,44
 597 213 597 213 613 257.5 c 128,-1,45
 629 302 629 302 629 355 c 0,46,47
 629 398 629 398 618.5 435.5 c 128,-1,48
 608 473 608 473 589 503 c 1,49,-1
 315 133 l 1,50,51
 358 112 358 112 410 112 c 0,41,42
EndSplineSet
Validated: 1
Position2: "'case' Case-Sensitive Forms in Latin lookup 0 subtable" dx=10 dy=0 dh=20 dv=0
EndChar

StartChar: eth
Encoding: 240 240 227
Width: 637
GlyphClass: 2
Flags: W
LayerCount: 2
Fore
SplineSet
310 -15 m 0,0,1
 250 -15 250 -15 200 5 c 128,-1,2
 150 25 150 25 113 61.5 c 128,-1,3
 76 98 76 98 56 147 c 128,-1,4
 36 196 36 196 36 254 c 0,5,6
 36 311 36 311 55.5 360 c 128,-1,7
 75 409 75 409 109 446 c 128,-1,8
 143 483 143 483 188 503.5 c 128,-1,9
 233 524 233 524 285 524 c 0,10,11
 328 524 328 524 363.5 509 c 128,-1,12
 399 494 399 494 424 467 c 1,13,14
 393 536 393 536 340 602 c 1,15,-1
 245 558 l 1,16,-1
 208 636 l 1,17,-1
 280 670 l 1,18,19
 247 701 247 701 213 727 c 1,20,-1
 350 761 l 1,21,22
 373 744 373 744 395 724 c 1,23,-1
 484 765 l 1,24,-1
 521 687 l 1,25,-1
 457 657 l 1,26,27
 498 605 498 605 527.5 544.5 c 128,-1,28
 557 484 557 484 573 421 c 128,-1,29
 589 358 589 358 589 296 c 0,30,31
 589 226 589 226 568.5 168.5 c 128,-1,32
 548 111 548 111 511 70 c 128,-1,33
 474 29 474 29 423 7 c 128,-1,34
 372 -15 372 -15 310 -15 c 0,0,1
313 111 m 256,35,36
 352 111 352 111 382 130.5 c 128,-1,37
 412 150 412 150 429 183.5 c 128,-1,38
 446 217 446 217 446 260 c 0,39,40
 446 302 446 302 429 335.5 c 128,-1,41
 412 369 412 369 382 388 c 128,-1,42
 352 407 352 407 313 407 c 256,43,44
 274 407 274 407 244 388 c 128,-1,45
 214 369 214 369 196.5 335.5 c 128,-1,46
 179 302 179 302 179 260 c 0,47,48
 179 217 179 217 196.5 183.5 c 128,-1,49
 214 150 214 150 244 130.5 c 128,-1,50
 274 111 274 111 313 111 c 256,35,36
EndSplineSet
Validated: 1
EndChar

StartChar: dcroat
Encoding: 273 273 228
Width: 639
GlyphClass: 2
Flags: W
LayerCount: 2
Fore
SplineSet
278 -15 m 0,0,1
 227 -15 227 -15 183 5.5 c 128,-1,2
 139 26 139 26 106 63.5 c 128,-1,3
 73 101 73 101 54.5 150.5 c 128,-1,4
 36 200 36 200 36 259 c 256,5,6
 36 318 36 318 55 368.5 c 128,-1,7
 74 419 74 419 108 457 c 128,-1,8
 142 495 142 495 187.5 516.5 c 128,-1,9
 233 538 233 538 286 538 c 0,10,11
 335 538 335 538 375.5 519 c 128,-1,12
 416 500 416 500 443 464 c 1,13,-1
 443 588 l 1,14,-1
 309 588 l 1,15,-1
 309 680 l 1,16,-1
 443 680 l 1,17,-1
 443 746 l 1,18,-1
 583 746 l 1,19,-1
 583 680 l 1,20,-1
 653 680 l 1,21,-1
 653 588 l 1,22,-1
 583 588 l 1,23,-1
 583 0 l 1,24,-1
 454 0 l 1,25,-1
 450 77 l 1,26,27
 423 34 423 34 378 9.5 c 128,-1,28
 333 -15 333 -15 278 -15 c 0,0,1
312 111 m 256,29,30
 350 111 350 111 380 130.5 c 128,-1,31
 410 150 410 150 427.5 184 c 128,-1,32
 445 218 445 218 445 261 c 256,33,34
 445 304 445 304 427.5 338.5 c 128,-1,35
 410 373 410 373 380 392.5 c 128,-1,36
 350 412 350 412 312 412 c 256,37,38
 274 412 274 412 244 392.5 c 128,-1,39
 214 373 214 373 196.5 338.5 c 128,-1,40
 179 304 179 304 179 261 c 256,41,42
 179 218 179 218 196.5 184 c 128,-1,43
 214 150 214 150 244 130.5 c 128,-1,44
 274 111 274 111 312 111 c 256,29,30
EndSplineSet
Validated: 1
EndChar

StartChar: hbar
Encoding: 295 295 229
Width: 594
GlyphClass: 2
Flags: W
LayerCount: 2
Fore
SplineSet
56 0 m 1,0,-1
 56 588 l 1,1,-1
 -14 588 l 1,2,-1
 -14 680 l 1,3,-1
 56 680 l 1,4,-1
 56 746 l 1,5,-1
 196 746 l 1,6,-1
 196 680 l 1,7,-1
 330 680 l 1,8,-1
 330 588 l 1,9,-1
 196 588 l 1,10,-1
 196 465 l 1,11,12
 220 499 220 499 258 518.5 c 128,-1,13
 296 538 296 538 345 538 c 0,14,15
 403 538 403 538 446.5 510 c 128,-1,16
 490 482 490 482 514 431.5 c 128,-1,17
 538 381 538 381 538 312 c 2,18,-1
 538 0 l 1,19,-1
 398 0 l 1,20,-1
 398 293 l 2,21,22
 398 348 398 348 373 379.5 c 128,-1,23
 348 411 348 411 304 411 c 0,24,25
 272 411 272 411 248 396.5 c 128,-1,26
 224 382 224 382 210 356 c 128,-1,27
 196 330 196 330 196 297 c 2,28,-1
 196 0 l 1,29,-1
 56 0 l 1,0,-1
EndSplineSet
Validated: 1
EndChar

StartChar: tbar
Encoding: 359 359 230
Width: 438
GlyphClass: 2
Flags: W
LayerCount: 2
Fore
SplineSet
28 231 m 1,0,-1
 28 323 l 1,1,-1
 108 323 l 1,2,-1
 108 415 l 1,3,-1
 18 415 l 1,4,-1
 18 528 l 1,5,-1
 108 528 l 1,6,-1
 108 708 l 1,7,-1
 248 708 l 1,8,-1
 248 528 l 1,9,-1
 392 528 l 1,10,-1
 392 415 l 1,11,-1
 248 415 l 1,12,-1
 248 323 l 1,13,-1
 382 323 l 1,14,-1
 382 231 l 1,15,-1
 248 231 l 1,16,-1
 248 186 l 2,17,18
 248 148 248 148 264 127.5 c 128,-1,19
 280 107 280 107 313 107 c 0,20,21
 330 107 330 107 349.5 112 c 128,-1,22
 369 117 369 117 387 125 c 1,23,-1
 412 20 l 1,24,25
 386 4 386 4 354 -5.5 c 128,-1,26
 322 -15 322 -15 285 -15 c 0,27,28
 230 -15 230 -15 190.5 6.5 c 128,-1,29
 151 28 151 28 129.5 69 c 128,-1,30
 108 110 108 110 108 169 c 2,31,-1
 108 231 l 1,32,-1
 28 231 l 1,0,-1
EndSplineSet
Validated: 1
EndChar

StartChar: lslash
Encoding: 322 322 231
Width: 295
GlyphClass: 2
Flags: W
LayerCount: 2
Fore
SplineSet
78 0 m 1,0,-1
 78 259 l 1,1,-1
 6 205 l 1,2,-1
 6 325 l 1,3,-1
 78 379 l 1,4,-1
 78 746 l 1,5,-1
 218 746 l 1,6,-1
 218 484 l 1,7,-1
 289 537 l 1,8,-1
 289 417 l 1,9,-1
 218 364 l 1,10,-1
 218 0 l 1,11,-1
 78 0 l 1,0,-1
EndSplineSet
Validated: 1
EndChar

StartChar: oslash
Encoding: 248 248 232
Width: 624
GlyphClass: 2
Flags: W
LayerCount: 2
Fore
SplineSet
157 -25 m 1,0,-1
 43 -25 l 1,1,-1
 112 69 l 1,2,3
 77 107 77 107 56.5 157 c 128,-1,4
 36 207 36 207 36 264 c 0,5,6
 36 324 36 324 57 374.5 c 128,-1,7
 78 425 78 425 115.5 463 c 128,-1,8
 153 501 153 501 203.5 522 c 128,-1,9
 254 543 254 543 314 543 c 0,10,11
 348 543 348 543 379 535.5 c 128,-1,12
 410 528 410 528 438 514 c 1,13,-1
 467 553 l 1,14,-1
 581 553 l 1,15,-1
 512 459 l 1,16,17
 548 422 548 422 568 372 c 128,-1,18
 588 322 588 322 588 265 c 0,19,20
 588 205 588 205 567 154 c 128,-1,21
 546 103 546 103 508.5 65 c 128,-1,22
 471 27 471 27 420.5 6 c 128,-1,23
 370 -15 370 -15 310 -15 c 0,24,25
 276 -15 276 -15 245 -7.5 c 128,-1,26
 214 0 214 0 186 14 c 1,27,-1
 157 -25 l 1,0,-1
174 264 m 0,28,29
 174 240 174 240 179 219 c 128,-1,30
 184 198 184 198 193 180 c 1,31,-1
 363 412 l 1,32,33
 339 422 339 422 312 422 c 0,34,35
 272 422 272 422 241 401.5 c 128,-1,36
 210 381 210 381 192 345.5 c 128,-1,37
 174 310 174 310 174 264 c 0,28,29
312 106 m 0,38,39
 352 106 352 106 383 126.5 c 128,-1,40
 414 147 414 147 432 183 c 128,-1,41
 450 219 450 219 450 264 c 0,42,43
 450 288 450 288 445 309 c 128,-1,44
 440 330 440 330 431 348 c 1,45,-1
 261 116 l 1,46,47
 285 106 285 106 312 106 c 0,38,39
EndSplineSet
Validated: 1
EndChar

StartChar: uni0327
Encoding: 807 807 233
Width: 0
GlyphClass: 4
Flags: W
AnchorPoint: "Anchor-0" 0 -50 mark 0
LayerCount: 2
Fore
SplineSet
-37 11 m 1,0,-1
 50 11 l 1,1,-1
 33 -41 l 1,2,3
 65 -51 65 -51 83.5 -73.5 c 128,-1,4
 102 -96 102 -96 102 -126 c 256,5,6
 102 -156 102 -156 84.5 -178.5 c 128,-1,7
 67 -201 67 -201 35.5 -213.5 c 128,-1,8
 4 -226 4 -226 -36 -226 c 0,9,10
 -79 -226 -79 -226 -118 -211 c 1,11,-1
 -104 -137 l 1,12,13
 -89 -142 -89 -142 -75.5 -144.5 c 128,-1,14
 -62 -147 -62 -147 -52 -147 c 0,15,16
 -32 -147 -32 -147 -19.5 -138.5 c 128,-1,17
 -7 -130 -7 -130 -7 -116 c 0,18,19
 -7 -83 -7 -83 -70 -83 c 1,20,-1
 -37 11 l 1,0,-1
EndSplineSet
Validated: 1
EndChar

StartChar: glyph234
Encoding: 65576 -1 234
Width: 0
GlyphClass: 4
Flags: W
AnchorPoint: "Anchor-1" 0 -50 mark 0
LayerCount: 2
Fore
SplineSet
-37 9 m 1,0,-1
 54 9 l 1,1,-1
 36 -47 l 1,2,3
 67 -57 67 -57 86 -81 c 128,-1,4
 105 -105 105 -105 105 -135 c 256,5,6
 105 -165 105 -165 87.5 -188.5 c 128,-1,7
 70 -212 70 -212 38 -225 c 128,-1,8
 6 -238 6 -238 -35 -238 c 0,9,10
 -58 -238 -58 -238 -79.5 -234 c 128,-1,11
 -101 -230 -101 -230 -122 -222 c 1,12,-1
 -107 -145 l 1,13,14
 -93 -150 -93 -150 -79 -152.5 c 128,-1,15
 -65 -155 -65 -155 -54 -155 c 0,16,17
 -33 -155 -33 -155 -21 -146.5 c 128,-1,18
 -9 -138 -9 -138 -9 -124 c 0,19,20
 -9 -108 -9 -108 -25 -99.5 c 128,-1,21
 -41 -91 -41 -91 -72 -91 c 1,22,-1
 -37 9 l 1,0,-1
EndSplineSet
Validated: 1
EndChar

StartChar: uni0326
Encoding: 806 806 236
Width: 0
GlyphClass: 4
Flags: W
AnchorPoint: "Anchor-0" 0 -50 mark 0
LayerCount: 2
Fore
SplineSet
-33 -267 m 1,0,-1
 -56 -210 l 1,1,2
 -35 -202 -35 -202 -20.5 -189 c 128,-1,3
 -6 -176 -6 -176 -1 -161 c 1,4,5
 -9 -165 -9 -165 -19 -165 c 0,6,7
 -42 -165 -42 -165 -57 -149.5 c 128,-1,8
 -72 -134 -72 -134 -72 -111 c 0,9,10
 -72 -86 -72 -86 -53 -69.5 c 128,-1,11
 -34 -53 -34 -53 -6 -53 c 0,12,13
 17 -53 17 -53 35 -64 c 128,-1,14
 53 -75 53 -75 63 -94.5 c 128,-1,15
 73 -114 73 -114 73 -138 c 0,16,17
 73 -182 73 -182 44.5 -216 c 128,-1,18
 16 -250 16 -250 -33 -267 c 1,0,-1
EndSplineSet
Validated: 1
EndChar

StartChar: glyph237
Encoding: 65577 -1 237
Width: 0
GlyphClass: 4
Flags: W
AnchorPoint: "Anchor-1" 0 -50 mark 0
LayerCount: 2
Fore
SplineSet
-35 -278 m 1,0,-1
 -58 -221 l 1,1,2
 -35 -212 -35 -212 -20 -199 c 128,-1,3
 -5 -186 -5 -186 -1 -172 c 1,4,5
 -9 -176 -9 -176 -20 -176 c 0,6,7
 -43 -176 -43 -176 -59 -160 c 128,-1,8
 -75 -144 -75 -144 -75 -121 c 0,9,10
 -75 -95 -75 -95 -55 -78 c 128,-1,11
 -35 -61 -35 -61 -6 -61 c 0,12,13
 18 -61 18 -61 36 -72.5 c 128,-1,14
 54 -84 54 -84 64.5 -103 c 128,-1,15
 75 -122 75 -122 75 -147 c 0,16,17
 75 -191 75 -191 46 -226.5 c 128,-1,18
 17 -262 17 -262 -35 -278 c 1,0,-1
EndSplineSet
Validated: 1
EndChar

StartChar: uni0312
Encoding: 786 786 238
Width: 0
GlyphClass: 4
Flags: W
AnchorPoint: "Anchor-10" 0 562 mark 0
AnchorPoint: "Anchor-6" 0 562 mark 0
LayerCount: 2
Fore
SplineSet
7 581 m 0,0,1
 -16 581 -16 581 -34 592 c 128,-1,2
 -52 603 -52 603 -62 622.5 c 128,-1,3
 -72 642 -72 642 -72 666 c 0,4,5
 -72 710 -72 710 -44 744 c 128,-1,6
 -16 778 -16 778 34 795 c 1,7,-1
 57 738 l 1,8,9
 36 730 36 730 21.5 717 c 128,-1,10
 7 704 7 704 2 689 c 1,11,12
 10 693 10 693 20 693 c 0,13,14
 42 693 42 693 57.5 677.5 c 128,-1,15
 73 662 73 662 73 639 c 0,16,17
 73 614 73 614 54.5 597.5 c 128,-1,18
 36 581 36 581 7 581 c 0,0,1
EndSplineSet
Validated: 1
EndChar

StartChar: uni0328
Encoding: 808 808 239
Width: 0
GlyphClass: 4
Flags: W
AnchorPoint: "Anchor-2" 0 -50 mark 0
LayerCount: 2
Fore
SplineSet
-80 -223 m 0,0,1
 -133 -223 -133 -223 -164.5 -198.5 c 128,-1,2
 -196 -174 -196 -174 -196 -133 c 0,3,4
 -196 -96 -196 -96 -166 -57 c 128,-1,5
 -136 -18 -136 -18 -72 25 c 1,6,-1
 0 0 l 1,7,8
 -46 -34 -46 -34 -66.5 -58.5 c 128,-1,9
 -87 -83 -87 -83 -87 -100 c 0,10,11
 -87 -114 -87 -114 -76.5 -122.5 c 128,-1,12
 -66 -131 -66 -131 -49 -131 c 0,13,14
 -37 -131 -37 -131 -24 -128.5 c 128,-1,15
 -11 -126 -11 -126 -3 -122 c 1,16,-1
 9 -205 l 1,17,18
 -33 -223 -33 -223 -80 -223 c 0,0,1
EndSplineSet
Validated: 1
EndChar

StartChar: glyph240
Encoding: 65578 -1 240
Width: 0
GlyphClass: 4
Flags: W
AnchorPoint: "Anchor-4" 0 -50 mark 0
LayerCount: 2
Fore
SplineSet
-82 -226 m 0,0,1
 -136 -226 -136 -226 -168 -201 c 128,-1,2
 -200 -176 -200 -176 -200 -135 c 0,3,4
 -200 -96 -200 -96 -170 -57 c 128,-1,5
 -140 -18 -140 -18 -76 25 c 1,6,-1
 0 0 l 1,7,8
 -46 -34 -46 -34 -66.5 -58.5 c 128,-1,9
 -87 -83 -87 -83 -87 -100 c 0,10,11
 -87 -114 -87 -114 -76.5 -122.5 c 128,-1,12
 -66 -131 -66 -131 -49 -131 c 0,13,14
 -38 -131 -38 -131 -25 -128.5 c 128,-1,15
 -12 -126 -12 -126 -3 -122 c 1,16,-1
 9 -209 l 1,17,18
 -15 -217 -15 -217 -37.5 -221.5 c 128,-1,19
 -60 -226 -60 -226 -82 -226 c 0,0,1
EndSplineSet
Validated: 1
EndChar

StartChar: glyph241
Encoding: 65579 -1 241
Width: 0
GlyphClass: 4
Flags: W
AnchorPoint: "Anchor-3" 0 -50 mark 0
LayerCount: 2
Fore
SplineSet
-77 -223 m 0,0,1
 -132 -223 -132 -223 -164 -197.5 c 128,-1,2
 -196 -172 -196 -172 -196 -130 c 0,3,4
 -196 -90 -196 -90 -166 -48.5 c 128,-1,5
 -136 -7 -136 -7 -71 40 c 1,6,-1
 14 54 l 1,7,8
 -39 2 -39 2 -63 -33 c 128,-1,9
 -87 -68 -87 -68 -87 -93 c 0,10,11
 -87 -111 -87 -111 -76 -121 c 128,-1,12
 -65 -131 -65 -131 -45 -131 c 0,13,14
 -34 -131 -34 -131 -22.5 -128.5 c 128,-1,15
 -11 -126 -11 -126 -3 -122 c 1,16,-1
 9 -205 l 1,17,18
 -33 -223 -33 -223 -77 -223 c 0,0,1
EndSplineSet
Validated: 1
EndChar

StartChar: glyph242
Encoding: 65580 -1 242
Width: 0
GlyphClass: 4
Flags: W
AnchorPoint: "Anchor-5" 0 -50 mark 0
LayerCount: 2
Fore
SplineSet
-81 -226 m 0,0,1
 -136 -226 -136 -226 -168 -200 c 128,-1,2
 -200 -174 -200 -174 -200 -131 c 0,3,4
 -200 -90 -200 -90 -169 -47.5 c 128,-1,5
 -138 -5 -138 -5 -74 44 c 1,6,-1
 14 58 l 1,7,8
 -38 7 -38 7 -62.5 -30 c 128,-1,9
 -87 -67 -87 -67 -87 -93 c 0,10,11
 -87 -110 -87 -110 -76.5 -120.5 c 128,-1,12
 -66 -131 -66 -131 -48 -131 c 0,13,14
 -37 -131 -37 -131 -24.5 -128.5 c 128,-1,15
 -12 -126 -12 -126 -3 -122 c 1,16,-1
 9 -209 l 1,17,18
 -14 -217 -14 -217 -36 -221.5 c 128,-1,19
 -58 -226 -58 -226 -81 -226 c 0,0,1
EndSplineSet
Validated: 1
EndChar

StartChar: acutecomb
Encoding: 769 769 269
Width: 0
GlyphClass: 4
Flags: W
AnchorPoint: "Anchor-10" 0 562 mark 0
AnchorPoint: "Anchor-6" 0 562 mark 0
LayerCount: 2
Fore
SplineSet
-95 603 m 1,0,-1
 19 746 l 1,1,-1
 175 746 l 1,2,-1
 37 603 l 1,3,-1
 -95 603 l 1,0,-1
EndSplineSet
Validated: 1
EndChar

StartChar: glyph270
Encoding: 65582 -1 270
Width: 0
GlyphClass: 4
Flags: W
AnchorPoint: "Anchor-11" 0 760 mark 0
AnchorPoint: "Anchor-7" 0 760 mark 0
LayerCount: 2
Fore
SplineSet
-113 784 m 1,0,-1
 25 917 l 1,1,-1
 201 917 l 1,2,-1
 32 784 l 1,3,-1
 -113 784 l 1,0,-1
EndSplineSet
Validated: 1
EndChar

StartChar: uni030B
Encoding: 779 779 272
Width: 0
GlyphClass: 4
Flags: W
AnchorPoint: "Anchor-10" 0 562 mark 0
AnchorPoint: "Anchor-6" 0 562 mark 0
LayerCount: 2
Fore
SplineSet
-160 603 m 1,0,-1
 -63 746 l 1,1,-1
 69 746 l 1,2,-1
 -52 603 l 1,3,-1
 -160 603 l 1,0,-1
25 603 m 1,4,-1
 122 746 l 1,5,-1
 254 746 l 1,6,-1
 133 603 l 1,7,-1
 25 603 l 1,4,-1
EndSplineSet
Validated: 1
EndChar

StartChar: glyph273
Encoding: 65583 -1 273
Width: 0
GlyphClass: 4
Flags: W
AnchorPoint: "Anchor-11" 0 760 mark 0
AnchorPoint: "Anchor-7" 0 760 mark 0
LayerCount: 2
Fore
SplineSet
-211 784 m 1,0,-1
 -76 917 l 1,1,-1
 86 917 l 1,2,-1
 -80 784 l 1,3,-1
 -211 784 l 1,0,-1
16 784 m 1,4,-1
 151 917 l 1,5,-1
 313 917 l 1,6,-1
 147 784 l 1,7,-1
 16 784 l 1,4,-1
EndSplineSet
Validated: 1
EndChar

StartChar: gravecomb
Encoding: 768 768 308
Width: 0
GlyphClass: 4
Flags: W
AnchorPoint: "Anchor-10" 0 562 mark 0
AnchorPoint: "Anchor-6" 0 562 mark 0
LayerCount: 2
Fore
SplineSet
-37 603 m 1,0,-1
 -175 746 l 1,1,-1
 -19 746 l 1,2,-1
 95 603 l 1,3,-1
 -37 603 l 1,0,-1
EndSplineSet
Validated: 1
EndChar

StartChar: glyph309
Encoding: 65587 -1 309
Width: 0
GlyphClass: 4
Flags: W
AnchorPoint: "Anchor-11" 0 760 mark 0
AnchorPoint: "Anchor-7" 0 760 mark 0
LayerCount: 2
Fore
SplineSet
-32 784 m 1,0,-1
 -201 917 l 1,1,-1
 -25 917 l 1,2,-1
 113 784 l 1,3,-1
 -32 784 l 1,0,-1
EndSplineSet
Validated: 1
EndChar

StartChar: uni0302
Encoding: 770 770 327
Width: 0
GlyphClass: 4
Flags: W
AnchorPoint: "Anchor-10" 0 562 mark 0
AnchorPoint: "Anchor-6" 0 562 mark 0
LayerCount: 2
Fore
SplineSet
-188 603 m 1,0,-1
 -55 746 l 1,1,-1
 56 746 l 1,2,-1
 189 603 l 1,3,-1
 65 603 l 1,4,-1
 -1 665 l 1,5,-1
 -68 603 l 1,6,-1
 -188 603 l 1,0,-1
EndSplineSet
Validated: 1
EndChar

StartChar: glyph328
Encoding: 65589 -1 328
Width: 0
GlyphClass: 4
Flags: W
AnchorPoint: "Anchor-11" 0 760 mark 0
AnchorPoint: "Anchor-7" 0 760 mark 0
LayerCount: 2
Fore
SplineSet
-214 784 m 1,0,-1
 -67 917 l 1,1,-1
 68 917 l 1,2,-1
 215 784 l 1,3,-1
 73 784 l 1,4,-1
 -1 843 l 1,5,-1
 -76 784 l 1,6,-1
 -214 784 l 1,0,-1
EndSplineSet
Validated: 1
EndChar

StartChar: tildecomb
Encoding: 771 771 330
Width: 0
GlyphClass: 4
Flags: W
AnchorPoint: "Anchor-10" 0 562 mark 0
AnchorPoint: "Anchor-6" 0 562 mark 0
LayerCount: 2
Fore
SplineSet
66 599 m 0,0,1
 44 599 44 599 27 606 c 128,-1,2
 10 613 10 613 -4.5 622.5 c 128,-1,3
 -19 632 -19 632 -31 639 c 128,-1,4
 -43 646 -43 646 -54 646 c 0,5,6
 -66 646 -66 646 -75 635 c 128,-1,7
 -84 624 -84 624 -87 604 c 1,8,-1
 -174 604 l 1,9,10
 -167 670 -167 670 -138 707 c 128,-1,11
 -109 744 -109 744 -65 744 c 0,12,13
 -43 744 -43 744 -26 737 c 128,-1,14
 -9 730 -9 730 5.5 720.5 c 128,-1,15
 20 711 20 711 32 704 c 128,-1,16
 44 697 44 697 55 697 c 0,17,18
 67 697 67 697 76 708 c 128,-1,19
 85 719 85 719 88 739 c 1,20,-1
 175 739 l 1,21,22
 168 673 168 673 139 636 c 128,-1,23
 110 599 110 599 66 599 c 0,0,1
EndSplineSet
Validated: 1
EndChar

StartChar: glyph331
Encoding: 65590 -1 331
Width: 0
GlyphClass: 4
Flags: W
AnchorPoint: "Anchor-11" 0 760 mark 0
AnchorPoint: "Anchor-7" 0 760 mark 0
LayerCount: 2
Fore
SplineSet
73 780 m 0,0,1
 48 780 48 780 28.5 787.5 c 128,-1,2
 9 795 9 795 -7 805 c 128,-1,3
 -23 815 -23 815 -37 822.5 c 128,-1,4
 -51 830 -51 830 -65 830 c 0,5,6
 -81 830 -81 830 -91 818.5 c 128,-1,7
 -101 807 -101 807 -105 786 c 1,8,-1
 -197 786 l 1,9,10
 -192 830 -192 830 -175 863 c 128,-1,11
 -158 896 -158 896 -131.5 913.5 c 128,-1,12
 -105 931 -105 931 -71 931 c 0,13,14
 -47 931 -47 931 -27.5 923.5 c 128,-1,15
 -8 916 -8 916 8 906 c 128,-1,16
 24 896 24 896 38 888.5 c 128,-1,17
 52 881 52 881 66 881 c 0,18,19
 81 881 81 881 91.5 892.5 c 128,-1,20
 102 904 102 904 106 925 c 1,21,-1
 198 925 l 1,22,23
 194 880 194 880 177 847.5 c 128,-1,24
 160 815 160 815 133.5 797.5 c 128,-1,25
 107 780 107 780 73 780 c 0,0,1
EndSplineSet
Validated: 1
EndChar

StartChar: uni030C
Encoding: 780 780 359
Width: 0
GlyphClass: 4
Flags: W
AnchorPoint: "Anchor-10" 0 562 mark 0
AnchorPoint: "Anchor-6" 0 562 mark 0
LayerCount: 2
Fore
SplineSet
-55 603 m 1,0,-1
 -188 746 l 1,1,-1
 -64 746 l 1,2,-1
 2 684 l 1,3,-1
 69 746 l 1,4,-1
 189 746 l 1,5,-1
 56 603 l 1,6,-1
 -55 603 l 1,0,-1
EndSplineSet
Validated: 1
EndChar

StartChar: glyph360
Encoding: 65593 -1 360
Width: 0
GlyphClass: 4
Flags: W
AnchorPoint: "Anchor-11" 0 760 mark 0
AnchorPoint: "Anchor-7" 0 760 mark 0
LayerCount: 2
Fore
SplineSet
-67 784 m 1,0,-1
 -214 917 l 1,1,-1
 -72 917 l 1,2,-1
 2 858 l 1,3,-1
 77 917 l 1,4,-1
 215 917 l 1,5,-1
 68 784 l 1,6,-1
 -67 784 l 1,0,-1
EndSplineSet
Validated: 1
EndChar

StartChar: uni0315
Encoding: 789 789 362
Width: 0
GlyphClass: 4
Flags: W
AnchorPoint: "Anchor-8" 0 790 mark 0
LayerCount: 2
Fore
SplineSet
67 554 m 1,0,-1
 82 746 l 1,1,-1
 196 746 l 1,2,-1
 149 554 l 1,3,-1
 67 554 l 1,0,-1
EndSplineSet
Validated: 1
EndChar

StartChar: glyph363
Encoding: 65594 -1 363
Width: 0
GlyphClass: 4
Flags: W
AnchorPoint: "Anchor-9" 0 790 mark 0
LayerCount: 2
Fore
SplineSet
70 593 m 1,0,-1
 82 746 l 1,1,-1
 196 746 l 1,2,-1
 152 593 l 1,3,-1
 70 593 l 1,0,-1
EndSplineSet
Validated: 1
EndChar

StartChar: uni0304
Encoding: 772 772 364
Width: 0
GlyphClass: 4
Flags: W
AnchorPoint: "Anchor-10" 0 562 mark 0
AnchorPoint: "Anchor-6" 0 562 mark 0
LayerCount: 2
Fore
SplineSet
-159 609 m 1,0,-1
 -159 703 l 1,1,-1
 159 703 l 1,2,-1
 159 609 l 1,3,-1
 -159 609 l 1,0,-1
EndSplineSet
Validated: 1
EndChar

StartChar: glyph365
Encoding: 65595 -1 365
Width: 0
GlyphClass: 4
Flags: W
AnchorPoint: "Anchor-11" 0 760 mark 0
AnchorPoint: "Anchor-7" 0 760 mark 0
LayerCount: 2
Fore
SplineSet
-182 789 m 1,0,-1
 -182 889 l 1,1,-1
 182 889 l 1,2,-1
 182 789 l 1,3,-1
 -182 789 l 1,0,-1
EndSplineSet
Validated: 1
EndChar

StartChar: uni0308
Encoding: 776 776 395
Width: 0
GlyphClass: 4
Flags: W
AnchorPoint: "Anchor-10" 0 562 mark 0
AnchorPoint: "Anchor-6" 0 562 mark 0
LayerCount: 2
Fore
SplineSet
-107 600 m 256,0,1
 -128 600 -128 600 -145 609.5 c 128,-1,2
 -162 619 -162 619 -172 635.5 c 128,-1,3
 -182 652 -182 652 -182 672 c 256,4,5
 -182 692 -182 692 -172 708.5 c 128,-1,6
 -162 725 -162 725 -145 734.5 c 128,-1,7
 -128 744 -128 744 -107 744 c 256,8,9
 -86 744 -86 744 -69 734.5 c 128,-1,10
 -52 725 -52 725 -42 708.5 c 128,-1,11
 -32 692 -32 692 -32 672 c 256,12,13
 -32 652 -32 652 -42 635.5 c 128,-1,14
 -52 619 -52 619 -69 609.5 c 128,-1,15
 -86 600 -86 600 -107 600 c 256,0,1
107 600 m 256,16,17
 86 600 86 600 69 609.5 c 128,-1,18
 52 619 52 619 42 635.5 c 128,-1,19
 32 652 32 652 32 672 c 256,20,21
 32 692 32 692 42 708.5 c 128,-1,22
 52 725 52 725 69 734.5 c 128,-1,23
 86 744 86 744 107 744 c 256,24,25
 128 744 128 744 145 734.5 c 128,-1,26
 162 725 162 725 172 708.5 c 128,-1,27
 182 692 182 692 182 672 c 256,28,29
 182 652 182 652 172 635.5 c 128,-1,30
 162 619 162 619 145 609.5 c 128,-1,31
 128 600 128 600 107 600 c 256,16,17
EndSplineSet
Validated: 1
EndChar

StartChar: glyph396
Encoding: 65597 -1 396
Width: 0
GlyphClass: 4
Flags: W
AnchorPoint: "Anchor-11" 0 760 mark 0
AnchorPoint: "Anchor-7" 0 760 mark 0
LayerCount: 2
Fore
SplineSet
-121 773 m 256,0,1
 -143 773 -143 773 -160.5 783.5 c 128,-1,2
 -178 794 -178 794 -188.5 811 c 128,-1,3
 -199 828 -199 828 -199 849 c 256,4,5
 -199 870 -199 870 -188.5 887 c 128,-1,6
 -178 904 -178 904 -160.5 914.5 c 128,-1,7
 -143 925 -143 925 -121 925 c 256,8,9
 -99 925 -99 925 -81.5 914.5 c 128,-1,10
 -64 904 -64 904 -53.5 887 c 128,-1,11
 -43 870 -43 870 -43 849 c 256,12,13
 -43 828 -43 828 -53.5 811 c 128,-1,14
 -64 794 -64 794 -81.5 783.5 c 128,-1,15
 -99 773 -99 773 -121 773 c 256,0,1
121 773 m 256,16,17
 99 773 99 773 81.5 783.5 c 128,-1,18
 64 794 64 794 53.5 811 c 128,-1,19
 43 828 43 828 43 849 c 256,20,21
 43 870 43 870 53.5 887 c 128,-1,22
 64 904 64 904 81.5 914.5 c 128,-1,23
 99 925 99 925 121 925 c 256,24,25
 143 925 143 925 160.5 914.5 c 128,-1,26
 178 904 178 904 188.5 887 c 128,-1,27
 199 870 199 870 199 849 c 256,28,29
 199 828 199 828 188.5 811 c 128,-1,30
 178 794 178 794 160.5 783.5 c 128,-1,31
 143 773 143 773 121 773 c 256,16,17
EndSplineSet
Validated: 1
EndChar

StartChar: uni0306
Encoding: 774 774 398
Width: 0
GlyphClass: 4
Flags: W
AnchorPoint: "Anchor-10" 0 562 mark 0
AnchorPoint: "Anchor-6" 0 562 mark 0
LayerCount: 2
Fore
SplineSet
0 601 m 256,0,1
 -46 601 -46 601 -82 618 c 128,-1,2
 -118 635 -118 635 -141.5 666 c 128,-1,3
 -165 697 -165 697 -172 739 c 1,4,-1
 -68 739 l 1,5,6
 -62 712 -62 712 -44 698 c 128,-1,7
 -26 684 -26 684 0 684 c 256,8,9
 26 684 26 684 43.5 698 c 128,-1,10
 61 712 61 712 68 739 c 1,11,-1
 172 739 l 1,12,13
 165 697 165 697 141.5 666 c 128,-1,14
 118 635 118 635 82 618 c 128,-1,15
 46 601 46 601 0 601 c 256,0,1
EndSplineSet
Validated: 1
EndChar

StartChar: glyph399
Encoding: 65598 -1 399
Width: 0
GlyphClass: 4
Flags: W
AnchorPoint: "Anchor-11" 0 760 mark 0
AnchorPoint: "Anchor-7" 0 760 mark 0
LayerCount: 2
Fore
SplineSet
0 779 m 256,0,1
 -48 779 -48 779 -87.5 796.5 c 128,-1,2
 -127 814 -127 814 -152.5 847 c 128,-1,3
 -178 880 -178 880 -185 924 c 1,4,-1
 -75 924 l 1,5,6
 -68 896 -68 896 -48 880.5 c 128,-1,7
 -28 865 -28 865 0 865 c 256,8,9
 28 865 28 865 48 880.5 c 128,-1,10
 68 896 68 896 75 924 c 1,11,-1
 185 924 l 1,12,13
 178 880 178 880 152.5 847 c 128,-1,14
 127 814 127 814 87.5 796.5 c 128,-1,15
 48 779 48 779 0 779 c 256,0,1
EndSplineSet
Validated: 1
EndChar

StartChar: uni0307
Encoding: 775 775 421
Width: 0
GlyphClass: 4
Flags: W
AnchorPoint: "Anchor-10" 0 562 mark 0
AnchorPoint: "Anchor-6" 0 562 mark 0
LayerCount: 2
Fore
SplineSet
80 671 m 256,0,1
 80 648 80 648 69.5 630 c 128,-1,2
 59 612 59 612 40.5 601.5 c 128,-1,3
 22 591 22 591 0 591 c 256,4,5
 -22 591 -22 591 -40.5 601.5 c 128,-1,6
 -59 612 -59 612 -69.5 630 c 128,-1,7
 -80 648 -80 648 -80 671 c 256,8,9
 -80 694 -80 694 -69.5 712 c 128,-1,10
 -59 730 -59 730 -40.5 740.5 c 128,-1,11
 -22 751 -22 751 0 751 c 256,12,13
 22 751 22 751 40.5 740.5 c 128,-1,14
 59 730 59 730 69.5 712 c 128,-1,15
 80 694 80 694 80 671 c 256,0,1
EndSplineSet
Validated: 1
EndChar

StartChar: glyph422
Encoding: 65601 -1 422
Width: 0
GlyphClass: 4
Flags: W
AnchorPoint: "Anchor-11" 0 760 mark 0
AnchorPoint: "Anchor-7" 0 760 mark 0
LayerCount: 2
Fore
SplineSet
0 773 m 256,0,1
 -24 773 -24 773 -42.5 784 c 128,-1,2
 -61 795 -61 795 -72 813.5 c 128,-1,3
 -83 832 -83 832 -83 855 c 256,4,5
 -83 878 -83 878 -72 896.5 c 128,-1,6
 -61 915 -61 915 -42.5 926 c 128,-1,7
 -24 937 -24 937 0 937 c 256,8,9
 24 937 24 937 42.5 926 c 128,-1,10
 61 915 61 915 72 896.5 c 128,-1,11
 83 878 83 878 83 855 c 256,12,13
 83 832 83 832 72 813.5 c 128,-1,14
 61 795 61 795 42.5 784 c 128,-1,15
 24 773 24 773 0 773 c 256,0,1
EndSplineSet
Validated: 1
EndChar

StartChar: dotbelowcomb
Encoding: 803 803 424
Width: 0
GlyphClass: 4
Flags: W
AnchorPoint: "Anchor-0" 0 -50 mark 0
LayerCount: 2
Fore
SplineSet
80 -146 m 256,0,1
 80 -168 80 -168 69.5 -186.5 c 128,-1,2
 59 -205 59 -205 40.5 -215.5 c 128,-1,3
 22 -226 22 -226 0 -226 c 256,4,5
 -22 -226 -22 -226 -40.5 -215.5 c 128,-1,6
 -59 -205 -59 -205 -69.5 -186.5 c 128,-1,7
 -80 -168 -80 -168 -80 -146 c 256,8,9
 -80 -124 -80 -124 -69.5 -105.5 c 128,-1,10
 -59 -87 -59 -87 -40.5 -76.5 c 128,-1,11
 -22 -66 -22 -66 0 -66 c 256,12,13
 22 -66 22 -66 40.5 -76.5 c 128,-1,14
 59 -87 59 -87 69.5 -105.5 c 128,-1,15
 80 -124 80 -124 80 -146 c 256,0,1
EndSplineSet
Validated: 1
EndChar

StartChar: glyph425
Encoding: 65602 -1 425
Width: 0
GlyphClass: 4
Flags: W
AnchorPoint: "Anchor-1" 0 -50 mark 0
LayerCount: 2
Fore
SplineSet
0 -235 m 256,0,1
 -24 -235 -24 -235 -42.5 -224 c 128,-1,2
 -61 -213 -61 -213 -72 -194.5 c 128,-1,3
 -83 -176 -83 -176 -83 -153 c 256,4,5
 -83 -130 -83 -130 -72 -111.5 c 128,-1,6
 -61 -93 -61 -93 -42.5 -82 c 128,-1,7
 -24 -71 -24 -71 0 -71 c 256,8,9
 24 -71 24 -71 42.5 -82 c 128,-1,10
 61 -93 61 -93 72 -111.5 c 128,-1,11
 83 -130 83 -130 83 -153 c 256,12,13
 83 -176 83 -176 72 -194.5 c 128,-1,14
 61 -213 61 -213 42.5 -224 c 128,-1,15
 24 -235 24 -235 0 -235 c 256,0,1
EndSplineSet
Validated: 1
EndChar

StartChar: uni030A
Encoding: 778 778 439
Width: 0
GlyphClass: 4
Flags: W
AnchorPoint: "Anchor-10" 0 562 mark 0
AnchorPoint: "Anchor-6" 0 562 mark 0
LayerCount: 2
Fore
SplineSet
0 576 m 256,0,1
 -32 576 -32 576 -58 590.5 c 128,-1,2
 -84 605 -84 605 -99 629.5 c 128,-1,3
 -114 654 -114 654 -114 685 c 256,4,5
 -114 716 -114 716 -99 740.5 c 128,-1,6
 -84 765 -84 765 -58 779.5 c 128,-1,7
 -32 794 -32 794 0 794 c 256,8,9
 32 794 32 794 58 779.5 c 128,-1,10
 84 765 84 765 99 740.5 c 128,-1,11
 114 716 114 716 114 685 c 256,12,13
 114 654 114 654 99 629.5 c 128,-1,14
 84 605 84 605 58 590.5 c 128,-1,15
 32 576 32 576 0 576 c 256,0,1
0 640 m 256,16,17
 18 640 18 640 31 653 c 128,-1,18
 44 666 44 666 44 685 c 256,19,20
 44 704 44 704 31 717 c 128,-1,21
 18 730 18 730 0 730 c 256,22,23
 -18 730 -18 730 -31 717 c 128,-1,24
 -44 704 -44 704 -44 685 c 256,25,26
 -44 666 -44 666 -31 653 c 128,-1,27
 -18 640 -18 640 0 640 c 256,16,17
EndSplineSet
Validated: 1
EndChar

StartChar: glyph440
Encoding: 65603 -1 440
Width: 0
GlyphClass: 4
Flags: W
AnchorPoint: "Anchor-11" 0 760 mark 0
AnchorPoint: "Anchor-7" 0 760 mark 0
LayerCount: 2
Fore
SplineSet
0 751 m 256,0,1
 -33 751 -33 751 -59.5 766 c 128,-1,2
 -86 781 -86 781 -101.5 806.5 c 128,-1,3
 -117 832 -117 832 -117 863 c 256,4,5
 -117 894 -117 894 -101.5 919.5 c 128,-1,6
 -86 945 -86 945 -59.5 960 c 128,-1,7
 -33 975 -33 975 0 975 c 256,8,9
 33 975 33 975 59.5 960 c 128,-1,10
 86 945 86 945 101.5 919.5 c 128,-1,11
 117 894 117 894 117 863 c 256,12,13
 117 832 117 832 101.5 806.5 c 128,-1,14
 86 781 86 781 59.5 766 c 128,-1,15
 33 751 33 751 0 751 c 256,0,1
0 819 m 256,16,17
 17 819 17 819 30 831.5 c 128,-1,18
 43 844 43 844 43 863 c 256,19,20
 43 882 43 882 30 894.5 c 128,-1,21
 17 907 17 907 0 907 c 256,22,23
 -17 907 -17 907 -30 894.5 c 128,-1,24
 -43 882 -43 882 -43 863 c 256,25,26
 -43 844 -43 844 -30 831.5 c 128,-1,27
 -17 819 -17 819 0 819 c 256,16,17
EndSplineSet
Validated: 1
EndChar

StartChar: colon_B_e_l_o_colon.dlig
Encoding: 65605 -1 447
Width: 781
GlyphClass: 2
Flags: W
LayerCount: 2
Fore
SplineSet
390 92 m 1,0,1
 297 -10 297 -10 207 -10 c 0,2,3
 174 -10 174 -10 145.5 2 c 128,-1,4
 117 14 117 14 95.5 35 c 128,-1,5
 74 56 74 56 61.5 84 c 128,-1,6
 49 112 49 112 49 144 c 0,7,8
 49 164 49 164 55.5 186.5 c 128,-1,9
 62 209 62 209 77 243 c 0,10,11
 88 268 88 268 104 301.5 c 128,-1,12
 120 335 120 335 138.5 373.5 c 128,-1,13
 157 412 157 412 176.5 451.5 c 128,-1,14
 196 491 196 491 214.5 527.5 c 128,-1,15
 233 564 233 564 248 593.5 c 128,-1,16
 263 623 263 623 273 642 c 0,17,18
 316 720 316 720 390 720 c 0,19,20
 428 720 428 720 456.5 701 c 128,-1,21
 485 682 485 682 507 642 c 0,22,23
 517 623 517 623 532 593.5 c 128,-1,24
 547 564 547 564 565.5 527.5 c 128,-1,25
 584 491 584 491 603.5 451.5 c 128,-1,26
 623 412 623 412 641.5 373.5 c 128,-1,27
 660 335 660 335 676 301.5 c 128,-1,28
 692 268 692 268 703 243 c 0,29,30
 718 209 718 209 724.5 186.5 c 128,-1,31
 731 164 731 164 731 144 c 0,32,33
 731 112 731 112 718.5 84 c 128,-1,34
 706 56 706 56 684.5 35 c 128,-1,35
 663 14 663 14 634.5 2 c 128,-1,36
 606 -10 606 -10 573 -10 c 0,37,38
 483 -10 483 -10 390 92 c 1,0,1
390 674 m 256,39,40
 364 674 364 674 347 661 c 128,-1,41
 330 648 330 648 312 616 c 0,42,43
 304 602 304 602 289.5 573.5 c 128,-1,44
 275 545 275 545 256.5 508.5 c 128,-1,45
 238 472 238 472 218.5 431.5 c 128,-1,46
 199 391 199 391 180 352 c 128,-1,47
 161 313 161 313 145.5 279.5 c 128,-1,48
 130 246 130 246 120 224 c 0,49,50
 106 193 106 193 101 176.5 c 128,-1,51
 96 160 96 160 96 144 c 0,52,53
 96 115 96 115 111 90.5 c 128,-1,54
 126 66 126 66 151 51 c 128,-1,55
 176 36 176 36 206 36 c 0,56,57
 278 36 278 36 359 128 c 1,58,59
 265 243 265 243 265 328 c 0,60,61
 265 364 265 364 281.5 392.5 c 128,-1,62
 298 421 298 421 326 437.5 c 128,-1,63
 354 454 354 454 390 454 c 256,64,65
 426 454 426 454 454 437.5 c 128,-1,66
 482 421 482 421 498.5 392.5 c 128,-1,67
 515 364 515 364 515 328 c 0,68,69
 515 243 515 243 421 128 c 1,70,71
 502 36 502 36 574 36 c 0,72,73
 604 36 604 36 629 51 c 128,-1,74
 654 66 654 66 669 90.5 c 128,-1,75
 684 115 684 115 684 144 c 0,76,77
 684 160 684 160 679 176.5 c 128,-1,78
 674 193 674 193 660 224 c 0,79,80
 650 246 650 246 634.5 279.5 c 128,-1,81
 619 313 619 313 600 352 c 128,-1,82
 581 391 581 391 561.5 431.5 c 128,-1,83
 542 472 542 472 523.5 508.5 c 128,-1,84
 505 545 505 545 490.5 573.5 c 128,-1,85
 476 602 476 602 468 616 c 0,86,87
 450 648 450 648 433 661 c 128,-1,88
 416 674 416 674 390 674 c 256,39,40
390 407 m 256,89,90
 356 407 356 407 334 385.5 c 128,-1,91
 312 364 312 364 312 330 c 0,92,93
 312 298 312 298 332 254.5 c 128,-1,94
 352 211 352 211 390 164 c 1,95,96
 428 211 428 211 448 254.5 c 128,-1,97
 468 298 468 298 468 330 c 0,98,99
 468 364 468 364 446 385.5 c 128,-1,100
 424 407 424 407 390 407 c 256,89,90
EndSplineSet
Validated: 1
Ligature2: "'dlig' Discretionary Ligatures in Latin lookup 24 subtable" colon b eacute l o colon
Ligature2: "'dlig' Discretionary Ligatures in Latin lookup 24 subtable" colon b e l o colon
Ligature2: "'dlig' Discretionary Ligatures in Latin lookup 24 subtable" colon B eacute l o colon
Ligature2: "'dlig' Discretionary Ligatures in Latin lookup 24 subtable" colon B e l o colon
EndChar

StartChar: uniFFFD
Encoding: 65533 65533 449
Width: 808
GlyphClass: 2
Flags: W
LayerCount: 2
Fore
SplineSet
404 -34 m 1,0,-1
 15 355 l 1,1,-1
 404 744 l 1,2,-1
 793 355 l 1,3,-1
 404 -34 l 1,0,-1
357 250 m 1,4,-1
 439 250 l 1,5,-1
 439 303 l 1,6,7
 492 320 492 320 521.5 354 c 128,-1,8
 551 388 551 388 551 435 c 0,9,10
 551 472 551 472 532 501 c 128,-1,11
 513 530 513 530 479.5 546.5 c 128,-1,12
 446 563 446 563 404 563 c 0,13,14
 366 563 366 563 334 549.5 c 128,-1,15
 302 536 302 536 280.5 511 c 128,-1,16
 259 486 259 486 252 453 c 1,17,-1
 332 435 l 1,18,19
 340 460 340 460 358 473.5 c 128,-1,20
 376 487 376 487 400 487 c 0,21,22
 428 487 428 487 445 470.5 c 128,-1,23
 462 454 462 454 462 429 c 0,24,25
 462 368 462 368 357 343 c 1,26,-1
 357 250 l 1,4,-1
398 108 m 256,27,28
 420 108 420 108 435 123 c 128,-1,29
 450 138 450 138 450 160 c 256,30,31
 450 182 450 182 435 197 c 128,-1,32
 420 212 420 212 398 212 c 256,33,34
 376 212 376 212 361.5 197 c 128,-1,35
 347 182 347 182 347 160 c 256,36,37
 347 138 347 138 361.5 123 c 128,-1,38
 376 108 376 108 398 108 c 256,27,28
EndSplineSet
Validated: 1
EndChar
